<?xml version="1.0" encoding="utf-8"?>
<!-- Generator: Adobe Illustrator 23.0.4, SVG Export Plug-In . SVG Version: 6.00 Build 0)  -->
<svg version="1.1" id="Layer_1" xmlns="http://www.w3.org/2000/svg" xmlns:xlink="http://www.w3.org/1999/xlink" x="0px" y="0px"
	 viewBox="0 0 209.5 119.6" style="enable-background:new 0 0 209.5 119.6;" xml:space="preserve">
<style type="text/css">
	.st0{fill:#003087;}
	.st1{fill:#FFFFFF;}
	.st2{fill:#41B6E6;}
</style>
<g>
	<g>
		<ellipse class="st0" cx="43.7" cy="50.6" rx="28.8" ry="36"/>
		<path class="st1" d="M43.7,84.1c-14.5,0-26.3-15-26.3-33.4c0-18.4,11.8-33.4,26.3-33.4c14.5,0,26.3,15,26.3,33.4
			C70,69.1,58.2,84.1,43.7,84.1L43.7,84.1z M43.7,18.8C30.1,18.8,19,33.1,19,50.6c0,17.6,11.1,31.9,24.7,31.9
			c13.6,0,24.7-14.3,24.7-31.9C68.4,33.1,57.3,18.8,43.7,18.8L43.7,18.8z"/>
		<g>
			<path class="st1" d="M51.4,27.8v0.1c-0.6,0.2-1.3,0.4-2,0.6c-0.2,0-0.4,0.1-0.4,0.2v0.1c0.9,0.6,1.9,1.4,2.9,1.9
				c0-0.8-0.1-1.7-0.1-2.5l0.1-0.1c2.1,1.2,4,2.4,6.2,3.6V32c-1,0.4-2.2,0.7-3.1,1.3c-2.1-1-4.1-2.5-6-3.8c-1.5-1.1-3.1-2.3-4.5-3.5
				c-0.1-0.2,0.1-0.3,0.2-0.4c0-1,0.2-2,0.2-3.1l0.4,0.2L51.4,27.8z"/>
			<path class="st1" d="M52.7,25.9c1.8,1.6,3.3,3.1,5,5c-3.1-1.5-6.1-3.3-8.8-5.8c-1-0.9-2-1.7-2.9-2.6h0.2L52.7,25.9z"/>
			<path class="st1" d="M43,27.1c0.4,0.6,0.7,1.5,1.4,1.7c0.1,0.1,0.1,0.2,0.1,0.4c-0.2,0.1-0.2,0.3-0.1,0.5
				c0.6,0.2,1.5,0.2,1.7,0.9c-0.1,0.7,0.7,0.4,1,0.6c2.3,0.7,3.9,2.6,6,3.7c0.2,0.2,0.2,0.6,0.2,0.9c-0.1,0.2-0.4,0.1-0.6,0.1
				c0.1,0.5-0.1,0.9-0.6,1.1c-0.6,0.2-1.2,0.1-1.8,0.5c-0.6,0-1.2-0.5-1.6,0.1c-0.1,0.2,0,0.5,0.2,0.5c0.4,0.1,0.9,0.1,1.1,0.4
				c0,0.4,0,0.9-0.3,1.2c-0.1,0.1-0.4,0.2-0.4,0.4c-0.1,0.1,0.1,0.1,0.1,0.2c1.2,0.1,1.3-2.2,2.6-1.3c0.6,1.1,1,2.4,1.2,3.7
				c0.4,0.2,0.6-0.2,1,0c0.6,0.8,0.6,1.9,1.2,2.7c0,0.4-1.1,0.5-0.4,0.9c0.4,0.1,0.7-0.4,1.1-0.1c1.5,1.7,4.2,2.5,4.3,5.2
				c1,4.9-0.8,9.5-3.4,13.2c-1.6,2.6-2.8,5.7-5.3,7.6c-1.5,0.9-3.2,1.5-5,1.8c-2.3,0.7-4.9,0.7-7.4,0.4c-1-0.7-0.8-2.2-0.9-3.4
				c0-1.4,1.7-0.7,2.5-1.1c2.5-0.3,5-1.2,6.8-2.9c0.2-0.1,0.5-0.1,0.7,0c0.4,0.2,0.2,1.1,0.8,0.7c0.6-0.7-0.1-1.4-0.1-2.1
				c0.1-0.2,0.3,0,0.5,0c0.3,0.3,0.2,0.9,0.7,1c0.2,0,0.5-0.2,0.5-0.5c0.1-0.3,0-0.7-0.3-0.9c-0.3-0.4-1-0.2-1.2-0.7
				c0.1-1.9,1-3.5,1.8-5.2c1-2.1,2.1-4.2,3.6-6l-0.1-0.1c-1.1,0.5-1.7,1.8-2.5,2.8c-1.2,2-2.3,4.1-3.3,6.3c-0.2,0.1-0.2,0.4-0.5,0.4
				c-0.1-0.7,0-1.5,0.1-2.3c1-2.2,2.6-4.5,4.1-6.4c0.4-1,1.4-1.7,2-2.5c0.8-0.7,1.8-1.5,2.9-1.9c0-0.1,0.1-0.2-0.1-0.2
				c-1.3,0-2.2,0.9-3.1,1.6c-2.8,2.3-4.9,5.2-6.6,8.3c-0.6,1.5-0.7,3.3-1.4,4.8c-1.4,0.4-2-1.2-3.3-1.5c-0.9-0.6-2.3-1.2-1.8-2.8
				c0.7-2.9,3.9-3.6,6.1-5c0.3-0.3,0-0.9,0.4-1.1c2-0.4,3.4-1.7,4.5-3.3c-0.2-0.7,0.4-1,0.1-1.6c0.1-0.1,0.1-0.4,0.1-0.6
				c-0.2-0.4-0.2-0.9-0.7-1.1c-0.9-0.1-1.7,0.2-2.5,0.1c-0.1-0.2,0.1-0.7-0.3-0.7c-0.4,0.1-0.4,0.5-0.8,0.6
				c-0.9,0.5-1.7,1.4-2.2,2.2c-1-0.4-1.8,0.4-2.6,0.7c-1,0.9-2.9,0.6-4,0.2c-0.6-0.2-0.3-1-0.3-1.5c0.2-1,0.7-2,1.6-2.5
				c1.5-0.4,2.8-0.9,4.4-1c0.4,0.2,0.2,1.2,0.8,0.9c0.1-0.9-0.4-2,0.7-2.3c1.7-0.2,3.5-0.2,5-0.8c0.1-0.1,0-0.1,0-0.2
				c-0.2-0.4-0.7,0-1.1-0.1c-1.1,0.2-2.3,0.4-3.5,0.3c0-0.2-0.1-0.1-0.2-0.2c-0.6-0.2-0.9,0.4-1.4,0.5c-0.7,0.4-1.9,0.6-2.7,0.1
				c-0.8-0.4,0.1-1.6-0.7-2c-0.1-0.2,0.1-0.4,0.2-0.6c0.3-0.1,0.6-0.1,0.8-0.4c0.1-0.2,0-0.3-0.1-0.4c-0.5,0.1-1,0.1-1.5,0
				c-0.2-0.3,0.1-0.9-0.4-1c-0.3-0.1-0.9,0.1-1-0.4c0.1-0.7,0.4-1.4,0.6-2.2c0.2,0,0.6,0,0.6,0.3c0.1,0.2-0.1,0.7,0.3,0.8
				c0.4-0.5,0.7-1.1,1.5-1.2c0.1-0.1,0.2-0.2,0.2-0.4c-0.6-0.3-1.4,0.1-1.8-0.5c-0.1-0.1-0.2-0.2-0.1-0.4c0.4-0.4,0.9-0.4,1.4-0.7
				c-0.2-0.4-0.8-0.1-1.2-0.1c-0.5-0.1-0.9,0.9-1.2,0.1c0.1-0.7-0.7-1.5-0.2-2.2c0.3,0,0.5,0.2,0.7,0.3c-0.1,0.1,0,0.2-0.1,0.4
				l0.1,0.1c1-0.4,1.8-0.8,2.9-1c0.2,0.2-0.1,0.6,0.2,0.7c1.6-0.3,3.4-0.1,4.5,1c0.4-0.3-0.2-0.7-0.2-1c-0.9-0.8-2.3-0.7-3.6-1
				c-0.1-0.2-0.3-0.4-0.6-0.4c-0.4,0.1-0.9,0.1-1.3,0.2c-0.1-0.2-0.3-0.6-0.1-0.9c0.6-0.1,1.2,0.1,1.8,0.2c-0.1-0.4-0.3-1-0.8-1
				c-0.6-0.2-0.9,0.5-1.4,0.1c-0.3,0-0.6,0.1-0.8,0.3c-0.1,0.3,0,0.6,0.3,0.7c0.1,0,0.3,0,0.2,0.2c-0.2,0.4-0.7,0.2-1,0.2
				c-0.9-0.2-2.1-0.3-2.4-1.2c0-0.7,0.6-1,0.8-1.5c0.7-0.7,0.7-2.3,2-2.3C42,26.6,42.6,26.7,43,27.1z"/>
			<path class="st1" d="M44.3,26.9c3.1,2.5,6.4,5,9.8,6.9c0.1,0.1,0.2,0.4,0.1,0.6c-0.2,0.2-0.6-0.1-0.8-0.1c-3.2-2-6.5-4.2-9.4-6.6
				c-0.2-0.2-0.2-0.5-0.1-0.7C43.9,26.9,44.1,26.9,44.3,26.9z"/>
			<path class="st0" d="M47.7,34.5c0.1,0.1,0.4,0.2,0.2,0.4c-0.2,0.1-0.5,0.1-0.7,0.2c0.5,1,1.7,1.3,2.6,1.6
				c0.1,0.2-0.1,0.2-0.2,0.2c-1.4-0.1-2.7-0.7-3.3-2c-0.9-0.2-1.8-0.7-2.2-1.3c-0.1-0.1-0.1-0.4,0.1-0.4
				C45.2,34.1,46.4,34.7,47.7,34.5z"/>
			<path class="st0" d="M51.7,35.4c0.3,0,0.5,0.1,0.5,0.3c0,0.2-0.1,0.4-0.3,0.4c-1.3,0.2-2.3-0.6-3.3-1.2l0.1-0.2
				C49.6,35.2,50.6,35.7,51.7,35.4z"/>
			<path class="st1" d="M56,35.4c0,1.3-0.1,2.8-1.2,3.6c-0.7,0.3-1.5,0.1-2.1-0.4v-0.2c0.4,0.1,1.1,0.3,1.5-0.1c0-0.2,0-0.4-0.2-0.4
				c-0.6,0.2-1-0.1-1.6-0.2c-0.1-0.1-0.1-0.2-0.1-0.4c0.3-0.1,0.7-0.1,0.9-0.6c-0.2-0.8,0.9-0.8,0.9-1.5c0.2-0.3,0.7-0.6,1.2-0.4
				C55.7,34.9,55.9,35.1,56,35.4z"/>
			<path class="st1" d="M36.4,36.6c0.3-0.2,0.8-0.1,1.1,0c0,0.1,0.1,0.1,0.1,0.1c0.4-0.1,0.7,0.2,1.1,0.3c0.7,0.6,0.7,1.7,0.4,2.5
				c-0.1,0-0.3,0.1-0.4,0.2c0.4,0.4,0.6,1.2,0.3,1.7c-0.5,0.2-0.7,0.7-0.8,1.2c0.2,0.2,0.5-0.2,0.8,0c0.9,0.9,0.4,2.3,0.1,3.4
				c-0.5,0.9-1,1.6-2,1.7c-1.5-0.1-2.9-0.6-3.7-1.7c-0.4-0.4-0.1-1.2-0.6-1.5c-0.4,0.1-0.5,0.6-0.9,0.4c-0.4-0.2-0.2-1-0.9-0.9
				c-0.4,0.7,1.1,1.3,0.1,1.8c-0.7,0.2-1.2-0.4-1.8-0.4c-0.8-0.7-0.8-2-0.6-3.1c1.2-1.6,0.4-4.3,2.6-5.3c0.9-0.6,1.8-1.3,3.1-1
				C35,36.3,35.8,36.1,36.4,36.6z"/>
			<path class="st0" d="M38.4,38.3l-0.1,0.8c-0.8-0.1-0.4,1.5-1.4,1.1l-0.2-0.3c0.1-0.3,0.4,0,0.6-0.1c0.4-0.5,0.3-1.2,0.7-1.7
				C38.2,38,38.4,38.2,38.4,38.3z"/>
			<path class="st0" d="M31.5,40.1c0.1,0.5,0.1,1.3-0.2,1.7c-0.4-0.1-0.1-0.7-0.4-1c-0.6,0.4-0.2,1.3-0.8,1.8
				c-0.1,0-0.2-0.1-0.3-0.2c0.6-0.7,0.2-1.8,0.8-2.6C31,39.7,31,40.6,31.5,40.1z"/>
			<path class="st0" d="M35.7,40l0.2,0.1c0,0.4-0.2,0.6-0.6,0.8c-0.4,0.1-0.7-0.2-0.9,0.3c-0.1,0.4-0.1,0.9-0.4,1
				c-0.2-0.1-0.6-0.4-0.7,0.1l-0.1,1.3c-0.1,0.1-0.4,0.1-0.4-0.1c-0.1-0.9,0.1-1.8,0.6-2.4c0.2,0.2,0.6,0.1,0.7-0.2
				c0.2-0.3,0.4-1,0.9-1C35,40.1,35.5,40.2,35.7,40z"/>
			<path class="st0" d="M37.2,42.1c0.1,0.3,0.1,0.7-0.2,0.8c-0.6,0-1,0-1.5,0c-0.1-0.6,1-0.5,0.6-1L35.6,42
				c-0.1-0.2,0.2-0.2,0.2-0.4C36.3,41.6,37.1,41.4,37.2,42.1z"/>
			<path class="st0" d="M38.3,44.1c0.2,0.3-0.2,0.4-0.4,0.5c-0.2,0.1-0.2-0.2-0.4-0.4C37.6,43.9,38,44.1,38.3,44.1z"/>
			<path class="st0" d="M38,45.7C38,45.9,37.7,46,37.5,46c-0.2-0.1-0.5-0.4-0.8-0.3v-0.2c0.5,0.3,0.7-0.3,1.2-0.2
				c0.1-0.1,0.3-0.2,0.4-0.1C38.3,45.3,38,45.5,38,45.7z"/>
			<path class="st1" d="M34.4,48.1c0.5,0.4,1.8-0.1,1.7,0.9c0.7,0.5,1.5,0.9,2.2,1.4l2.3,1.8h0.3c0.2-0.2-0.5-0.6,0-0.7
				c1.7,0.3,3.1-0.9,4.6-1.4c0.4-0.1,0.7,0.2,0.9,0.5c0.5,1.2,0.7,2.5,0.7,3.7c-0.6,0.3-1,0.7-1.7,0.8c-0.7-0.4-1.3,0.2-1.8,0.4
				c-1.7,1-3.7,2.2-5.9,1.2c-1.8,1.2-3.3-1-5-1.2c-0.2,0.2-0.3,0.5-0.2,0.9c0.3,0.2,0.8,0.1,1.2,0.3c1,0.6,1.7,1.8,3.1,1.6
				c0,0.1,0.1,0.1,0.1,0.1v0.2c-0.6,0.4-1.5,1-1.7,1.7c0.1,0.2,0.4,0.2,0.6,0.1c1.1-0.6,2-1.6,3.3-1.7c0.6,0.6-0.6,1-0.2,1.7
				c0.7,0.6,1,1.5,0.7,2.4c-0.4,0.6-1.2,0.7-1.4,1.4c-0.1,0.2,0.1,0.6,0.4,0.7c1,0,1.2-2,2.6-1.3c1.1,0.5,2.5,0.3,3.3,1.3
				c0.4,0.6,0.7,1.4,1,2.1c-0.2,0.5-0.9,0.6-1.4,0.8c-2.1,0.9-4.6,1.1-6.8,1.9c-2,0.1-3.7-1.4-5.6-0.3c-1.2,0.2-2.4-0.3-3.3-0.9
				c-0.9-0.7-0.5-2.1-1.5-2.8c-1.6-4.1,0.2-8.2,0.9-12.1c0.9-1.7,0.5-4.1,2.3-5.2c0.8-0.4,1.4-1,1.8-1.7c0.9-0.1,1,1,1.8,1.1
				L34.4,48.1z"/>
			<path class="st1" d="M51.8,48.1c-0.1,0.3,0.1,0.4,0.2,0.6c-0.1,0.6-0.1,1.2-0.3,1.7c-0.8,1-2,1.9-3.4,2c-0.8-0.1-1-1-1.4-1.6
				c0.1-1,0.6-2.2,1.7-2.6c0.3-0.2,0.6,0.1,0.9,0c0.8,0,1.4-0.5,2.2-0.3L51.8,48.1z"/>
			<path class="st1" d="M37.1,71.5c0.6,0.6,0.6,1.7,0.3,2.5c-1.3,0.5-2.7,0.9-4.1,1c-0.6,0-1.3,0-1.7-0.4c-0.1-0.6-1-0.5-1-1.2
				C30.5,73,30,73,29.9,72.7c0.2-0.5-0.3-0.7-0.4-1.1c0.1-1,1.4-0.9,2-1.2c0.8-1.1,2.3-0.4,3.3-0.2C35.7,70.6,36.5,71,37.1,71.5z"/>
			<path class="st1" d="M56.5,75.3c-0.5,0.4-0.9,0.9-1.5,1.2c-0.9-0.9-2-2-2.5-3.1c0-0.2,0-0.4,0.2-0.4
				C54.5,72.8,55.6,74.1,56.5,75.3z"/>
			<path class="st1" d="M49.5,76c0.4,1,0.6,2,0.9,2.9c-0.4,0.4-1.2,0.5-1.8,0.8c-5.3,1.6-11.7,0.6-15.8-2.6c0.2-0.4,0.4-0.9,0.9-1
				c0.7-0.1,1.4,0.4,2.2,0.4c0,0,0.9,0.2,1.3,0c0.6,0,1-0.5,1.6-0.7c0.9-0.1,1.8-0.1,2.7-0.2c1.5,0.7,4.4,0.3,4.7,0.2
				c0.3-0.1,1.7-0.9,2.6-1.2C49.5,74.7,49.2,75.6,49.5,76z"/>
			<path class="st1" d="M52.8,75.1c0.7,0.7,1.3,1,1.6,1.8c-0.1,0.2-0.4,0.4-0.7,0.6c-0.5-0.2-0.7-1-1.3-0.9
				c-0.2,0.6,0.5,0.9,0.4,1.5c-0.4,0.2-1,0.5-1.5,0.6c-0.6-0.9-0.8-1.8-1-2.8c0.1-1.2,1.5-0.2,2.2-0.8L52.8,75.1z"/>
		</g>
	</g>
	<g>
		<g>
			<g>
				<path class="st2" d="M19.1,92.4h1.1v7.3c0,1.9,1.2,3.1,3.1,3.1c1.9,0,3.1-1.2,3.1-3.1v-7.3h1.1v7.3c0,2.5-1.7,4.1-4.2,4.1
					c-2.5,0-4.2-1.6-4.2-4.1V92.4z"/>
				<path class="st2" d="M29.8,95.6h1v1.2c0,0.4,0,0.6,0,0.6h0c0.3-0.7,1.3-2,3.1-2c1.9,0,2.6,1.1,2.6,3.1v5.1h-1.1v-4.8
					c0-1.3-0.2-2.4-1.7-2.4c-1.3,0-2.5,0.9-2.8,2.3c-0.1,0.3-0.1,0.7-0.1,1.1v3.9h-1.1V95.6z"/>
				<path class="st2" d="M39.3,96.6h-1v-0.9h1v-2.3h1v2.3h2v0.9h-2v4c0,1.9,1.2,2.1,1.8,2.1c0.2,0,0.4,0,0.4,0v1c0,0-0.2,0-0.5,0
					c-0.9,0-2.7-0.3-2.7-3V96.6z"/>
				<path class="st2" d="M44.3,92.4h1.1v1.4h-1.1V92.4z M44.4,95.6h1.1v8h-1.1V95.6z"/>
				<path class="st2" d="M47.9,92.4h1.1v9.1c0,1.1,0.5,1.2,0.9,1.2c0.1,0,0.3,0,0.3,0v1c0,0-0.2,0-0.4,0c-0.7,0-1.8-0.2-1.8-2V92.4z
					"/>
				<path class="st2" d="M59.3,95.4c2.2,0,3.3,1.7,3.3,3.7c0,0.2,0,0.6,0,0.6h-6c0,2.1,1.4,3.2,3,3.2c1.4,0,2.4-1,2.4-1l0.5,0.8
					c0,0-1.1,1.1-2.9,1.1c-2.3,0-4.1-1.7-4.1-4.2C55.4,97,57.2,95.4,59.3,95.4z M61.5,98.8c-0.1-1.7-1.1-2.5-2.2-2.5
					c-1.3,0-2.4,0.8-2.7,2.5H61.5z"/>
				<path class="st2" d="M63.5,95.6h1.1l2.2,5.9c0.1,0.4,0.3,1,0.3,1h0c0,0,0.1-0.5,0.3-1l2.2-5.9h1.1l-3,8h-1.1L63.5,95.6z"/>
				<path class="st2" d="M75.4,95.4c2.2,0,3.3,1.7,3.3,3.7c0,0.2,0,0.6,0,0.6h-6c0,2.1,1.4,3.2,3,3.2c1.4,0,2.4-1,2.4-1l0.5,0.8
					c0,0-1.1,1.1-2.9,1.1c-2.3,0-4.1-1.7-4.1-4.2C71.5,97,73.2,95.4,75.4,95.4z M77.5,98.8c-0.1-1.7-1.1-2.5-2.2-2.5
					c-1.3,0-2.4,0.8-2.7,2.5H77.5z"/>
				<path class="st2" d="M80.5,95.6h1V97c0,0.4,0,0.6,0,0.6h0c0.4-1.2,1.2-2.1,2.5-2.1c0.2,0,0.4,0,0.4,0v1.1c0,0-0.2,0-0.4,0
					c-1.1,0-1.9,0.9-2.3,2.1c-0.2,0.5-0.2,1.1-0.2,1.6v3.4h-1.1V95.6z"/>
				<path class="st2" d="M85.6,105.7c0,0,0.4,0.4,0.9,0.4c0.7,0,1.2-0.6,1.5-1.3l0.5-1.1l-3.3-8h1.2l2.3,5.9
					c0.2,0.4,0.3,0.8,0.3,0.8h0c0,0,0.1-0.4,0.3-0.8l2.2-5.9h1.1l-3.8,9.7c-0.4,1-1.2,1.7-2.2,1.7c-0.8,0-1.4-0.5-1.4-0.5
					L85.6,105.7z"/>
				<path class="st2" d="M101.8,95.4c1.9,0,2.9,1.2,2.9,1.2l-0.5,0.8c0,0-0.9-1-2.3-1c-1.7,0-3,1.3-3,3.2c0,1.9,1.3,3.2,3.1,3.2
					c1.6,0,2.5-1.1,2.5-1.1l0.5,0.8c0,0-1.1,1.3-3,1.3c-2.3,0-4.1-1.7-4.1-4.2C97.7,97.2,99.5,95.4,101.8,95.4z"/>
				<path class="st2" d="M106.8,92.4h1.1v4.4c0,0.4,0,0.7,0,0.7h0c0.3-0.8,1.3-2,3.1-2c1.9,0,2.6,1.1,2.6,3.1v5.1h-1.1v-4.8
					c0-1.3-0.2-2.4-1.7-2.4c-1.3,0-2.5,0.9-2.8,2.3c-0.1,0.3-0.1,0.7-0.1,1.1v3.9h-1.1V92.4z"/>
				<path class="st2" d="M115.9,92.4h1.1v1.4h-1.1V92.4z M116,95.6h1.1v8H116V95.6z"/>
				<path class="st2" d="M119.5,92.4h1.1v9.1c0,1.1,0.5,1.2,0.9,1.2c0.1,0,0.3,0,0.3,0v1c0,0-0.2,0-0.4,0c-0.7,0-1.8-0.2-1.8-2V92.4
					z"/>
				<path class="st2" d="M126.4,95.4c1.9,0,2.5,1.5,2.5,1.5h0c0,0,0-0.3,0-0.6v-3.9h1.1v11.2h-1v-0.8c0-0.4,0-0.6,0-0.6h0
					c0,0-0.6,1.6-2.7,1.6c-2.1,0-3.4-1.7-3.4-4.2C122.9,97.1,124.3,95.4,126.4,95.4z M126.4,102.9c1.3,0,2.5-1,2.5-3.2
					c0-1.6-0.8-3.2-2.5-3.2c-1.4,0-2.5,1.2-2.5,3.2C124,101.6,125,102.9,126.4,102.9z"/>
				<path class="st2" d="M136.7,92.4h1.1v1.4h-1.1V92.4z M136.7,95.6h1.1v8h-1.1V95.6z"/>
				<path class="st2" d="M140.2,101.9c0,0,0.9,1,2.3,1c0.8,0,1.6-0.4,1.6-1.3c0-1.8-4.2-1.3-4.2-4c0-1.4,1.3-2.2,2.7-2.2
					c1.6,0,2.4,0.9,2.4,0.9l-0.5,0.8c0,0-0.7-0.7-2-0.7c-0.8,0-1.5,0.4-1.5,1.2c0,1.8,4.2,1.3,4.2,4c0,1.3-1.1,2.3-2.7,2.3
					c-1.9,0-2.9-1.2-2.9-1.2L140.2,101.9z"/>
				<path class="st2" d="M150.3,95.6h1.1l1.9,6c0.1,0.4,0.2,0.9,0.2,0.9h0c0,0,0.1-0.5,0.2-0.9l1.9-6h1l1.9,6
					c0.1,0.4,0.2,0.9,0.2,0.9h0c0,0,0.1-0.5,0.2-0.9l1.9-6h1.1l-2.6,8h-1.1l-1.9-5.7c-0.1-0.4-0.2-0.9-0.2-0.9h0
					c0,0-0.1,0.5-0.2,0.9l-1.9,5.7H153L150.3,95.6z"/>
				<path class="st2" d="M167,95.4c2.2,0,3.3,1.7,3.3,3.7c0,0.2,0,0.6,0,0.6h-6c0,2.1,1.4,3.2,3,3.2c1.4,0,2.4-1,2.4-1l0.5,0.8
					c0,0-1.1,1.1-2.9,1.1c-2.3,0-4.1-1.7-4.1-4.2C163.2,97,164.9,95.4,167,95.4z M169.2,98.8c-0.1-1.7-1.1-2.5-2.2-2.5
					c-1.3,0-2.4,0.8-2.7,2.5H169.2z"/>
				<path class="st2" d="M172.2,92.4h1.1v9.1c0,1.1,0.5,1.2,0.9,1.2c0.1,0,0.3,0,0.3,0v1c0,0-0.2,0-0.4,0c-0.7,0-1.8-0.2-1.8-2V92.4
					z"/>
				<path class="st2" d="M176.1,92.4h1.1v9.1c0,1.1,0.5,1.2,0.9,1.2c0.1,0,0.3,0,0.3,0v1c0,0-0.2,0-0.4,0c-0.7,0-1.8-0.2-1.8-2V92.4
					z"/>
			</g>
		</g>
		<g>
			<path class="st2" d="M178.9,93.9c0,0,0.2,0.2,0.5,0.2c0.2,0,0.3-0.1,0.3-0.3c0-0.4-0.9-0.3-0.9-0.9c0-0.3,0.2-0.5,0.6-0.5
				c0.3,0,0.5,0.2,0.5,0.2l-0.1,0.2c0,0-0.2-0.2-0.4-0.2c-0.2,0-0.3,0.1-0.3,0.3c0,0.4,0.9,0.3,0.9,0.9c0,0.3-0.2,0.5-0.6,0.5
				c-0.4,0-0.6-0.2-0.6-0.2L178.9,93.9z"/>
			<path class="st2" d="M180.4,92.4h0.3l0.4,1c0,0.1,0.1,0.3,0.1,0.3h0c0,0,0-0.1,0.1-0.3l0.4-1h0.3l0.1,1.9h-0.3l-0.1-1.2
				c0-0.1,0-0.3,0-0.3h0c0,0-0.1,0.2-0.1,0.3l-0.4,0.9h-0.2l-0.4-0.9c0-0.1-0.1-0.3-0.1-0.3h0c0,0,0,0.2,0,0.3l-0.1,1.2h-0.3
				L180.4,92.4z"/>
		</g>
	</g>
	<g>
		<path class="st0" d="M81.7,17.7h6.7c3.4,0,5.8,1.7,5.8,4.8c0,1.7-0.8,3.3-2.3,4v0.1c2.1,0.6,3,2.5,3,4.4c0,3.8-3,5.4-6.5,5.4h-6.8
			V17.7z M88.4,25.3c1.5,0,2.3-1.1,2.3-2.4s-0.8-2.3-2.4-2.3h-3.3v4.7H88.4z M88.7,33.5c1.7,0,2.7-1.1,2.7-2.7c0-1.6-1-2.7-2.7-2.7
			h-3.7v5.4H88.7z"/>
		<path class="st0" d="M103.9,22.6c4.1,0,7.4,2.9,7.4,7.1c0,4.2-3.3,7.1-7.4,7.1c-4.1,0-7.4-2.9-7.4-7.1
			C96.5,25.6,99.8,22.6,103.9,22.6z M103.9,33.9c2.2,0,4-1.7,4-4.2c0-2.5-1.8-4.2-4-4.2c-2.2,0-4,1.7-4,4.2
			C99.9,32.2,101.7,33.9,103.9,33.9z"/>
		<path class="st0" d="M113.9,32.4c0,0,1.5,1.5,3.7,1.5c1,0,1.8-0.4,1.8-1.2c0-2-6.6-1.7-6.6-6.1c0-2.5,2.2-4,5.2-4
			c3,0,4.5,1.5,4.5,1.5l-1.2,2.5c0,0-1.2-1.2-3.3-1.2c-0.9,0-1.7,0.4-1.7,1.2c0,1.9,6.6,1.7,6.6,6c0,2.2-2,4-5.2,4
			c-3.4,0-5.2-2-5.2-2L113.9,32.4z"/>
		<path class="st0" d="M125.8,25.8H124v-2.7h1.8v-3.9h3.3v3.9h3.1v2.7h-3.1v5.2c0,2.2,1.7,2.5,2.7,2.5c0.4,0,0.6-0.1,0.6-0.1v2.9
			c0,0-0.4,0.1-1,0.1c-1.9,0-5.6-0.6-5.6-5.1V25.8z"/>
		<path class="st0" d="M141,22.6c4.1,0,7.4,2.9,7.4,7.1c0,4.2-3.3,7.1-7.4,7.1c-4.1,0-7.4-2.9-7.4-7.1
			C133.6,25.6,136.9,22.6,141,22.6z M141,33.9c2.2,0,4-1.7,4-4.2c0-2.5-1.8-4.2-4-4.2c-2.2,0-4,1.7-4,4.2
			C137,32.2,138.8,33.9,141,33.9z"/>
		<path class="st0" d="M150.4,23h3.2v1.6c0,0.5-0.1,0.9-0.1,0.9h0.1c0.6-1.1,2.1-2.8,4.8-2.8c3,0,4.7,1.6,4.7,5.1v8.7h-3.3v-8
			c0-1.6-0.4-2.8-2.1-2.8c-1.8,0-3.1,1.1-3.6,2.8c-0.2,0.6-0.2,1.2-0.2,1.8v6.2h-3.4V23z"/>
		<path class="st0" d="M89.7,40.5c4.6,0,6.9,2.6,6.9,2.6L95,45.6c0,0-2.1-2-5.1-2c-4,0-6.3,3-6.3,6.5c0,3.6,2.4,6.7,6.3,6.7
			c3.3,0,5.5-2.4,5.5-2.4l1.8,2.5c0,0-2.6,3-7.4,3c-5.7,0-9.7-4.3-9.7-9.8C80,44.7,84.1,40.5,89.7,40.5z"/>
		<path class="st0" d="M99.5,40.8h3.4v6.5c0,0.7-0.1,1.1-0.1,1.1h0.1c0.7-1.3,2.3-2.7,4.7-2.7c3,0,4.7,1.6,4.7,5.1v8.7h-3.3v-8
			c0-1.6-0.4-2.8-2.1-2.8c-1.8,0-3.1,1.2-3.7,2.8c-0.2,0.5-0.2,1.1-0.2,1.7v6.2h-3.4V40.8z"/>
		<path class="st0" d="M134.1,45.8c3,0,3.9,1.7,3.9,1.7h0.1c0,0,0-0.3,0-0.8v-5.9h3.4v18.8h-3.2v-1.1c0-0.5,0.1-0.9,0.1-0.9h-0.1
			c0,0-1.1,2.3-4.2,2.3c-3.7,0-6-2.9-6-7.1C128,48.5,130.5,45.8,134.1,45.8z M134.7,57.1c1.7,0,3.4-1.3,3.4-4.3
			c0-2.1-1.1-4.2-3.4-4.2c-1.9,0-3.4,1.5-3.4,4.2C131.4,55.4,132.7,57.1,134.7,57.1z"/>
		<path class="st0" d="M144.5,46.1h3.2v2.3c0,0.5-0.1,1-0.1,1h0.1c0.6-1.9,2.2-3.5,4.3-3.5c0.3,0,0.6,0.1,0.6,0.1v3.3
			c0,0-0.3-0.1-0.8-0.1c-1.4,0-3,0.8-3.7,2.8c-0.2,0.7-0.3,1.4-0.3,2.2v5.3h-3.4V46.1z"/>
		<path class="st0" d="M160.3,45.8c3.9,0,6,2.8,6,6.4c0,0.4-0.1,1.3-0.1,1.3h-9.3c0.2,2.4,2,3.6,4,3.6c2.2,0,3.9-1.5,3.9-1.5
			l1.3,2.4c0,0-2.1,1.9-5.4,1.9c-4.5,0-7.2-3.2-7.2-7.1C153.4,48.7,156.2,45.8,160.3,45.8z M162.8,51.2c-0.1-1.8-1.2-2.8-2.7-2.8
			c-1.7,0-2.9,1.1-3.2,2.8H162.8z"/>
		<path class="st0" d="M168.7,46.1h3.2v1.6c0,0.5-0.1,0.9-0.1,0.9h0.1c0.6-1.1,2.1-2.8,4.8-2.8c3,0,4.7,1.6,4.7,5.1v8.7h-3.3v-8
			c0-1.6-0.4-2.8-2.1-2.8c-1.8,0-3.1,1.1-3.6,2.8c-0.2,0.6-0.2,1.2-0.2,1.8v6.2h-3.4V46.1z"/>
		<path class="st0" d="M185.6,55.6c0,0,1.5,1.5,3.7,1.5c1,0,1.8-0.4,1.8-1.2c0-2-6.6-1.7-6.6-6.1c0-2.5,2.2-4,5.2-4
			c3,0,4.5,1.5,4.5,1.5l-1.2,2.5c0,0-1.2-1.2-3.3-1.2c-0.9,0-1.7,0.4-1.7,1.2c0,1.9,6.6,1.7,6.6,6c0,2.2-2,4-5.2,4
			c-3.4,0-5.2-2-5.2-2L185.6,55.6z"/>
		<path class="st0" d="M81.7,63.9h3.4v8h8.6v-8h3.4v18.8h-3.4v-7.9h-8.6v7.9h-3.4V63.9z"/>
		<path class="st0" d="M106.9,68.9c4.1,0,7.4,2.9,7.4,7.1c0,4.2-3.3,7.1-7.4,7.1c-4.1,0-7.4-2.9-7.4-7.1
			C99.5,71.8,102.8,68.9,106.9,68.9z M107,80.2c2.2,0,4-1.7,4-4.2c0-2.5-1.8-4.2-4-4.2c-2.2,0-4,1.7-4,4.2
			C102.9,78.5,104.8,80.2,107,80.2z"/>
		<path class="st0" d="M116.9,78.7c0,0,1.5,1.5,3.7,1.5c1,0,1.8-0.4,1.8-1.2c0-2-6.6-1.7-6.6-6.1c0-2.5,2.2-4,5.2-4
			c3,0,4.5,1.5,4.5,1.5l-1.2,2.5c0,0-1.2-1.2-3.3-1.2c-0.9,0-1.7,0.4-1.7,1.2c0,1.9,6.6,1.7,6.6,6c0,2.2-2,4-5.2,4
			c-3.4,0-5.2-2-5.2-2L116.9,78.7z"/>
		<path class="st0" d="M127.9,69.2h3.1v1c0,0.5-0.1,0.9-0.1,0.9h0.1c0,0,1.2-2.2,4.3-2.2c3.7,0,6,2.9,6,7.1c0,4.3-2.6,7.1-6.2,7.1
			c-2.7,0-3.9-1.9-3.9-1.9h-0.1c0,0,0.1,0.5,0.1,1.2V88h-3.4V69.2z M134.5,80.2c1.9,0,3.4-1.5,3.4-4.2c0-2.6-1.4-4.2-3.4-4.2
			c-1.7,0-3.4,1.3-3.4,4.3C131.2,78.1,132.3,80.2,134.5,80.2z"/>
		<path class="st0" d="M150.9,72.1h-1.7v-2.7h1.8v-3.9h3.3v3.9h3.1v2.7h-3.1v5.2c0,2.2,1.7,2.5,2.7,2.5c0.4,0,0.6-0.1,0.6-0.1v2.9
			c0,0-0.4,0.1-1,0.1c-1.9,0-5.6-0.6-5.6-5.1V72.1z"/>
		<path class="st0" d="M167.2,74.2h0.4v-0.2c0-1.8-1.1-2.4-2.6-2.4c-1.9,0-3.7,1.3-3.7,1.3l-1.3-2.4c0,0,2.1-1.7,5.3-1.7
			c3.5,0,5.6,2,5.6,5.4v8.4h-3.1v-1.1c0-0.5,0.1-1,0.1-1h-0.1c0,0-1,2.4-4.1,2.4c-2.4,0-4.6-1.5-4.6-4.2
			C159.2,74.5,165,74.2,167.2,74.2z M164.6,80.4c1.8,0,3-1.9,3-3.5v-0.3h-0.6c-1.7,0-4.5,0.2-4.5,2.1
			C162.6,79.6,163.2,80.4,164.6,80.4z"/>
		<path class="st0" d="M122.3,59.6V40.8h3.3v18.8H122.3z"/>
		<path class="st0" d="M173.8,82.7V63.9h3.3v18.8H173.8z"/>
		<path class="st0" d="M185.8,42.5c0,1-0.8,1.7-1.7,1.7c-1,0-1.7-0.8-1.7-1.7c0-1,0.8-1.7,1.7-1.7C185,40.8,185.8,41.6,185.8,42.5z"
			/>
		<path class="st0" d="M182.9,45.9l-0.3-1.1c2.5-0.7,2.1-2.4,2.1-2.4l1.1-0.3C185.7,42.1,186.4,44.9,182.9,45.9z"/>
		<g>
			<path class="st0" d="M115.4,46.1h3.4v13.5h-3.4V46.1z"/>
			<path class="st0" d="M119,42.5c0,1-0.8,1.9-1.9,1.9c-1,0-1.9-0.8-1.9-1.9c0-1,0.8-1.9,1.9-1.9C118.1,40.6,119,41.5,119,42.5z"/>
		</g>
		<g>
			<path class="st0" d="M143.5,69.2h3.4v13.5h-3.4V69.2z"/>
			<path class="st0" d="M147.1,65.6c0,1-0.8,1.9-1.9,1.9c-1,0-1.9-0.8-1.9-1.9c0-1,0.8-1.9,1.9-1.9
				C146.3,63.7,147.1,64.6,147.1,65.6z"/>
		</g>
	</g>
</g>
</svg>
