<?xml version="1.0" encoding="utf-8"?>
<!-- Generator: Adobe Illustrator 23.0.4, SVG Export Plug-In . SVG Version: 6.00 Build 0)  -->
<svg version="1.1" id="Layer_1" xmlns="http://www.w3.org/2000/svg" xmlns:xlink="http://www.w3.org/1999/xlink" x="0px" y="0px"
	 viewBox="0 0 386.4 72.8" style="enable-background:new 0 0 386.4 72.8;" xml:space="preserve">
<style type="text/css">
	.st0{fill:#FFFFFF;}
</style>
<title>BCHlogomotto_inline_blue-4C</title>
<path class="st0" d="M30.5,66.6c-13,0-23.7-13.6-23.7-30.2S17.5,6.2,30.5,6.2s23.7,13.5,23.7,30.2S43.6,66.6,30.5,66.6z M30.5,7.6
	C18.2,7.6,8.2,20.5,8.2,36.4s10,28.8,22.3,28.8s22.3-12.9,22.3-28.8S42.8,7.6,30.5,7.6L30.5,7.6z"/>
<path class="st0" d="M37.5,15.8v0.1c-0.6,0.2-1.2,0.4-1.8,0.6c-0.2,0-0.4,0-0.4,0.2v0.1c0.8,0.6,1.7,1.2,2.7,1.7c0-0.7,0-1.5,0-2.3
	l0.1-0.1c1.9,1,3.7,2.2,5.6,3.3v0.2c-1,0.3-1.9,0.7-2.8,1.2c-1.9-1-3.7-2.2-5.4-3.4c-1.3-1-2.8-2-4-3.2c0-0.2,0.1-0.3,0.2-0.4
	c0-0.9,0.2-1.8,0.2-2.8l0.3,0.2L37.5,15.8z"/>
<path class="st0" d="M38.7,14.1c1.6,1.4,3.1,2.9,4.5,4.5c-2.9-1.3-5.6-3.1-7.9-5.3c-0.9-0.8-1.8-1.5-2.7-2.3h0.2L38.7,14.1z"/>
<path class="st0" d="M31,15c2.8,2.3,5.7,4.4,8.8,6.3c0.2,0.1,0.2,0.3,0.1,0.5l0,0c-0.2,0.2-0.5-0.1-0.7-0.1c-3-1.8-5.8-3.8-8.5-5.9
	c-0.1-0.2-0.2-0.4-0.1-0.6C30.7,15,30.8,15,31,15z"/>
<path class="st0" d="M45.6,36.6c-0.1-2.4-2.6-3.2-3.9-4.7c-0.4-0.3-0.7,0.2-1,0.1C40,31.6,41,31.6,41,31.2c-0.5-0.7-0.5-1.7-1-2.4
	c-0.4-0.2-0.6,0.2-0.9,0c-0.2-1.1-0.6-2.3-1.1-3.3c-1.2-0.8-1.3,1.3-2.4,1.2c0-0.1,0-0.1,0-0.2c0-0.1,0.3-0.2,0.4-0.3
	c0.3-0.2,0.3-0.7,0.3-1c-0.2-0.4-0.6-0.4-1-0.4c-0.2,0-0.3-0.3-0.2-0.5c0.3-0.4,0.9,0,1.4,0c0.6-0.4,1.2-0.2,1.7-0.4
	c0.4-0.2,0.6-0.6,0.5-1c0.2,0,0.4,0.1,0.5-0.1c0-0.3,0-0.6-0.2-0.8c-1.9-1-3.3-2.7-5.4-3.3c-0.3-0.2-1,0.1-0.9-0.5
	c-0.2-0.6-1-0.6-1.5-0.8c0-0.1,0-0.1,0-0.1c-0.1-0.2,0-0.3,0.1-0.4c0-0.1,0-0.2-0.1-0.3c-0.7-0.1-1-0.9-1.3-1.5
	C29.5,14.8,29,14.7,28,15c-1.1,0-1.2,1.4-1.8,2c-0.2,0.4-0.7,0.7-0.7,1.3c0.3,0.8,1.4,0.9,2.2,1.1c0.3,0,0.8,0,0.9-0.2
	c0.1-0.2-0.1-0.2-0.2-0.2c-0.3-0.2-0.4-0.4-0.3-0.7c0.2-0.2,0.4-0.3,0.7-0.3c0.5,0.3,0.9-0.1,1.3-0.1c0.4,0,0.6,0.5,0.7,0.9
	c-0.5-0.2-1.1-0.2-1.6-0.2c-0.2,0.3,0,0.6,0.1,0.8l1.2-0.2c0.2-0.1,0.4,0.1,0.5,0.3c1.1,0.2,2.4,0.2,3.2,0.9c0,0.3,0.5,0.6,0.2,0.9
	c-1.1-0.9-2.7-1.3-4.1-0.9c-0.3-0.2,0-0.5-0.2-0.7c-0.9,0.2-1.8,0.5-2.6,0.9l-0.1-0.1c0.1-0.2,0-0.3,0.1-0.4
	c-0.2-0.2-0.5-0.3-0.7-0.3c-0.4,0.7,0.3,1.3,0.2,2c0.3,0.7,0.8-0.1,1.1-0.1c0.3,0,0.8-0.3,1,0.1c-0.5,0.1-0.9,0.3-1.3,0.6
	c-0.1,0.2,0.1,0.3,0.1,0.4c0.4,0.5,1.2,0.2,1.7,0.5c0,0.1-0.1,0.2-0.2,0.3c-0.6,0-1,0.6-1.3,1c-0.3-0.1-0.3-0.4-0.3-0.7
	c0-0.3-0.3-0.3-0.5-0.3c-0.2,0.7-0.4,1.3-0.5,2c0.1,0.4,0.6,0.2,0.9,0.3c0.4,0.1,0.1,0.6,0.3,0.9c0.4,0.1,0.9,0.1,1.3,0
	c0,0.1,0,0.2,0,0.3c-0.2,0.2-0.4,0.4-0.7,0.4c-0.1,0.1-0.3,0.3-0.2,0.5c0.8,0.4,0,1.4,0.7,1.8c0.7,0.3,1.6,0.3,2.4-0.1
	c0.5-0.1,0.8-0.6,1.3-0.4c0.1,0.1,0.2,0,0.2,0.2c1.1,0,2.2-0.1,3.2-0.3c0.4,0.1,0.8-0.2,1,0.1c0,0.1,0.1,0.2,0,0.2
	c-1.4,0.4-3,0.6-4.5,0.7c-0.9,0.2-0.5,1.2-0.6,2c-0.5,0.2-0.4-0.6-0.7-0.8c-1.4,0.2-2.7,0.5-4,0.9c-0.7,0.6-1.3,1.4-1.4,2.3
	c0,0.5-0.2,1.2,0.3,1.4c1.1,0.3,2.8,0.6,3.7-0.2c0.8-0.3,1.5-1,2.4-0.7c0.5-0.8,1.2-1.4,2-1.9c0.3-0.1,0.3-0.6,0.7-0.5
	c0.4,0.1,0.2,0.5,0.3,0.7c0.8,0.1,1.5-0.2,2.3-0.1c0.5,0.2,0.5,0.6,0.7,1c0,0.2,0,0.3-0.1,0.5c0.3,0.5-0.3,0.8-0.1,1.4
	c-0.9,1.5-2.3,2.6-4,3c-0.4,0.2-0.1,0.7-0.4,1c-1.9,1.2-4.9,1.8-5.5,4.5c-0.3,1.4,0.9,2,1.7,2.5c1.1,0.2,1.6,1.6,2.9,1.3
	c0.5-1.4,0.6-2.9,1.2-4.3c1.5-2.8,3.6-5.4,6-7.5c0.8-0.6,1.6-1.4,2.8-1.4c0.2,0,0.1,0.2,0.1,0.2c-1,0.4-2,0.9-2.7,1.7
	c-0.7,0.6-1.3,1.4-1.8,2.2c-1.5,1.8-2.7,3.7-3.7,5.8c0,0.7-0.1,1.3,0,2c0.2,0,0.2-0.3,0.4-0.4c0.9-2,1.9-3.9,3-5.7
	c0.7-0.9,1.2-2.1,2.2-2.5h0.1c-1.3,1.7-2.3,3.5-3.2,5.4c-0.8,1.5-1.4,3.1-1.6,4.7c0.1,0.4,0.7,0.3,1,0.6c0.3,0.2,0.4,0.5,0.3,0.8
	c-0.1,0.2-0.3,0.4-0.5,0.4c-0.5-0.1-0.4-0.6-0.7-0.9c-0.1,0-0.3-0.2-0.4,0c0,0.7,0.6,1.3,0.1,1.9c-0.5,0.3-0.4-0.5-0.7-0.7
	c-0.2-0.1-0.5-0.1-0.7,0c-1.7,1.5-3.8,2.4-6.1,2.6c-0.7,0.3-2.3-0.1-2.2,1c0.1,1.1-0.1,2.4,0.8,3.1c2.2,0.3,4.5,0.1,6.7-0.4
	c1.6-0.3,3.1-0.9,4.5-1.7c2.3-1.7,3.4-4.5,4.8-6.9C44.9,45.2,46.5,41,45.6,36.6z M34.9,22.1c0.9,0.5,1.9,0.7,2.8,0.5
	c0.3,0,0.4,0.1,0.4,0.3c0,0.2-0.1,0.3-0.3,0.4c-1.2,0.2-2-0.5-3-1L34.9,22.1z M32.9,22.2c-0.8-0.2-1.5-0.6-2-1.2
	c0-0.1,0-0.3,0.1-0.4c0.8,0.9,2,1.3,3.1,1.3c0.1,0.1,0.3,0.2,0.2,0.3c-0.1,0.1-0.4,0-0.6,0.2c0.4,0.9,1.5,1.2,2.4,1.4
	C36.2,24,36,24,35.9,24C34.7,24,33.5,23.3,32.9,22.2z"/>
<path class="st0" d="M41.7,22.6c0,1.2,0,2.5-1.1,3.3c-0.6,0.2-1.4,0.1-1.9-0.3v-0.2c0.4,0.1,1,0.3,1.4-0.1c0-0.2,0-0.3-0.2-0.3
	c-0.5,0.2-1-0.1-1.4-0.2c0-0.1-0.1-0.2,0-0.3c0.3-0.1,0.7-0.1,0.8-0.5C39,23.3,40,23.3,40,22.6c0.2-0.3,0.7-0.5,1-0.4
	C41.3,22.2,41.6,22.4,41.7,22.6z"/>
<path class="st0" d="M26.3,29.1c-0.3-0.2-0.5,0.2-0.7,0c0-0.4,0.3-0.8,0.7-1c0.2-0.5,0.1-1.1-0.3-1.5c0-0.1,0.2-0.2,0.3-0.2
	c0.3-0.7,0.2-1.6-0.4-2.2c-0.3-0.1-0.7-0.4-1-0.3v-0.1c-0.3-0.1-0.7-0.1-1,0c-0.5-0.5-1.2-0.4-1.8-0.4c-1-0.1-2,0.2-2.8,0.9
	c-2,0.9-1.2,3.4-2.3,4.8c-0.3,0.9-0.1,1.9,0.5,2.7c0.7-0.1,1.1,0.5,1.7,0.3c1-0.5-0.4-1,0-1.7c0.6-0.1,0.4,0.7,0.8,0.8
	c0.4,0.1,0.5-0.3,0.8-0.4c0.5,0.3,0.2,0.9,0.5,1.3c0.8,0.9,2,1.5,3.3,1.5c0.9-0.1,1.3-0.7,1.8-1.5C26.7,31.2,27.1,29.9,26.3,29.1z
	 M19.3,28.4c-0.4-0.1-0.1-0.7-0.4-0.9c-0.6,0.3-0.2,1.2-0.7,1.6c-0.1,0-0.2-0.1-0.3-0.2c0.5-0.6,0.2-1.7,0.7-2.3
	c0.5-0.1,0.5,0.7,0.9,0.3C19.6,27.4,19.6,28,19.3,28.4z M24.8,26.6c0.4-0.4,0.3-1.1,0.6-1.5c0.1-0.1,0.3,0,0.4,0.2V26
	c-0.7-0.1-0.3,1.4-1.3,1l-0.2-0.3C24.4,26.4,24.7,26.7,24.8,26.6z M22.2,27.9c-0.1,0.3-0.1,0.8-0.4,0.9c-0.2-0.1-0.5-0.3-0.6,0.1
	L21.1,30c-0.1,0.1-0.3,0.1-0.4-0.1c-0.1-0.8,0-1.5,0.5-2.2c0.1,0.1,0.3,0.2,0.5,0c0.1-0.1,0.1-0.1,0.1-0.2c0.2-0.3,0.4-0.9,0.8-0.9
	c0.1,0.2,0.3,0.3,0.5,0.2c0.1,0,0.1,0,0.2,0l0.2,0.1c0,0.3-0.2,0.6-0.5,0.7C22.7,27.7,22.4,27.4,22.2,27.9z M23.5,28.5l-0.3,0.1
	c-0.1-0.2,0.2-0.2,0.2-0.3c0.5-0.1,1.1-0.2,1.3,0.4c0.1,0.3,0.1,0.6-0.2,0.7H23C22.9,28.9,23.9,29,23.5,28.5z M25.4,31.9
	c-0.1,0.2-0.3,0.3-0.5,0.2c-0.2-0.1-0.5-0.3-0.7-0.3v-0.2c0.4,0.3,0.7-0.3,1-0.2c0.1-0.1,0.3-0.2,0.4-0.1
	C25.7,31.4,25.4,31.7,25.4,31.9z M25.3,30.9c-0.2,0.1-0.2-0.2-0.3-0.3c0-0.3,0.4-0.1,0.7-0.1C25.9,30.8,25.5,30.8,25.3,30.9z"/>
<path class="st0" d="M22.1,34c0.4,0.4,1.6-0.1,1.5,0.8c0.7,0.4,1.3,0.8,2,1.2l2,1.7h0.3c0.2-0.2-0.4-0.5,0-0.7
	c1.5,0.3,2.8-0.8,4.2-1.3c0.3-0.1,0.7,0.1,0.8,0.4c0.4,1.1,0.6,2.2,0.6,3.4c-0.4,0.3-1,0.6-1.5,0.7c-0.6-0.4-1.2,0.2-1.7,0.4
	c-1.5,0.9-3.4,2-5.3,1c-1.7,1.1-2.9-0.9-4.5-1c-0.2,0.2-0.3,0.5-0.2,0.8c0.3,0.2,0.7,0.1,1,0.3c0.9,0.5,1.5,1.6,2.8,1.4h0.1v0.2
	c-0.5,0.3-1.3,0.9-1.5,1.5c0.1,0.2,0.4,0.2,0.5,0c1-0.5,1.8-1.4,2.9-1.5c0.5,0.5-0.5,0.9-0.2,1.5c0.6,0.5,0.9,1.4,0.7,2.2
	c-0.4,0.5-1.1,0.7-1.3,1.3c-0.1,0.3,0.1,0.5,0.3,0.6c0.9,0,1-1.8,2.3-1.2c1,0.4,2.2,0.3,3,1.2c0.3,0.6,0.6,1.2,0.9,1.9
	c-0.2,0.4-0.8,0.5-1.2,0.7c-1.9,0.8-4.1,1-6.1,1.7c-1.8,0.1-3.3-1.2-5-0.3c-1.1,0.1-2.1-0.2-3-0.8c-0.8-0.6-0.4-1.9-1.4-2.5
	c-1.4-3.7,0.2-7.4,0.8-10.9c0.8-1.5,0.4-3.7,2.1-4.7c0.7-0.4,1.3-0.9,1.7-1.5c0.8-0.1,0.9,0.9,1.7,1L22.1,34z"/>
<path class="st0" d="M37.8,34c-0.1,0.3,0.1,0.4,0.2,0.5c0,0.5-0.1,1-0.3,1.5c-0.7,1-1.9,1.6-3.1,1.8c-0.7-0.1-0.9-0.9-1.3-1.4
	c0-1,0.6-1.9,1.5-2.3c0.3-0.2,0.5,0.1,0.8,0c0.7,0,1.3-0.4,2-0.3L37.8,34z"/>
<path class="st0" d="M24.5,55.2c0.5,0.6,0.6,1.5,0.3,2.2c-1.2,0.5-2.4,0.8-3.7,0.9c-0.5,0.1-1.1-0.1-1.5-0.4
	c-0.1-0.5-0.9-0.4-0.9-1.1c-0.1-0.3-0.5-0.2-0.6-0.5c0.2-0.4-0.3-0.7-0.4-1c0-0.9,1.2-0.8,1.8-1c0.7-1,2-0.3,3-0.2
	C23.3,54.4,23.9,54.8,24.5,55.2z"/>
<path class="st0" d="M42.1,58.7c-0.4,0.4-0.8,0.8-1.3,1c-0.9-0.8-1.7-1.8-2.3-2.8c0-0.2,0-0.3,0.2-0.4
	C40.3,56.4,41.3,57.6,42.1,58.7z"/>
<path class="st0" d="M35.8,59.3c0.3,0.9,0.5,1.8,0.8,2.7c-0.4,0.4-1.1,0.4-1.7,0.7c-4.8,1.4-10.6,0.5-14.3-2.3
	c0.2-0.4,0.3-0.8,0.8-0.9c0.7,0.1,1.3,0.2,1.9,0.4c0.4,0.1,0.8,0.1,1.2,0c0.6,0,0.9-0.4,1.4-0.6c0.8-0.1,1.7-0.1,2.4-0.2
	c1.4,0.4,2.9,0.5,4.3,0.2c0.3-0.1,1.5-0.8,2.4-1C35.8,58.1,35.5,58.9,35.8,59.3z"/>
<path class="st0" d="M38.7,58.5c0.6,0.6,1.2,0.9,1.4,1.7c-0.2,0.2-0.4,0.4-0.7,0.5c-0.4-0.2-0.7-0.9-1.2-0.8
	c-0.2,0.5,0.4,0.8,0.3,1.3c-0.4,0.2-0.9,0.4-1.3,0.5c-0.5-0.8-0.8-1.7-0.9-2.5c0.1-1,1.4-0.2,1.9-0.7H38.7z"/>
<path class="st0" d="M64.8,44.2h1.4v9.4c0,2.2,1.8,4,4,4s4-1.8,4-4v-9.4h1.4v9.4c-0.1,3-2.6,5.3-5.6,5.1c-2.8-0.1-5-2.3-5.1-5.1
	L64.8,44.2z"/>
<path class="st0" d="M78.7,48.3H80v1.5c0,0.5,0,0.8,0,0.8l0,0c0.7-1.6,2.3-2.6,4-2.6c2.5,0,3.3,1.5,3.3,4v6.6H86v-6.2
	c0-1.6-0.2-3.1-2.2-3.1c-1.7,0-3.2,1.2-3.7,2.9c-0.1,0.5-0.2,0.9-0.2,1.4v5h-1.4V48.3H78.7z"/>
<path class="st0" d="M90.8,49.6h-1.3v-1.2h1.3v-3h1.3v3h2.5v1.2h-2.5v5.2c0,2.4,1.5,2.7,2.2,2.7c0.2,0,0.3,0,0.5,0v1.3
	c-0.2,0-0.4,0-0.6,0c-1.2,0-3.5-0.4-3.5-3.8L90.8,49.6L90.8,49.6z"/>
<path class="st0" d="M97.3,44.2h1.4V46h-1.4V44.2z M97.3,48.3h1.4v10.4h-1.3L97.3,48.3z"/>
<path class="st0" d="M101.9,44.2h1.4v11.7c0,1.4,0.6,1.6,1.1,1.6c0.1,0,0.2,0,0.3,0v1.3c-0.2,0-0.3,0-0.5,0c-0.8,0-2.3-0.3-2.3-2.5
	V44.2z"/>
<path class="st0" d="M116.5,48.1c2.8,0,4.2,2.2,4.2,4.8c0,0.2,0,0.7,0,0.7H113c-0.1,2.1,1.5,3.9,3.6,4.1c0.1,0,0.2,0,0.3,0
	c1.1,0,2.2-0.5,3.1-1.3l0.6,1.1c-1,0.9-2.3,1.4-3.7,1.4c-2.8,0.1-5.2-2.2-5.3-5c0-0.1,0-0.3,0-0.4C111.6,50.1,113.8,48.1,116.5,48.1
	z M119.3,52.4c-0.1-2.2-1.4-3.2-2.8-3.2c-1.8,0-3.3,1.4-3.5,3.2H119.3z"/>
<path class="st0" d="M121.9,48.3h1.4l2.8,7.6c0.2,0.5,0.3,1.2,0.3,1.2l0,0c0.1-0.4,0.2-0.8,0.4-1.2l2.8-7.6h1.4l-3.8,10.4h-1.5
	L121.9,48.3z"/>
<path class="st0" d="M137.2,48.1c2.8,0,4.2,2.2,4.2,4.8c0,0.2,0,0.7,0,0.7h-7.7c-0.1,2.1,1.5,3.9,3.6,4.1c0.1,0,0.2,0,0.3,0
	c1.1,0,2.2-0.5,3.1-1.3l0.6,1.1c-1,0.9-2.3,1.4-3.7,1.4c-2.8,0.1-5.2-2.2-5.3-5.1c0-0.1,0-0.2,0-0.4
	C132.3,50.1,134.5,48.1,137.2,48.1z M140,52.4c-0.1-2.2-1.4-3.2-2.9-3.2c-1.8,0-3.3,1.4-3.4,3.2H140z"/>
<path class="st0" d="M143.8,48.3h1.3v1.8c0,0.5,0,0.8,0,0.8l0,0c0.3-1.5,1.6-2.7,3.2-2.8c0.2,0,0.4,0,0.5,0.1v1.4
	c-0.2,0-0.3,0-0.5,0c-1.5,0.1-2.7,1.2-2.9,2.7c-0.2,0.6-0.3,1.3-0.3,2v4.4h-1.4L143.8,48.3z"/>
<path class="st0" d="M150.4,61.3c0.3,0.3,0.8,0.4,1.2,0.5c0.9,0,1.5-0.7,1.9-1.7l0.6-1.5L150,48.3h1.5l3,7.6
	c0.2,0.5,0.4,1.1,0.4,1.1l0,0c0.1-0.4,0.2-0.7,0.3-1.1l2.8-7.6h1.5l-4.9,12.5c-0.4,1.3-1.5,2.1-2.9,2.2c-0.6,0-1.2-0.2-1.8-0.6
	L150.4,61.3z"/>
<path class="st0" d="M171.3,48.1c1.4-0.1,2.7,0.5,3.7,1.5l-0.7,1c-0.8-0.8-1.8-1.2-2.9-1.3c-2.2,0-3.9,1.7-3.9,3.9
	c0,0.1,0,0.2,0,0.3c-0.1,2.2,1.6,4.1,3.8,4.2h0.1c1.2,0,2.4-0.5,3.2-1.5l0.6,1.1c-1,1.1-2.4,1.7-3.9,1.6c-3,0-5.4-2.4-5.4-5.4
	S168.3,48.1,171.3,48.1L171.3,48.1L171.3,48.1z"/>
<path class="st0" d="M177.7,44.2h1.3v5.6c0,0.5,0,0.8,0,0.8l0,0c0.7-1.6,2.3-2.6,4-2.6c2.5,0,3.4,1.5,3.4,4v6.6H185v-6.2
	c0-1.6-0.2-3.1-2.2-3.1c-1.7,0-3.2,1.2-3.6,3c-0.1,0.5-0.2,0.9-0.2,1.4v5h-1.4L177.7,44.2z"/>
<path class="st0" d="M189.5,44.2h1.4V46h-1.4V44.2z M189.5,48.3h1.4v10.4h-1.3L189.5,48.3z"/>
<path class="st0" d="M194,44.2h1.4v11.7c0,1.4,0.6,1.6,1.1,1.6c0.1,0,0.2,0,0.3,0v1.3c-0.2,0-0.3,0-0.5,0c-0.8,0-2.3-0.3-2.3-2.5
	V44.2z"/>
<path class="st0" d="M202.9,48.1c1.4,0,2.7,0.7,3.3,2l0,0c0-0.3,0-0.5,0-0.8v-5h1.4v14.4h-1.3v-1.1c0-0.2,0-0.5,0-0.7l0,0
	c-0.6,1.3-2,2.1-3.4,2.1c-2.7,0-4.4-2.2-4.4-5.4S200.3,48.1,202.9,48.1z M203,57.7c1.7,0,3.2-1.2,3.2-4.2c0-2.1-1-4.2-3.2-4.2
	c-1.8,0-3.2,1.5-3.2,4.2S201.1,57.7,203,57.7L203,57.7z"/>
<path class="st0" d="M216.1,44.2h1.4V46h-1.4V44.2z M216.1,48.3h1.4v10.4h-1.4V48.3z"/>
<path class="st0" d="M220.7,56.4c0.8,0.8,1.9,1.3,3,1.3s2-0.6,2-1.7c0-2.3-5.4-1.7-5.4-5.1c0-1.8,1.6-2.9,3.4-2.9
	c1.1-0.1,2.3,0.3,3.1,1.1l-0.6,1.1c-0.7-0.6-1.6-1-2.5-1c-1,0-2,0.5-2,1.6c0,2.3,5.4,1.7,5.4,5.1c0,1.7-1.4,2.9-3.4,2.9
	c-1.4,0-2.7-0.5-3.7-1.5L220.7,56.4z"/>
<path class="st0" d="M233.7,48.3h1.4l2.4,7.7c0.2,0.5,0.3,1.1,0.3,1.1l0,0c0,0,0.1-0.6,0.3-1.1l2.5-7.7h1.4l2.5,7.7
	c0.2,0.5,0.3,1.1,0.3,1.1l0,0c0,0,0.1-0.6,0.3-1.1l2.4-7.7h1.5l-3.4,10.4h-1.5l-2.4-7.4c-0.2-0.5-0.3-1.1-0.3-1.1l0,0
	c0,0-0.1,0.6-0.3,1.1l-2.4,7.4h-1.5L233.7,48.3z"/>
<path class="st0" d="M255.2,48.1c2.8,0,4.2,2.2,4.2,4.8c0,0.2,0,0.7,0,0.7h-7.7c-0.1,2.1,1.5,3.9,3.6,4.1c0.1,0,0.2,0,0.3,0
	c1.1,0,2.2-0.5,3-1.3l0.6,1.1c-1,0.9-2.3,1.4-3.7,1.4c-2.8,0.1-5.2-2.2-5.3-5c0-0.1,0-0.3,0-0.4C250.3,50.1,252.5,48.1,255.2,48.1z
	 M258,52.4c-0.1-2.2-1.4-3.2-2.9-3.2c-1.8,0-3.3,1.4-3.4,3.2H258z"/>
<path class="st0" d="M261.9,44.2h1.4v11.7c0,1.4,0.6,1.6,1.1,1.6c0.1,0,0.2,0,0.3,0v1.3c-0.2,0-0.3,0-0.5,0c-0.8,0-2.3-0.3-2.3-2.5
	V44.2z"/>
<path class="st0" d="M266.8,44.2h1.4v11.7c0,1.4,0.6,1.6,1.1,1.6c0.1,0,0.2,0,0.3,0v1.3c-0.2,0-0.3,0-0.5,0c-0.8,0-2.3-0.3-2.3-2.5
	V44.2z"/>
<path class="st0" d="M270.5,46.1c0.2,0.2,0.4,0.3,0.6,0.3s0.4-0.1,0.4-0.3l0,0c0-0.5-1.1-0.4-1.1-1.2c0-0.4,0.3-0.7,0.7-0.7l0,0
	c0.2,0,0.5,0.1,0.7,0.2l-0.1,0.3c-0.1-0.1-0.3-0.2-0.5-0.2s-0.4,0.1-0.4,0.3l0,0c0,0.5,1.1,0.4,1.1,1.2c0,0.4-0.3,0.7-0.7,0.7
	c0,0,0,0-0.1,0c-0.3,0-0.6-0.1-0.8-0.3L270.5,46.1z"/>
<path class="st0" d="M272.4,44.2h0.4l0.5,1.3c0,0.1,0.1,0.3,0.1,0.3l0,0c0,0,0.1-0.2,0.1-0.3l0.5-1.3h0.4l0.2,2.4h-0.3l-0.1-1.5
	c0-0.2,0-0.4,0-0.4l0,0c0,0-0.1,0.2-0.1,0.4l-0.5,1.1h-0.3l-0.5-1.1c0-0.1-0.1-0.4-0.1-0.4l0,0c0,0,0,0.2,0,0.4l-0.1,1.5h-0.3
	L272.4,44.2z"/>
<path class="st0" d="M87.6,21.2c4.2,0,7.6,3,7.6,7.2c0,4-3.3,7.2-7.3,7.2c-0.1,0-0.2,0-0.3,0c-4.2,0-7.6-3-7.6-7.2
	c0-4,3.3-7.2,7.3-7.2C87.4,21.2,87.5,21.2,87.6,21.2z M87.6,32.7c2.3,0,4.1-1.9,4.1-4.1c0-0.1,0-0.1,0-0.2c0.1-2.3-1.6-4.2-3.9-4.3
	c-2.3-0.1-4.2,1.6-4.3,3.9c0,0.1,0,0.3,0,0.4c-0.1,2.3,1.6,4.2,3.9,4.3C87.4,32.7,87.5,32.7,87.6,32.7L87.6,32.7z"/>
<path class="st0" d="M98.1,31.2c1,0.9,2.4,1.5,3.8,1.5c1,0,1.8-0.4,1.8-1.2c0-2.1-6.7-1.8-6.7-6.2c0-2.6,2.3-4.1,5.3-4.1
	c1.7-0.1,3.3,0.5,4.6,1.6l-1.3,2.5c-1-0.8-2.1-1.2-3.4-1.2c-0.9,0-1.8,0.4-1.8,1.2c0,2,6.7,1.7,6.7,6.1c0,2.3-2,4.1-5.3,4.1
	c-2,0-3.9-0.7-5.3-2L98.1,31.2z"/>
<path class="st0" d="M110.2,24.5h-1.8v-2.7h1.9v-4h3.3v4h3.1v2.7h-3.1v5.4c-0.1,1.3,0.9,2.5,2.3,2.6c0.2,0,0.3,0,0.5,0s0.4,0,0.6,0
	v3c-0.3,0.1-0.7,0.1-1.1,0.1c-1.9,0-5.7-0.6-5.7-5.2L110.2,24.5z"/>
<path class="st0" d="M126.1,21.2c4.2,0,7.6,3,7.6,7.2c0,4-3.2,7.2-7.2,7.2c-0.1,0-0.2,0-0.3,0c-4.2,0-7.6-3-7.6-7.2
	c0-4,3.3-7.2,7.3-7.2C125.9,21.2,126,21.2,126.1,21.2z M126.1,32.7c2.3,0,4.1-1.9,4.1-4.1c0-0.1,0-0.1,0-0.2c0-2.3-1.8-4.1-4.1-4.1
	c-2.3,0-4.1,1.8-4.1,4.1l0,0c-0.1,2.3,1.6,4.2,3.9,4.3C126,32.7,126,32.7,126.1,32.7L126.1,32.7z"/>
<path class="st0" d="M136.2,21.5h3.3v1.6c0,0.3,0,0.6-0.1,1h0.1c0.9-1.8,2.9-2.9,4.9-2.9c3.1,0,4.8,1.6,4.8,5.2v8.9h-3.4v-8.2
	c0-1.7-0.4-2.8-2.2-2.8c-1.7,0-3.2,1.1-3.7,2.8c-0.2,0.6-0.3,1.2-0.2,1.8v6.3h-3.4L136.2,21.5z"/>
<path class="st0" d="M167.6,15.8c2.6-0.1,5.2,0.9,7.1,2.6L173,21c-1.5-1.2-3.3-2-5.2-2c-3.5-0.1-6.3,2.6-6.4,6.1c0,0.2,0,0.4,0,0.5
	c0,3.6,2.5,6.9,6.5,6.9c2.1-0.1,4.1-1,5.6-2.5l1.8,2.5c-2,2-4.7,3.2-7.6,3.1c-5.3,0.2-9.8-4-9.9-9.4c0-0.2,0-0.4,0-0.6
	c-0.1-5.3,4.1-9.7,9.4-9.9C167.3,15.8,167.4,15.8,167.6,15.8z"/>
<path class="st0" d="M177.6,16.1h3.4v6.7c0,0.7-0.1,1.2-0.1,1.2h0.1c1-1.7,2.8-2.8,4.8-2.7c3.1,0,4.8,1.6,4.8,5.2v8.9h-3.4v-8.2
	c0-1.7-0.4-2.8-2.2-2.8s-3.3,1.2-3.7,2.9c-0.2,0.6-0.2,1.2-0.2,1.8v6.3h-3.4L177.6,16.1z"/>
<path class="st0" d="M212.9,21.2c3,0,4,1.8,4,1.8h0.1c0,0,0-0.4,0-0.8v-6h3.4v19.2h-3.2v-1.1c0-0.3,0-0.6,0.1-0.9h-0.1
	c-0.9,1.5-2.6,2.4-4.3,2.3c-3.7,0-6.1-3-6.1-7.2S209.2,21.2,212.9,21.2z M213.5,32.7c1.8,0,3.5-1.3,3.5-4.4c0-2.1-1.1-4.2-3.4-4.2
	c-1.9,0-3.5,1.5-3.5,4.3S211.5,32.7,213.5,32.7z"/>
<path class="st0" d="M223.2,21.5h3.3v2.4c0,0.5-0.1,1-0.1,1h0.1c0.5-2,2.3-3.4,4.4-3.5c0.2,0,0.4,0,0.6,0v3.4c-0.3,0-0.5-0.1-0.8,0
	c-1.8,0-3.3,1.2-3.8,2.9c-0.2,0.7-0.3,1.5-0.3,2.2v5.5h-3.4V21.5z"/>
<path class="st0" d="M239.6,21.2c4,0,6.1,2.9,6.1,6.5c0,0.4-0.1,1.3-0.1,1.3h-9.5c0.1,2.1,2,3.8,4.1,3.6c1.5-0.1,2.9-0.6,4-1.5
	l1.3,2.5c-1.6,1.3-3.5,2-5.5,2c-3.9,0.2-7.2-2.8-7.4-6.7c0-0.2,0-0.3,0-0.5C232.6,24.1,235.5,21.2,239.6,21.2z M242.2,26.7
	c0.1-1.5-1-2.7-2.4-2.9c-0.1,0-0.2,0-0.3,0c-1.7-0.1-3.1,1.2-3.3,2.9H242.2z"/>
<path class="st0" d="M248.2,21.5h3.3v1.6c0,0.3,0,0.6-0.1,1h0.1c0.9-1.8,2.8-2.9,4.9-2.9c3,0,4.8,1.6,4.8,5.2v8.9h-3.4v-8.2
	c0-1.7-0.4-2.8-2.2-2.8c-1.7,0-3.3,1.1-3.7,2.8c-0.2,0.6-0.3,1.2-0.2,1.8v6.3h-3.4L248.2,21.5z"/>
<path class="st0" d="M283.2,16.1h3.5v8.1h8.8v-8.1h3.5v19.2h-3.5v-8.1h-8.8v8.1h-3.5V16.1z"/>
<path class="st0" d="M309,21.2c4.2,0,7.6,3,7.6,7.2c0,4-3.3,7.2-7.3,7.2c-0.1,0-0.2,0-0.3,0c-4.2,0-7.6-3-7.6-7.2
	c0-4,3.3-7.2,7.3-7.2C308.8,21.2,308.9,21.2,309,21.2z M309,32.7c2.3,0,4.1-1.9,4.1-4.1c0-0.1,0-0.1,0-0.2c0-2.3-1.8-4.1-4.1-4.1
	s-4.1,1.8-4.1,4.1l0,0c-0.1,2.3,1.6,4.2,3.9,4.3C308.9,32.7,309,32.7,309,32.7L309,32.7z"/>
<path class="st0" d="M319.5,31.2c1,0.9,2.4,1.5,3.8,1.5c1,0,1.8-0.4,1.8-1.2c0-2.1-6.7-1.8-6.7-6.2c0-2.6,2.3-4.1,5.3-4.1
	c1.7-0.1,3.3,0.5,4.6,1.6l-1.3,2.5c-1-0.8-2.1-1.2-3.4-1.2c-0.9,0-1.8,0.4-1.8,1.2c0,2,6.7,1.7,6.7,6.1c0,2.3-2,4.1-5.3,4.1
	c-2,0-3.9-0.7-5.4-2L319.5,31.2z"/>
<path class="st0" d="M331.1,21.5h3.1v1c0,0.3,0,0.6,0,1l0,0c1-1.5,2.7-2.4,4.4-2.3c3.7,0,6.1,3,6.1,7.2s-2.7,7.2-6.3,7.2
	c-1.5,0-3-0.7-4-1.9l0,0c0,0,0,0.5,0,1.2v5.8H331L331.1,21.5L331.1,21.5z M337.9,32.7c1.9,0,3.5-1.5,3.5-4.3s-1.4-4.3-3.4-4.3
	c-1.8,0-3.5,1.3-3.5,4.4C334.4,30.6,335.6,32.7,337.9,32.7z"/>
<path class="st0" d="M354.9,24.4h-1.8v-2.7h1.9v-4h3.4v4h3.1v2.7h-3.1v5.4c-0.1,1.3,0.9,2.5,2.3,2.6c0.2,0,0.3,0,0.5,0s0.4,0,0.6,0
	v3c-0.4,0.1-0.7,0.1-1.1,0.1c-1.9,0-5.7-0.6-5.7-5.2L354.9,24.4z"/>
<path class="st0" d="M371.2,26.6h0.5v-0.2c0-1.8-1.1-2.4-2.6-2.4c-1.4,0.1-2.7,0.5-3.8,1.3l-1.2-2.5c1.6-1.1,3.5-1.7,5.4-1.7
	c3.6,0,5.7,2,5.7,5.5v8.6H372v-1.1c0-0.3,0-0.7,0-1l0,0c-0.8,1.6-2.4,2.5-4.2,2.4c-2.5,0-4.7-1.5-4.7-4.3
	C363.1,26.9,369,26.6,371.2,26.6z M368.6,32.9c1.8,0,3.1-2,3.1-3.6V29h-0.6c-1.8,0-4.6,0.2-4.6,2.2c0,1,0.9,1.8,1.9,1.8
	C368.5,33,368.5,32.9,368.6,32.9L368.6,32.9z"/>
<path class="st0" d="M265.6,31.2c1,0.9,2.4,1.5,3.8,1.5c1,0,1.8-0.4,1.8-1.2c0-2.1-6.7-1.8-6.7-6.2c0-2.6,2.3-4.1,5.3-4.1
	c1.7-0.1,3.3,0.5,4.6,1.6l-1.3,2.5c-1-0.8-2.2-1.2-3.4-1.2c-0.9,0-1.8,0.4-1.8,1.2c0,2,6.7,1.7,6.7,6.1c0,2.3-2,4.1-5.3,4.1
	c-2,0-3.9-0.7-5.4-2L265.6,31.2z"/>
<path class="st0" d="M200.8,35.3V16.1h3.4v19.2C204.2,35.3,200.8,35.3,200.8,35.3z"/>
<path class="st0" d="M378.2,35.3V16.1h3.4v19.2C381.6,35.3,378.2,35.3,378.2,35.3z"/>
<circle class="st0" cx="263.5" cy="17.9" r="1.8"/>
<path class="st0" d="M262.4,21.4l-0.4-1.1c2.3-0.7,2-2.2,2-2.4l1.1-0.3C265.1,17.6,265.9,20.3,262.4,21.4z"/>
<path class="st0" d="M64.8,16.1h6.9c3.5,0,5.9,1.8,5.9,5c0.1,1.7-0.8,3.3-2.3,4.1l0,0c1.9,0.6,3.2,2.5,3.1,4.5
	c0,3.8-3.1,5.6-6.6,5.6h-7V16.1z M71.7,23.9C73,24,74,23,74.1,21.7c0-0.1,0-0.2,0-0.3c0.1-1.2-0.8-2.3-2-2.4c-0.1,0-0.3,0-0.4,0
	h-3.3v4.8L71.7,23.9L71.7,23.9z M72.1,32.3c1.4,0.1,2.7-1,2.8-2.4c0-0.1,0-0.3,0-0.4c0.1-1.4-1-2.7-2.4-2.8c-0.1,0-0.2,0-0.3,0h-3.7
	v5.6H72.1z"/>
<path class="st0" d="M193.9,21.5h3.4v13.8h-3.4V21.5z"/>
<circle class="st0" cx="195.6" cy="17.9" r="1.9"/>
<path class="st0" d="M347.4,21.5h3.4v13.8h-3.4V21.5z"/>
<circle class="st0" cx="349.1" cy="17.9" r="1.9"/>
</svg>
