<?xml version="1.0" encoding="utf-8"?>
<!-- Generator: Adobe Illustrator 24.0.3, SVG Export Plug-In . SVG Version: 6.00 Build 0)  -->
<svg version="1.1" id="Layer_1" xmlns="http://www.w3.org/2000/svg" xmlns:xlink="http://www.w3.org/1999/xlink" x="0px" y="0px"
	 viewBox="0 0 290.7 75" style="enable-background:new 0 0 290.7 75;" xml:space="preserve">
<style type="text/css">
	.st0{fill:#C41230;}
	.st1{fill:#FFFFFF;}
	.st2{fill:none;stroke:#000000;stroke-width:1.0714;}
	.st3{fill:none;stroke:#000000;stroke-width:0.2189;}
	.st4{fill:none;stroke:#000000;stroke-width:0.2231;}
</style>
<g>
	<path d="M171.4,13.4c-0.6-1.3-1.5-2.3-3.1-2.7V10c1,0,4.2,0.1,5,0.1c0.7,0,3.6-0.1,4.6-0.1v0.8c-0.9,0.2-1.9,0.7-1.9,1.6
		c0,0.7,0.4,1.5,1.2,3.2l7.2,16.3l6.8-16.3c0.5-1.3,0.9-2.3,0.9-3.1c0-0.9-0.8-1.5-1.9-1.7V10c0.9,0,3.1,0.1,3.8,0.1
		c0.6,0,3.2-0.1,4.2-0.1v0.8c-1.7,0.5-2.7,1.4-3.7,3.6l-10,23.5h-2.1L171.4,13.4L171.4,13.4L171.4,13.4z"/>
	<path d="M74.8,36.9c1.3-0.3,2.2-0.9,2.2-2.4V13.1c0-1.4-0.9-2-2.2-2.4V9.9c0.7,0,3.6,0.1,4.3,0.1c0.8,0,3.9-0.1,4.6-0.1v0.8
		c-1.3,0.3-2.3,0.9-2.3,2.4v9h16v-9c0-1.5-0.8-2.1-2.2-2.4V9.9c0.7,0,3.7,0.1,4.6,0.1c0.7,0,3.7-0.1,4.4-0.1v0.8
		c-1.3,0.3-2.3,0.9-2.3,2.4v21.5c0,1.4,0.9,2,2.3,2.4v0.7c-0.7,0-3.7-0.1-4.4-0.1c-0.8,0-3.9,0.1-4.6,0.1V37
		c1.3-0.3,2.2-0.9,2.2-2.4V24.4h-16v10.2c0,1.5,0.9,2,2.3,2.4v0.7c-0.7,0-3.8-0.1-4.6-0.1c-0.7,0-3.7,0.1-4.3,0.1V36.9L74.8,36.9
		L74.8,36.9z M108.6,36.9c1.7-0.4,2.7-1.5,3.4-3.1l8.9-21.3c0.4-0.9,0.8-2.7,0.8-2.7h2.5c0,0,0.4,1.8,0.8,2.7l9.4,21.4
		c0.7,1.5,1.4,2.5,3.3,3v0.7c-1,0-4.2-0.1-4.9-0.1s-3.7,0.1-4.7,0.1v-0.7c1.4-0.3,1.8-1,1.8-1.7c0-0.6-0.2-1.2-0.5-1.9l-2-4.5H117
		l-1.8,4.6c-0.2,0.5-0.5,1.3-0.5,1.8c0,0.8,0.4,1.4,2,1.8v0.7c-0.9,0-3.3-0.1-3.9-0.1l-4,0.1L108.6,36.9L108.6,36.9L108.6,36.9z
		 M126.3,26.6l-4.4-10.3l-4.1,10.3L126.3,26.6L126.3,26.6z M108.6,36.9c1.7-0.4,2.7-1.5,3.4-3.1l8.9-21.3c0.4-0.9,0.8-2.7,0.8-2.7
		h2.5c0,0,0.4,1.8,0.8,2.7l9.4,21.4c0.7,1.5,1.4,2.5,3.3,3v0.7c-1,0-4.2-0.1-4.9-0.1s-3.7,0.1-4.7,0.1v-0.7c1.4-0.3,1.8-1,1.8-1.7
		c0-0.6-0.2-1.2-0.5-1.9l-2-4.5H117l-1.8,4.6c-0.2,0.5-0.5,1.3-0.5,1.8c0,0.8,0.4,1.4,2,1.8v0.7c-0.9,0-3.3-0.1-3.9-0.1l-4,0.1
		L108.6,36.9L108.6,36.9L108.6,36.9z M126.3,26.6l-4.4-10.3l-4.1,10.3L126.3,26.6L126.3,26.6z M196.5,36.9c1.7-0.4,2.7-1.5,3.3-3.1
		l8.9-21.3c0.4-0.9,0.8-2.7,0.8-2.7h2.5c0,0,0.4,1.8,0.8,2.7l9.4,21.4c0.7,1.5,1.4,2.5,3.3,3v0.7c-1,0-4.2-0.1-4.9-0.1
		s-3.7,0.1-4.7,0.1v-0.7c1.4-0.3,1.8-1,1.8-1.7c0-0.6-0.2-1.2-0.5-1.9l-2-4.5h-10.4l-1.8,4.6c-0.2,0.5-0.5,1.3-0.5,1.8
		c0,0.8,0.4,1.4,1.9,1.8v0.7c-0.9,0-3.3-0.1-3.8-0.1l-4.1,0.1V36.9L196.5,36.9L196.5,36.9z M214.1,26.6l-4.4-10.3l-4.1,10.3
		L214.1,26.6L214.1,26.6z M260.5,36.9c1.7-0.3,2.6-1,2.6-2.5V13.1c0-1.5-0.9-2.1-2.5-2.4V9.9c0.9,0,4,0.1,4.8,0.1
		c1.4,0,5.2-0.3,8.1-0.3c9.9,0,15.8,5.5,15.8,13.9c0,8.1-6.2,14.2-16.4,14.2c-2.9,0-6.5-0.2-7.8-0.2c-0.8,0-3.7,0.1-4.6,0.1V36.9
		L260.5,36.9L260.5,36.9z M267.6,35.5c1,0.2,2.9,0.3,4.3,0.3c8.3,0,12.6-5,12.6-11.9c0-7.2-4.5-12.3-12.3-12.3
		c-1.6,0-3.6,0.1-4.6,0.3V35.5L267.6,35.5L267.6,35.5z"/>
	<path d="M148.7,34.4c0,1.4,0.9,2.2,2.6,2.6v0.8c-0.9,0-3.9-0.1-4.8-0.1c-0.7,0-3.7,0.1-4.6,0.1V37c1.5-0.3,2.5-1.1,2.5-2.6V13.1
		c0-1.3-0.7-2.1-2.5-2.4V9.9c0.9,0,3.8,0.1,4.7,0.1c1.4,0,5.2-0.2,6.7-0.2c6.6,0,10.3,2.7,10.3,7.4c0,3.7-2.8,6.2-7,7.2
		c0,0,1,0.6,1.9,1.7c1.2,1.4,4.5,6,5.8,7.6s3,3.4,4.8,3.5v0.6c-0.9,0.2-2.2,0.3-3.3,0.3c-2.3,0-4.1-0.8-5.8-2.9
		c-1.5-1.8-4.2-5.7-5.8-7.7c-1-1.2-2.1-2.2-4.3-2.5c-0.4-0.1-0.8-0.1-1.3-0.2v9.6L148.7,34.4L148.7,34.4z M148.7,23.1
		c0.9,0.1,2.2,0.2,3.5,0.2c5.2,0,6.8-3,6.8-5.6c0-3.7-2.5-6.1-7-6.1c-0.9,0-2.3,0.1-3.2,0.3v11.2H148.7L148.7,23.1z"/>
	<path d="M236.1,34.4c0,1.4,0.9,2.2,2.6,2.6v0.8c-0.9,0-3.9-0.1-4.8-0.1c-0.7,0-3.7,0.1-4.6,0.1V37c1.5-0.3,2.5-1.1,2.5-2.6V13.1
		c0-1.3-0.7-2.1-2.4-2.4V9.9c0.9,0,3.8,0.1,4.7,0.1c1.4,0,5.2-0.2,6.7-0.2c6.6,0,10.3,2.7,10.3,7.4c0,3.7-2.8,6.2-7,7.2
		c0,0,1,0.6,1.9,1.7c1.2,1.4,4.4,6,5.7,7.6s3,3.4,4.8,3.5v0.6c-0.9,0.2-2.2,0.3-3.3,0.3c-2.3,0-4.1-0.8-5.8-2.9
		c-1.5-1.8-4.1-5.7-5.6-7.7c-1-1.2-2.1-2.2-4.3-2.5c-0.4-0.1-0.8-0.1-1.3-0.2L236.1,34.4L236.1,34.4L236.1,34.4z M236.1,23.1
		c0.9,0.1,2.2,0.2,3.5,0.2c5.2,0,6.8-3,6.8-5.6c0-3.7-2.5-6.1-7-6.1c-0.9,0-2.3,0.1-3.2,0.3v11.2H236.1L236.1,23.1z"/>
	<path d="M192.5,61.5h0.4c0.2,0.8,0.7,1.5,1.3,2c0.7,0.5,1.7,0.7,2.6,0.7c1.9,0,3.1-0.9,3.1-2.4s-1.5-2.2-3.3-3.1
		c-1.4-0.7-4.1-1.7-4.1-4.4c0-2.4,1.9-4,4.8-4c1.9,0,2.9,0.5,4.2,0.4v2.9H201c-0.5-1.7-2.1-2.3-3.8-2.3c-1.9,0-2.7,1.1-2.7,2.2
		c0,1.6,1.8,2.5,3.4,3.3c2,0.9,4.1,1.9,4.1,4.4c0,2.4-1.8,4-5.2,4c-2,0-3.2-0.5-4.3-0.7V61.5L192.5,61.5z"/>
	<path d="M222.7,64.5c0.7-0.2,1.1-0.5,1.1-1.2V52.2c0-0.7-0.4-1-1.1-1.2v-0.4c0.3,0,1.9,0.1,2.3,0.1c0.4,0,2-0.1,2.4-0.1V51
		c-0.7,0.2-1.2,0.5-1.2,1.2v4.6h8.2v-4.6c0-0.8-0.4-1.1-1.1-1.2v-0.4c0.4,0,1.9,0.1,2.4,0.1c0.4,0,1.9-0.1,2.3-0.1V51
		c-0.7,0.2-1.2,0.5-1.2,1.2v11.1c0,0.7,0.5,1,1.2,1.2v0.4c-0.3,0-1.9,0-2.3,0c-0.4,0-2,0-2.4,0v-0.4c0.7-0.2,1.1-0.5,1.1-1.2V58
		h-8.2v5.2c0,0.8,0.5,1,1.2,1.2v0.4c-0.3,0-2,0-2.4,0s-1.9,0-2.3,0V64.5L222.7,64.5z"/>
	<path d="M218.7,61.3l-0.2,3.2c-1.1-0.1-2.6,0.7-5.1,0.7c-5.3,0-7.7-3.2-7.7-7.4c0-4.4,3.1-7.5,7.6-7.5c2.2,0,3.6,0.8,5,0.7l0.1,3.2
		H218c-0.8-1.9-2.7-2.8-4.7-2.8c-3.3,0-5.1,2.9-5.1,6.4c0,2.9,1.4,6.4,5.4,6.4c2.2,0,3.9-0.8,4.6-2.9L218.7,61.3L218.7,61.3z"/>
	<path d="M241.5,57.8c0-4.1,2.9-7.5,7.4-7.5s7.4,3.4,7.4,7.5s-2.9,7.4-7.4,7.4C244.3,65.2,241.5,61.9,241.5,57.8L241.5,57.8z
		 M253.7,57.8c0-3.3-1.5-6.5-4.8-6.5c-3.4,0-4.9,3.1-4.9,6.5c0,3.3,1.5,6.4,4.9,6.4C252.2,64.2,253.7,61.1,253.7,57.8L253.7,57.8z"
		/>
	<path d="M259.5,57.8c0-4.1,2.9-7.5,7.4-7.5s7.4,3.4,7.4,7.5s-2.9,7.4-7.4,7.4C262.3,65.2,259.5,61.9,259.5,57.8L259.5,57.8z
		 M271.7,57.8c0-3.3-1.5-6.5-4.8-6.5c-3.4,0-4.9,3.1-4.9,6.5c0,3.3,1.5,6.4,4.9,6.4C270.2,64.2,271.7,61.1,271.7,57.8L271.7,57.8z"
		/>
	<path d="M97.2,50.6h9c0.3,0,0.8,0,1-0.2h0.4l-0.1,2.9h-0.4c-0.3-0.9-0.8-1.6-2.6-1.6h-3.8v5.2c0,0,2.9,0,3.1,0c0.4,0,1,0,1.2-0.1
		c0.7-0.1,1-0.5,1.1-1.1h0.4c0,0.4,0,1.4,0,1.7s0,1.3,0,1.8h-0.4c-0.2-0.6-0.5-1-1.1-1.2c-0.2-0.1-0.8-0.1-1.2-0.1
		c-0.2,0-3.1,0-3.1,0v5.8h4.3c1.8,0,2.4-0.8,2.8-1.9l0.4,0.1l-0.4,3c-1.4-0.1-2.2-0.1-3.7-0.1h-4.6c-0.4,0-2,0.1-2.5,0.1v-0.4
		c0.8-0.2,1.3-0.5,1.3-1.3v-11c0-0.7-0.4-1.1-1.3-1.3v-0.3C97,50.6,97.2,50.6,97.2,50.6z"/>
	<path d="M131.6,52.3c0-0.7-0.4-1.1-1.3-1.3v-0.4c0.5,0,2.1,0.1,2.5,0.1s2-0.1,2.5-0.1V51c-0.9,0.2-1.3,0.5-1.3,1.3v10.9
		c0,0.7,0.4,1.1,1.3,1.3v0.4c-0.5,0-2-0.1-2.5-0.1c-0.4,0-2,0.1-2.5,0.1v-0.4c0.9-0.2,1.3-0.5,1.3-1.3V52.3L131.6,52.3z"/>
	<path d="M153.7,64.5c0.9-0.2,1.4-0.8,1.7-1.6l4.6-11c0.2-0.5,0.4-1.4,0.4-1.4h1.3c0,0,0.2,0.9,0.4,1.4l4.8,11
		c0.3,0.8,0.7,1.3,1.7,1.6v0.4c-0.5,0-2.2,0-2.5,0c-0.4,0-1.9,0-2.4,0v-0.4c0.7-0.2,0.9-0.5,0.9-0.9c0-0.3-0.1-0.6-0.3-1l-1-2.3H158
		l-0.9,2.4c-0.1,0.3-0.2,0.7-0.2,0.9c0,0.4,0.2,0.7,1,0.9v0.4c-0.5,0-1.7,0-2,0h-2.1L153.7,64.5L153.7,64.5z M162.9,59.1l-2.3-5.3
		l-2.1,5.3H162.9L162.9,59.1z"/>
	<path d="M151.8,61.3l-0.2,3.2c-1.1-0.1-2.6,0.7-5.1,0.7c-5.3,0-7.7-3.2-7.7-7.4c0-4.4,3.1-7.5,7.6-7.5c2.2,0,3.6,0.8,5,0.7l0.1,3.2
		h-0.4c-0.8-1.9-2.7-2.8-4.7-2.8c-3.3,0-5.1,2.9-5.1,6.4c0,2.9,1.4,6.4,5.4,6.4c2.2,0,3.9-0.8,4.6-2.9L151.8,61.3L151.8,61.3z"/>
	<path d="M182.2,61.9c-0.5,1.1-1,1.9-2.8,1.9H175V52.3c0-0.8,0.4-1.1,1.3-1.3v-0.4c-0.5,0-2.1,0.1-2.5,0.1s-2-0.1-2.5-0.1V51
		c0.9,0.2,1.3,0.6,1.3,1.3v10.9c0,0.8-0.4,1.2-1.3,1.3v0.4c0.5,0,2.1-0.1,2.5-0.1l0,0l0,0h4.6c1.5,0,2.4,0,3.7,0.1l0.4-3H182.2
		L182.2,61.9z"/>
	<path d="M288.4,61.9c-0.5,1.1-1,1.9-2.8,1.9h-4.3V52.3c0-0.8,0.4-1.1,1.3-1.3v-0.4c-0.5,0-2.1,0.1-2.5,0.1s-2-0.1-2.5-0.1V51
		c0.9,0.2,1.3,0.6,1.3,1.3v10.9c0,0.8-0.4,1.2-1.3,1.3v0.4c0.5,0,2.1-0.1,2.5-0.1l0,0l0,0h4.6c1.5,0,2.4,0,3.7,0.1l0.4-3H288.4
		L288.4,61.9z"/>
	<path d="M112.2,64.5c0.9-0.2,1.3-0.5,1.3-1.3v-11c0-0.8-0.5-1.1-1.3-1.2v-0.4c0.5,0,2.1,0.1,2.5,0.1c0.7,0,2.6-0.2,4.1-0.2
		c5.1,0,8.2,2.8,8.2,7.2c0,4.2-3.2,7.3-8.4,7.3c-1.5,0-3.2-0.1-3.9-0.1c-0.4,0-1.9,0.1-2.4,0.1L112.2,64.5L112.2,64.5z M115.8,63.8
		c0.5,0.1,1.4,0.1,2.1,0.1c4.3,0,6.5-2.4,6.5-6.2c0-3.7-2.3-6.3-6.3-6.3c-0.8,0-1.7,0.1-2.3,0.2L115.8,63.8L115.8,63.8z"/>
	<path d="M91.9,62.9l-0.7-10.6c-0.1-0.7,0.3-1.1,1.1-1.3v-0.4c-0.6,0-1.5,0-1.9,0c-0.3,0-1,0-1.5,0l-4.7,11l-4.7-11
		c-0.5,0-1.2,0-1.6,0c-0.3,0-1.4,0-2,0V51c0.8,0.1,1.2,0.6,1.2,1.3l-0.8,10.6c-0.1,0.8-0.5,1.4-1.4,1.7V65h2c0.3,0,1.5,0,2,0v-0.4
		c-1-0.3-1.2-0.8-1.2-1.5l0.6-9.4L83.2,65H84l4.9-11.3l0.6,9.5c0,0.6-0.2,1.2-1.2,1.5v0.4c0.5,0,2.2,0,2.5,0h2.5v-0.4
		C92.4,64.3,92,63.8,91.9,62.9L91.9,62.9z"/>
	<path class="st0" d="M31.4,1.5H1.6L1.5,25.3c0,29.2,29.3,47.8,29.6,48l0.1,0.1c0.1,0,0.3-0.1,0.3-0.1c5-3.3,29.8-20.9,29.8-47.8
		V1.6C61.2,1.5,31.4,1.5,31.4,1.5L31.4,1.5L31.4,1.5z M61.1,22.6h-59v-3.4h59V22.6L61.1,22.6z"/>
	<path d="M11.6,4.4c2-0.8,4.2-0.2,6.4-0.4c0.6,0.1,1.4-0.3,1.8,0.3c0,0.6,0,1.2,0,1.9C20,6.7,20.7,6.4,21,6.6
		c0.2,0.1,0.4,0.2,0.5,0.5s0,0.6-0.1,0.9c-0.4,0.4-0.9,0.3-1.5,0.4l-0.2,0.2c0.1,1.2-0.2,2.2,0,3.3c0,0.2-0.1,0.6,0.2,0.7
		c0.6,0,1.1,0,1.5,0.4c0.2,0.3,0.2,0.6,0.1,1c-0.2,1.2-2.1-0.2-1.9,1.2c0,0.5,0.1,1.2-0.1,1.7c-2.2,0-4.4-0.2-6.4,0
		c-0.4,0.3-0.8,0.5-1.4,0.6c-0.4-0.1-0.8-0.3-1.1-0.6c-2-0.1-3.9-0.1-5.8-0.1c-0.6-0.5-0.2-1.4-0.4-2.1c-0.3-0.4-0.8-0.1-1.2-0.3
		c-0.3,0-0.4-0.3-0.5-0.5c0-0.4,0-0.8,0.3-1.1c0.3-0.2,0.8-0.2,1.2-0.2l0.2-0.2c-0.1-1.3,0.2-2.6-0.1-4c-0.2-0.3-0.6,0-0.8-0.2
		C3.2,8.1,2.8,7.9,2.7,7.5C2.6,7.2,2.6,6.9,2.9,6.6c0.4-0.5,1.2,0.1,1.6-0.4l0.2-1.9C5,3.7,5.7,4,6.3,4c1-0.2,2.2,0,3.2,0
		C10.3,4,11,4.2,11.6,4.4L11.6,4.4L11.6,4.4L11.6,4.4z"/>
	<path class="st1" d="M14.3,25.3l-0.1,0.4c0,0.2-0.2,0.4-0.4,0.3L13,25.9c-0.3-0.1-0.6-0.2-0.9-0.1c-0.1,0.1-0.3,0.2-0.5,0.4
		c0.1,0,0.1,0.1,0.1,0.1c0.2,0.1,0.6,0.2,0.7,0.7c0,0.4,0.2,0.7,0.4,0.9l0.1,0.2c0.1,0.1,0.1,0.2,0.1,0.3c0,0.1,0,0.1-0.1,0.2
		l-0.4,0.5l-0.2,0.2c0,0-0.2,0.5-0.3,0.7c0.1,0.2,0.2,0.3,0.3,0.3c0.4-0.1,0.7,0,1,0l0.6,0.1H14h0.2c0.2,0,0.6-0.1,0.9,0.1
		c0,0,0.3,0.5,0.3,0.6c0.1,0.2,0.1,0.3,0.1,0.5s0,0.4-0.1,0.6l-0.1,0.3c0,0.1,0,0.2-0.1,0.2c-0.5,0.8-1.2,1.4-2.1,1.8
		c0.1,0,0.1,0,0.1,0s0,0,0,0.1l0,0c0.1,0.1,0.4,0.1,0.7,0h0.2c0.4,0,0.7-0.1,1.1-0.3l1.1-0.3c0.2-0.1,0.3,0.1,0.4,0.2
		c0.2,0.4,0.5,0.7,0.7,0.9c0,0,0,0,0.2-0.2s0.6-0.5,1.1-0.3c0,0,0.1,0,0.1,0.1c0.4,0.3,0.5,0.7,0.6,1c0.1,0.2,0.1,0.5,0.3,0.6
		c0.1,0.1,0.1,0.2,0.1,0.2v0.1c0,0.4-0.4,0.6-0.5,0.6h-0.1l-0.1,0.1l-0.9,0.2c-0.3,0-0.6,0.1-0.8,0.2c0,0,0,0.1,0.1,0.1
		c0.4,0.2,1,0.3,1.6,0.4l0.3,0.1h0.7h1.2c0.2,0,0.2,0.1,0.3,0.2c0.1,0.1,0,0.3-0.1,0.4l-0.2,0.3l-0.1,0.1l-1.9,1.3
		c-0.1,0-1.1,0.4-1.1,0.4l-1.5,0.6h-0.1c-0.9,0.2-1.4-0.3-1.9-0.6c-0.3-0.3-0.6-0.5-1-0.5c-0.3,0-0.6,0.1-0.8,0.3
		c-0.1,0.1-0.1,0.2-0.1,0.4c0,0.1,0,0.1,0,0.2h0.1c0.2,0.1,0.6,0.2,0.6,0.7c0,0.7-0.3,1.2-0.6,1.7c-0.2,0.4-0.5,0.9-0.5,1.3v0.1
		c0,0.1,0,0.2,0.1,0.2h0.1h0.1l0.1-0.2c0.1-0.2,0.3-0.5,0.7-0.6h0.1c0.8,0.1,1.2,0,1.5-0.3c0.1-0.1,0.2-0.1,0.2-0.1
		c0.2,0,0.5,0,0.7,0.2c0.2,0.2,0.3,0.4,0.3,0.6c0,0,0,0.1,0,0.2c0.5-0.1,0.8-0.5,1.2-1.1l0.2-0.3c0.1-0.1,0.2-0.2,0.3-0.2l0.3-0.1
		c0.4-0.1,0.8-0.3,1.3,0c0.1,0.1,0.2,0.2,0.2,0.3s0,0.2,0,0.3c0,0.4-0.2,0.7-0.3,1c0,0-0.1,0.2-0.1,0.4c0.7-0.2,1.3-0.8,1.8-1.5
		l0.3-0.4c0.1-0.2,0.3-0.7,0.9-0.7h0.1c0.3,0.1,0.4,0,0.7-0.5l0.6-0.6c0.1-0.1,0.1-0.1,0.3-0.1h0.2c0.1,0,0.2,0,0.3,0.1
		c0.1,0.1,0.1,0.1,0.1,0.2v0.6l0,0c0.1,0,0.4-0.2,0.6-0.2l0.8-0.5c0.1-0.1,0.2-0.1,0.4,0l3,0.8c0.6,0.2,0.7,0.6,0.7,1
		c0,0.1,0,0.3,0,0.3c0,0.1,0,0.2,0,0.3s0,0.1,0.1,0.2c0.1,0.1,0.1,0.2,0.1,0.3s0,0.1,0,0.2c-0.1,0.3-0.4,0.6-1.2,0.6l-1.5,0.1
		c-1.2,0-2.4,0-3.3,0.8l-0.8,0.8c-0.1,0.1-0.2,0.1-0.3,0.1c-0.6,0-1,0.3-1.5,0.6c-0.4,0.3-0.9,0.6-1.5,0.7c-0.4,0.2-0.9,0.2-1.3,0.2
		s-0.6,0-0.7,0.1c0.4,0.5,1.1,0.7,1.8,0.9c0.1,0,0.4,0.1,0.4,0.1c0.3,0,0.8,0,1,0.5c0,0,0,0.1,0,0.2c0,0.4,0.1,0.6,0.3,0.6h0.1
		c0.1-0.1,0.5-0.3,1,0c0.1,0.1,0.7,0.7,0.7,0.7l0.8,0.8c0.1,0.1,0.1,0.3,0,0.4c-0.3,0.6-1,0.5-1.4,0.5h-0.3h-0.4
		c-0.6,0.1-1.5,0.3-2.1-0.5l0.1,0.1L19.4,53c-0.5-0.4-0.9-0.8-1.5-0.8c-0.6,0.2-0.9,0.4-0.9,0.7l0,0l0.1,0.2l0.3,0.3
		c0.1,0.1,0.1,0.2,0.1,0.2s0,0,0,0.1s-0.1,0.2-0.2,0.3c-0.5,0.3-1.1,0.8-1.1,1.4c0,0.1,0,0.2,0,0.2s0,0,0,0.1c0.1,0,0.2-0.1,0.2-0.1
		c0.2-0.1,0.6-0.2,1,0c0.1,0.1,0.2,0.2,0.2,0.3v0.5c0,0.5,0.1,0.7,0.2,0.9c0.1,0,0.2-0.1,0.2-0.1c0.3-0.2,0.9-0.4,1.5,0
		c0.1,0,0.3,0,0.6-0.2l0.6-0.3c0.1,0,0.1,0,0.1,0c1,0,1.5,0.9,1.7,1.5l0,0l0,0c0.5,0.4,0.9,0.6,1.2,0.5v-0.1c0-0.1,0-0.2,0-0.4
		c0-0.1-0.1-0.3-0.1-0.5c0-0.4,0.1-0.8,0.7-1c0.1,0,1-0.1,1-0.1h0.6H26c0.9,0.1,1.6,0.1,1.9-0.5c0,0,0.7-1.1,0.8-1.3
		c0-0.1,0.1-0.7,0.1-0.7c0-0.2,0.1-0.3,0.3-0.3c0.3-0.1,0.7,0,0.9,0.1c0,0,0.1,0,0.2,0.1c-0.2-0.5-0.3-1-0.3-1.5
		c0-0.3,0-0.5,0.1-0.8c0.2-0.7,0.5-1.3,0.9-1.8c0.1-0.1,0.3-0.2,0.5-0.1l0.2,0.1c0.1,0.1,0.2,0.2,0.3,0.3l0.2,1
		c0.1,0.6,0.2,1.2,0.5,1.8c0,0.1,0.1,0.1,0,0.2l-0.4,1.4l-0.3,1.1c-0.3,1.1-1,1.9-2,2.4v0.1c0,0,0.2,0,0.4,0c0,0,0.3,0,0.4,0
		c1.1-0.1,2.1-0.7,2.9-1.5c0.1-0.1,0.3-0.2,0.4-0.1c0.2,0.1,0.4,0,0.7-0.2s0.9-0.5,1.5-0.1c0.2,0.2,0.6,0.2,1,0.1
		c0.6,0,1.6-0.1,1.8,1v0.2v0.5c0.1,0.5,0.2,1.5-0.9,1.8c-0.1,0-0.1,0-0.2,0l-1.1-0.4c-0.9-0.4-1.3-0.5-1.7,0
		c-0.1,0.1-0.2,0.3-0.2,0.4c0.1,0.3,0.5,0.9,0,1.4l0.1-0.1l-0.1,0.1c-0.3,0.5-0.5,0.8-0.3,1.2c0,0,0.1,0.1,0.4,0
		c0.4-0.2,0.9,0,1.3,0.1l0.5,0.2c0.1,0,0.2,0.1,0.2,0.1l0.2,0.1c0.4,0.3,0.7,0.5,1.1,0.6v-0.1l0.2-0.5c0.1-0.1,0.7-0.4,0.7-0.4
		c0.4-0.2,0.5-0.2,0.5-0.4c0.1-0.7,0.6-1.4,1.3-1.8c0.1,0,0.2-0.1,0.3-0.1c0.2,0,0.7-0.2,0.9-0.4v-0.1L42,59.6
		c-0.1-0.1-0.1-0.2-0.2-0.2c0-0.1,0-0.2,0-0.3c0-0.5,0.3-0.9,0.5-1.3c0.2-0.3,0.3-0.6,0.3-0.8c0-0.1,0-0.2-0.1-0.4
		c0-0.1-0.1-0.1-0.1-0.1l-0.1-0.7c-0.1-0.5-0.1-0.8-0.4-1.1l-0.8-0.4L40.8,54c-0.2-0.1-0.2-0.2-0.2-0.4c0-0.4,0.2-0.6,0.7-0.7h0.1
		c0.5-0.2,1,0,1.4,0.2c0.4,0.1,0.5,0.1,0.6,0.1c-0.1-0.3-0.4-0.6-0.6-0.9c-0.5-0.3-1.1-0.5-1.7-0.6c-1-0.2-2-0.5-2.6-1.4
		c-0.1-0.1-0.1-0.2-0.1-0.3s0-0.2,0.1-0.3l0.1-0.1c0.1-0.1,0.3-0.1,0.4-0.1c1.2,0.3,2.4,0,3.2-0.7c0.5-0.6,1.1-1.4,2-1.7
		c0.7-0.5,0.8-1.4,0.8-2.5c0-0.6,0.3-1,0.7-1.4l0.9-0.4c0.3-0.1,0.4-0.1,0.4-0.2c-0.5-0.2-1.1-0.5-1.6-0.4c-0.1,0-0.2,0-0.3-0.1
		c-0.3-0.1-0.3-0.3-0.4-0.5v-0.1c0-0.3,0.2-0.5,0.4-0.6l0.1-0.1l0.1-0.1l0.9-0.5c1.2-0.7,2-1.1,2-2.1l0,0V38
		c-0.1,0.1-0.3,0.1-0.4,0.3L47,38.7c-0.6,0.3-1.3,0.5-1.9,0.6c-0.7,0.1-1.3,0.3-1.8,0.6c-0.1,0-0.1,0.1-0.2,0.1
		c-0.2,0-0.5-0.1-0.5-0.4c0-0.1,0-0.2,0-0.3c0-0.2,0.1-0.4,0.2-0.5c0.2-0.3,0.5-0.5,0.8-0.6c0.4-0.2,0.6-0.3,0.7-0.6l0.1-0.3
		c0.2-0.5,0.4-1.2,1.1-1.5c0.1,0,0.6-0.3,0.6-0.3c0.1,0,0.2-0.1,0.2-0.1s0,0-0.1-0.1c-1-0.3-2,0.5-2.6,1l-0.1,0.1L43,36.5
		c-0.7,0.3-1.4,0.6-1.8,1.1c0,0.1-0.1,0.1-0.2,0.1c-0.2,0.1-0.4,0-0.6-0.1c-0.2-0.1-0.3-0.3-0.3-0.5c-0.2-1.6,1.1-2.8,2.1-3.7
		l0.2-0.2l0.2-0.1l0.6-0.3c0.5-0.3,1.1-0.7,1.9-0.3c0.6,0.3,1.1,0.5,1.6,0.4c0.3-0.1,0.5-0.4,0.8-0.8c0.2-0.3,0.5-0.7,0.9-1
		c0.4-0.2,0.8,0,1.1,0c0.1,0,0.4,0.1,0.4,0.1l0.1-0.1V31c0-0.3-0.2-0.6-0.5-1l-0.4-0.5C49,29.4,49,29.4,49,29.3s0-0.1,0-0.2
		c0.1-0.3,0.2-0.6,0.2-1c0-0.8-0.3-1.5-0.9-2c-0.2-0.1-0.6-0.3-1-0.3c0,0.1,0.1,0.2,0.1,0.2l0.4,0.8c0,0.1,0,0.2,0,0.3
		c0,1.8-1.5,2.6-2.8,3.2l-1.1,0.6c-2.5,1.3-5.8,3.3-6,6.6c0,1.7,0.7,3.3,2.1,4.7c0,0,0,0.1,0.1,0.1l0.5,0.7c0.5,0.8,1.1,1.6,1.1,2.7
		c0,0.2,0,0.5-0.1,0.8c-0.4,1-1.6,1-2,1c-2.5-0.2-3.8-2.7-4.8-4.5l-0.2-0.3l-0.2-0.4c-0.3-0.6-0.6-1.2-0.6-1.9c0-0.1,0-0.3,0.1-0.3
		c0.1-0.1,0.4-0.4,0.9-0.1c0.1,0,0.5,0.7,0.5,0.7c0.1,0.1,0.1,0.2,0.1,0.3c0-0.1,0.1-0.2,0.1-0.4c0-0.4-0.2-0.9-0.4-1.4L35,39.1
		c-0.1-0.2-0.4-0.5-0.7-0.7c-0.4-0.3-0.8-0.7-1-1.2v-0.1c0,0,0,0,0-0.1c0-0.6,0.5-0.7,0.7-0.8h0.1c-0.2-0.6-0.3-1.3-0.3-2
		c0-0.3,0-0.7,0.1-1l0,0l0,0l0,0l0.6-0.6c0.2-0.1,0.2-0.1,0.2-0.2c-0.2-0.7-0.2-1.5-0.2-2.2c0-0.3,0-0.6,0-0.9
		c0-0.1,0.2-0.7,0.2-0.7c0.1-0.3,0.2-0.5,0.2-0.7c0-0.1,0-0.1,0-0.2c-0.4-0.2-0.5-0.7-0.5-0.9v-0.2l0,0c0.1,0,0.1,0,0.1,0
		c-1,0-1.9-0.4-2.7-0.8L31,25.4c-0.2-0.1-0.4,0-0.7,0.2l-0.5,0.2l-0.5,0.1c-0.5,0.1-1,0.2-1.3,0.5c-0.2,0.2-0.2,0.5-0.2,0.9v0.3v0.1
		c-0.1,0.3-0.3,0.4-0.4,0.4c-0.3,0.1-0.5,0-0.7-0.1h-0.1c-0.8-0.4-1.1-1.2-0.9-2c0-0.1-0.1-0.3-0.1-0.3c-0.2-0.1-0.6-0.2-0.9-0.1
		c-0.2,0.1-0.4,0.3-0.5,0.8c0,0-0.1,0.1-0.1,0.2v0.1c0,0.3,0.1,0.6,0.2,0.7c0.3,0.3,0.8,0.6,1.4,0.9L27,29c0.1,0.1,0.1,0.1,0.1,0.2
		s0.1,0.3,0.1,0.4c0,0.5-0.2,0.8-0.4,1.1l0,0c0.1,0.1,0.4,0.3,0.4,0.7c0,0.1,0,0.1,0,0.2c0,0.2-0.2,0.3-0.3,0.3
		c-0.8,0.2-1.5,0-2.1-0.4L24.4,31c-0.1-0.2-0.2-0.3-0.3-0.3c0,0-0.1,0.2-0.1,0.3l-0.2,0.4c0-0.1,0,0.3,0,0.3c0,0.3-0.1,0.7-0.4,1
		c-0.1,0.1-0.2,0.1-0.3,0.1h-0.4c-1.6-0.5-3-1.3-4.6-2.5c-0.7-0.5-1.2-1.2-1.7-1.9L16,27.9l-0.1-0.1l-0.1-0.5
		c-0.3-1-0.5-1.6-1.2-1.8C14.4,25.3,14.3,25.3,14.3,25.3L14.3,25.3L14.3,25.3z M15.3,31.1L15.3,31.1L15.3,31.1L15.3,31.1L15.3,31.1z
		 M12.2,30.4c0.1,0,0.1,0,0.2,0C12.3,30.4,12.3,30.4,12.2,30.4L12.2,30.4L12.2,30.4z M26.6,31c0.1-0.1,0.1-0.1,0.1-0.2l0,0
		C26.7,30.8,26.6,30.9,26.6,31L26.6,31L26.6,31z M34.3,36.3C34.3,36.3,34.4,36.3,34.3,36.3C34.4,36.3,34.4,36.3,34.3,36.3
		C34.4,36.3,34.3,36.3,34.3,36.3L34.3,36.3L34.3,36.3z M24.8,42.9L24.8,42.9L24.8,42.9L24.8,42.9L24.8,42.9L24.8,42.9z M24.9,43
		C24.9,43,24.9,42.9,24.9,43C24.9,42.9,24.9,42.9,24.9,43L24.9,43L24.9,43L24.9,43z M16.4,45.5L16.4,45.5L16.4,45.5L16.4,45.5
		L16.4,45.5z M30.6,54L30.6,54L30.6,54L30.6,54L30.6,54L30.6,54z M31.1,58.2h0.1H31.1L31.1,58.2L31.1,58.2z"/>
	<path class="st2" d="M1.9,25.3c0-7,0-14.7,0-23.8h59.5c0,0,0,3.5,0,23.9c0,30.1-30,47.8-30,47.8S1.9,54.7,1.9,25.3L1.9,25.3
		L1.9,25.3z"/>
	<path d="M43.4,60L43.4,60L43.4,60L43.4,60L43.4,60L43.4,60L43.4,60L43.4,60L43.4,60L43.4,60L43.4,60L43.4,60L43.4,60L43.4,60
		c-0.2-0.2-0.4-0.5-0.5-0.6c-0.2-1.1,1.4-1.8,0.6-2.9c-0.2-0.7,0-1.5-0.7-2c-0.5-0.4-1.1-0.5-1.6-0.8c0-0.3,0.4-0.2,0.5-0.3
		c0.9-0.2,1.6,0.8,2.3,0c0.1-0.6-0.5-1.1-0.9-1.5c-1.3-0.9-3.2-0.5-4.2-1.9l0.1-0.1c1.2,0.3,2.6,0,3.5-0.8c0.5-0.7,1.1-1.4,1.9-1.6
		c0.9-0.7,1-1.8,1-2.8c0-0.4,0.2-0.8,0.5-1.1c0.5-0.4,1.7-0.3,1.4-1.2c-0.7-0.4-1.4-0.7-2.1-0.6c-0.4-0.2,0.1-0.5,0.2-0.6
		c1.2-0.8,3.2-1.3,3.1-3.2c-0.1-0.2-0.1-0.5-0.4-0.5c-0.5,0.1-0.9,0.6-1.4,0.8c-1.2,0.7-2.6,0.5-3.8,1.2c-0.2,0-0.2-0.3-0.1-0.4
		c0.4-0.6,1.3-0.6,1.6-1.4c0.2-0.6,0.3-1.4,1-1.6c0.4-0.3,1-0.3,1.2-0.8c0-0.3-0.4-0.4-0.6-0.5c-1.1-0.3-2.2,0.3-3,1.1
		c-0.8,0.4-1.8,0.7-2.4,1.3c-0.1,0-0.3,0-0.3-0.2c-0.2-1.6,1.2-2.7,2.3-3.6c0.7-0.2,1.4-1.1,2.2-0.7c0.6,0.3,1.2,0.6,1.9,0.4
		c0.9-0.3,1-1.3,1.8-1.8c0.6-0.2,1.4,0.7,1.8-0.2c0.2-0.9-0.5-1.4-0.9-2c0.5-1.2,0.1-2.6-0.9-3.5c-0.5-0.3-1.1-0.5-1.6-0.3
		c-0.4,0.5,0.4,0.9,0.4,1.4c0.2,2.2-2.2,2.7-3.7,3.7c-2.7,1.4-6,3.5-6.2,7c0,1.9,0.9,3.7,2.2,5c0.7,1.2,1.8,2.3,1.4,3.9
		c-0.3,0.6-1,0.7-1.6,0.7c-2.3-0.2-3.6-2.8-4.6-4.6c-0.3-0.7-0.7-1.4-0.8-2.2c0.1-0.1,0.2-0.1,0.4,0c0.4,0.4,0.4,1.3,1.1,1.2
		c0.6-0.8,0.2-1.8-0.2-2.6c-0.4-0.7-1.3-1.1-1.7-1.9c0-0.6,0.8-0.2,0.9-0.8c-0.3-1-0.4-2.1-0.2-3c0.2-0.4,0.8-0.4,0.8-0.9
		c-0.3-1-0.3-1.9-0.2-3c0.1-0.6,0.6-1.3,0.3-1.9c-0.7-0.2-0.1-1.1-0.8-1.2c-1.3,0-2.3-0.7-3.4-1.1c-0.6-0.2-1,0.2-1.5,0.3
		c-0.7,0.2-1.5,0.2-2,0.7c-0.4,0.4-0.3,0.9-0.3,1.5c-0.1,0.3-0.4,0-0.6,0c-0.5-0.3-0.7-0.9-0.6-1.5c0.1-0.3,0-0.5-0.3-0.7
		c-0.4-0.2-0.9-0.4-1.3-0.2c-0.5,0.2-0.7,0.8-0.9,1.3c0,0.4,0,0.9,0.2,1.2c0.8,0.8,1.9,1.1,2.7,1.8c0.2,0.5-0.2,0.9-0.5,1.3
		c0,0.4,0.6,0.4,0.5,0.8c-0.6,0.2-1.2,0-1.7-0.4c-0.3-0.3-0.4-0.9-0.9-0.9s-0.5,0.6-0.7,0.9c-0.2,0.4,0,0.9-0.4,1.2h-0.3
		c-1.6-0.5-3-1.4-4.4-2.5c-0.8-0.6-1.4-1.6-2-2.4c-0.3-1-0.5-2.3-1.7-2.6c-0.3,0-0.6,0.1-0.7,0.4l-0.1,0.4c-0.6,0-1.2-0.4-1.9-0.2
		c-0.3,0.2-0.6,0.4-0.8,0.7c0,0.7,0.8,0.4,0.9,1c0,0.5,0.4,0.9,0.6,1.3c-0.2,0.3-0.5,0.4-0.6,0.7l-0.4,1c0.2,0.3,0.4,0.7,0.7,0.7
		c0.5-0.2,1,0.2,1.6,0.1c0.4,0,0.9-0.3,1,0.3c0.2,0.5,0,0.9,0,1.3c-0.5,0.7-1.2,1.3-1.9,1.6c-0.2,0.2-0.2,0.5-0.2,0.7
		c0.3,0.4,0.9,0.2,1.3,0.2c0.8,0,1.4-0.5,2.2-0.6c0.2,0.4,0.5,0.9,0.9,1.1c0.6,0.2,0.8-0.7,1.4-0.5c0.5,0.4,0.4,1.1,0.8,1.6
		c0,0.3-0.2,0.3-0.4,0.4c-0.7,0.2-1.6,0-2.1,0.5c-0.1,0.3,0.2,0.6,0.4,0.7c0.6,0.3,1.3,0.4,2,0.5c0.6,0.1,1.3-0.2,1.9,0L20.7,39
		l-1.9,1.3c-0.9,0.4-1.8,0.5-2.6,1c-1.2,0.3-1.7-1.2-2.8-1.1c-0.5,0-0.8,0.2-1.1,0.4c-0.3,0.3-0.3,0.7-0.2,1.1
		c0.2,0.4,0.7,0.2,0.7,0.6c0,1.1-1,1.9-1.1,3c0,0.3,0,0.6,0.4,0.7c0.2,0.1,0.5,0,0.7-0.1c0.2-0.2,0.2-0.6,0.6-0.7
		c0.7,0.1,1.4,0.1,1.8-0.4c0.2,0,0.5,0.2,0.5,0.4c0,0.3,0,0.6,0.3,0.7c1,0,1.4-1,1.9-1.7c0.4-0.1,0.9-0.4,1.3-0.1
		c0.2,0.7-0.4,1.1-0.5,1.8c0,0.2,0.2,0.3,0.4,0.3c1.2-0.2,1.8-1.2,2.5-2.1c0.1-0.2,0.2-0.5,0.6-0.5c0.9,0.3,1.1-0.8,1.7-1.2h0.2
		c0.1,0.3-0.1,0.5,0,0.7c0.4,0.4,0.8,0,1.2-0.1l0.8-0.5c1,0.3,2,0.5,3,0.8c0.8,0.3,0,1.2,0.5,1.7c-0.1,0.3-0.5,0.4-0.8,0.4
		c-1.7,0.2-3.7-0.2-5.1,1l-0.8,0.8c-1.3,0-1.9,1.1-3.1,1.3c-0.8,0.5-2-0.2-2.5,0.7c0.4,0.8,1.4,1.1,2.2,1.3c0.4,0.2,0.9,0,1.1,0.4
		c0,0.4,0.1,0.9,0.6,1c0.3,0.1,0.5-0.4,0.9-0.1c0.4,0.6,1.1,0.9,1.4,1.4c-0.3,0.5-0.9,0.2-1.4,0.2H22c-0.7,0.1-1.6,0.4-2.1-0.2
		c-0.7-0.5-1.3-1.4-2.4-1.4c-0.6,0.2-1.2,0.4-1.3,1c-0.1,0.4,0.3,0.5,0.5,0.8c-0.7,0.5-1.4,1.2-1.2,2.1c0.1,0.2,0.2,0.4,0.4,0.4
		c0.4,0,0.6-0.3,1-0.1c0.1,0.6-0.1,1.5,0.6,1.8c0.5-0.1,0.9-0.7,1.5-0.2c0.6,0.3,1-0.3,1.6-0.4c0.8,0,1.1,0.8,1.4,1.4
		c0.5,0.4,1.2,1,1.9,0.6c0.5-0.7-0.4-1.5,0.5-1.9c0.5-0.2,1,0,1.6-0.1c0.9,0.1,1.9,0.2,2.4-0.8l0.8-1.3l0.2-0.8
		c0.5-0.2,1.2,0.7,1.5-0.1c-0.3-0.8-0.4-1.6-0.2-2.4c0.2-0.6,0.4-1.1,0.8-1.5l0.2,0.1c0.2,1,0.3,1.9,0.7,2.8
		c-0.1,0.9-0.5,1.7-0.7,2.6c-0.2,0.9-0.9,1.7-1.8,2.1c-0.2,0.2-0.4,0.4-0.2,0.7c0.2,0.4,0.8,0.2,1.2,0.3c1.2-0.2,2.3-0.7,3.2-1.6
		c0.9,0.2,1.3-0.8,2.1-0.4c0.8,0.6,2.3-0.5,2.6,0.9c-0.1,0.6,0.5,1.7-0.5,2c-1-0.2-2.2-1.5-3.2-0.3c-0.2,0.2-0.4,0.5-0.2,0.9
		c0.2,0.3,0.4,0.6,0.1,0.9c-0.3,0.5-0.7,1.1-0.4,1.6c0.2,0.3,0.6,0.3,0.9,0.3c0.6-0.2,1.1,0.3,1.7,0.3c0.5,0.4,1,0.9,1.7,0.8
		c0.3-0.2,0.2-0.5,0.4-0.7c0.4-0.4,1.3-0.3,1.3-1.1c0.1-0.6,0.6-1.1,1.1-1.4C41.9,60.8,43.1,60.5,43.4,60L43.4,60L43.4,60z"/>
	<path class="st3" d="M43.4,60L43.4,60L43.4,60L43.4,60L43.4,60L43.4,60L43.4,60L43.4,60L43.4,60L43.4,60L43.4,60L43.4,60L43.4,60
		L43.4,60c-0.2-0.2-0.4-0.5-0.5-0.6c-0.2-1.1,1.4-1.7,0.6-2.9c-0.2-0.7,0-1.5-0.7-2c-0.5-0.4-1.1-0.5-1.6-0.8c0-0.3,0.4-0.2,0.5-0.3
		c0.9-0.2,1.6,0.8,2.3,0c0.1-0.6-0.5-1.1-0.9-1.5c-1.3-0.9-3.2-0.5-4.2-1.9l0.1-0.1c1.2,0.3,2.6,0,3.5-0.8c0.5-0.7,1.1-1.4,1.9-1.6
		c0.9-0.7,1-1.8,1-2.8c0-0.4,0.2-0.8,0.5-1.1c0.5-0.4,1.7-0.3,1.4-1.2c-0.7-0.4-1.4-0.7-2.1-0.6c-0.3-0.2,0.1-0.5,0.2-0.6
		c1.2-0.8,3.2-1.3,3.1-3.2c-0.1-0.2-0.1-0.5-0.4-0.5c-0.5,0.1-0.9,0.6-1.4,0.8c-1.2,0.7-2.6,0.5-3.8,1.2c-0.2,0-0.2-0.3-0.1-0.4
		c0.4-0.6,1.3-0.6,1.6-1.4c0.2-0.6,0.3-1.4,1-1.6c0.4-0.3,1-0.3,1.2-0.8c0-0.3-0.4-0.4-0.6-0.5c-1.1-0.3-2.2,0.3-3,1.1
		c-0.8,0.4-1.8,0.7-2.4,1.3c-0.1,0-0.3,0-0.3-0.2c-0.2-1.6,1.2-2.7,2.3-3.6c0.7-0.2,1.4-1.1,2.2-0.7c0.6,0.3,1.2,0.6,1.9,0.4
		c0.9-0.3,1.1-1.3,1.8-1.8c0.6-0.2,1.4,0.7,1.8-0.2c0.2-0.9-0.5-1.4-0.9-2c0.5-1.2,0.1-2.6-0.9-3.5c-0.5-0.3-1.1-0.5-1.6-0.3
		c-0.4,0.5,0.4,0.9,0.4,1.4c0.2,2.2-2.2,2.7-3.7,3.7c-2.7,1.4-6,3.5-6.2,7c0,1.9,0.9,3.7,2.2,5c0.7,1.2,1.8,2.3,1.4,3.9
		c-0.3,0.6-1,0.7-1.6,0.7c-2.3-0.2-3.6-2.8-4.6-4.6c-0.3-0.7-0.7-1.4-0.8-2.2c0.1-0.1,0.2-0.1,0.4,0c0.4,0.4,0.4,1.3,1.1,1.2
		c0.6-0.8,0.2-1.8-0.2-2.6c-0.4-0.7-1.3-1.1-1.7-1.9c0-0.6,0.8-0.2,0.9-0.8c-0.3-1-0.4-2.1-0.2-3c0.2-0.4,0.8-0.4,0.8-0.9
		c-0.3-1-0.3-1.9-0.2-3c0.1-0.6,0.6-1.3,0.3-1.9c-0.7-0.2-0.1-1.1-0.8-1.2c-1.3,0-2.3-0.7-3.4-1.1c-0.6-0.2-1,0.2-1.5,0.3
		c-0.7,0.2-1.5,0.2-2,0.7c-0.4,0.4-0.3,0.9-0.3,1.5c-0.1,0.3-0.4,0-0.6,0c-0.5-0.3-0.7-0.9-0.6-1.5c0.1-0.3,0-0.5-0.3-0.7
		c-0.4-0.2-0.9-0.3-1.3-0.2c-0.5,0.2-0.7,0.8-0.9,1.3c0,0.4,0,0.9,0.2,1.2c0.8,0.8,1.9,1.1,2.7,1.8c0.2,0.5-0.2,0.9-0.5,1.3
		c0,0.4,0.6,0.4,0.5,0.8c-0.6,0.2-1.2,0-1.7-0.4c-0.3-0.3-0.4-0.9-0.9-0.9s-0.5,0.6-0.7,0.9c-0.2,0.4,0,0.9-0.4,1.2h-0.3
		c-1.6-0.5-3-1.4-4.4-2.5c-0.8-0.6-1.4-1.6-2-2.4c-0.3-1-0.5-2.3-1.7-2.6c-0.3,0-0.6,0.1-0.7,0.4l-0.1,0.4c-0.6,0-1.2-0.4-1.9-0.2
		c-0.3,0.2-0.6,0.4-0.8,0.7c0,0.7,0.8,0.4,0.9,1c0,0.5,0.4,0.9,0.6,1.3c-0.2,0.3-0.5,0.4-0.6,0.7l-0.4,1c0.2,0.3,0.4,0.7,0.7,0.7
		c0.5-0.2,1,0.2,1.6,0.1c0.4,0,0.9-0.3,1,0.3c0.2,0.5,0,0.9,0,1.3c-0.5,0.7-1.2,1.3-1.9,1.6c-0.2,0.2-0.2,0.5-0.2,0.7
		c0.3,0.4,0.9,0.2,1.3,0.2c0.8,0,1.4-0.5,2.2-0.6c0.2,0.4,0.5,0.9,0.9,1.1c0.6,0.2,0.8-0.7,1.4-0.5c0.5,0.4,0.3,1.1,0.8,1.6
		c0,0.3-0.2,0.3-0.4,0.4c-0.7,0.2-1.6,0-2.1,0.5c-0.1,0.3,0.2,0.6,0.4,0.7c0.6,0.3,1.3,0.4,2,0.5c0.6,0.1,1.3-0.2,1.9,0L20.7,39
		l-1.9,1.3c-0.9,0.4-1.8,0.5-2.6,1c-1.2,0.3-1.7-1.2-2.8-1.1c-0.5,0-0.8,0.2-1.1,0.4c-0.3,0.3-0.3,0.7-0.2,1.1
		c0.2,0.4,0.7,0.2,0.7,0.6c0,1.1-1,1.9-1.1,3c0,0.3,0,0.6,0.3,0.7c0.2,0.1,0.5,0,0.7-0.1c0.2-0.2,0.2-0.6,0.6-0.7
		c0.7,0.1,1.4,0.1,1.8-0.4c0.2,0,0.5,0.2,0.5,0.4c0,0.3,0,0.6,0.3,0.7c1,0,1.4-1,1.9-1.7c0.4-0.1,0.9-0.4,1.3-0.1
		c0.2,0.7-0.4,1.1-0.5,1.8c0,0.2,0.2,0.3,0.4,0.3c1.2-0.2,1.8-1.2,2.5-2.1c0.1-0.2,0.2-0.5,0.6-0.5c0.9,0.3,1.1-0.8,1.7-1.2H24
		c0.1,0.3-0.1,0.5,0,0.7c0.4,0.4,0.8,0,1.2-0.1l0.8-0.5c1,0.3,2,0.5,3,0.8c0.8,0.3,0,1.2,0.5,1.7c-0.1,0.3-0.5,0.4-0.8,0.4
		c-1.7,0.2-3.7-0.2-5.1,1l-0.8,0.8c-1.3,0-1.9,1.1-3.1,1.3c-0.8,0.5-2-0.2-2.5,0.7c0.4,0.8,1.4,1.1,2.2,1.3c0.4,0.2,0.9,0,1.1,0.4
		c0,0.4,0.1,0.9,0.6,1c0.3,0.1,0.5-0.4,0.9-0.1c0.4,0.6,1.1,0.9,1.4,1.4c-0.3,0.5-0.9,0.2-1.4,0.2h-0.1c-0.7,0.1-1.6,0.4-2.1-0.2
		c-0.7-0.5-1.3-1.4-2.4-1.4c-0.6,0.2-1.2,0.4-1.3,1.1c-0.1,0.4,0.3,0.5,0.5,0.8c-0.7,0.5-1.4,1.2-1.2,2.1c0.1,0.2,0.2,0.4,0.4,0.4
		c0.4,0,0.6-0.3,1-0.1c0.1,0.6-0.1,1.5,0.6,1.8c0.5-0.1,0.9-0.7,1.5-0.2c0.6,0.3,1.1-0.3,1.6-0.4c0.8,0,1.1,0.8,1.4,1.4
		c0.5,0.4,1.2,1,1.9,0.6c0.5-0.7-0.4-1.5,0.5-1.9c0.5-0.2,1,0,1.6-0.1c0.9,0.1,1.9,0.2,2.4-0.8l0.8-1.3l0.2-0.8
		c0.5-0.2,1.2,0.7,1.5-0.1c-0.3-0.8-0.4-1.6-0.2-2.4c0.2-0.6,0.4-1.1,0.8-1.5l0.2,0.1c0.2,1,0.3,1.9,0.7,2.8
		c-0.1,0.9-0.5,1.7-0.7,2.6c-0.2,0.9-0.9,1.7-1.8,2.1c-0.2,0.2-0.4,0.4-0.2,0.7c0.2,0.4,0.8,0.2,1.2,0.3c1.2-0.2,2.3-0.7,3.2-1.6
		c0.9,0.2,1.3-0.8,2.1-0.4c0.8,0.6,2.3-0.5,2.6,0.9c-0.1,0.6,0.5,1.7-0.5,2c-1-0.2-2.2-1.5-3.2-0.3c-0.2,0.2-0.4,0.5-0.2,0.9
		c0.2,0.3,0.4,0.6,0.1,0.9c-0.3,0.5-0.7,1.1-0.4,1.6c0.2,0.3,0.6,0.3,0.9,0.3c0.6-0.2,1.1,0.3,1.7,0.3c0.5,0.4,1,0.9,1.7,0.8
		c0.3-0.2,0.2-0.5,0.4-0.7c0.4-0.4,1.3-0.3,1.3-1.1c0.1-0.6,0.6-1.1,1.1-1.4C41.9,60.8,43.1,60.5,43.4,60L43.4,60L43.4,60z"/>
	<path class="st1" d="M25.6,25.9c-0.1,0.5-0.1,1,0.2,1.4c0.8,0.9,2.1,1.2,2.6,2.2h-0.3c-1-0.6-1.9-1.4-2.9-1.8
		c-0.4-0.3-0.7-0.7-0.6-1.2c0.1-0.3,0.2-0.7,0.6-0.8C25.4,25.6,25.6,25.7,25.6,25.9L25.6,25.9L25.6,25.9L25.6,25.9z"/>
	<path class="st1" d="M33.9,26.8c0.2,0.2,0,0.7,0.5,0.8c0.1,0,0.2,0.1,0.2,0.2c0,0.4-0.1,0.8-0.2,1.2c-0.1,0.3-0.5,0.4-0.5,0.9
		c0,0.2,0.3,0.3,0.4,0.6v1.6c-1,0.3-0.5,1.5-0.6,2.1c-0.1,0.5,0,1,0,1.5c-0.2,0.1-0.7,0.1-0.8,0.4c0,0.6,0.3,1.1,0.5,1.5
		c0.4,0.5,1.1,0.6,1.1,1.3c-0.5,0-1-0.3-1.4-0.5c-0.7-0.4-1.2-1.2-1.7-1.9c-0.1-0.1-0.3-0.1-0.4,0c-0.1,0.5-0.1,1.1-0.5,1.4
		c-0.5-0.3-0.5-1.6-1.3-1.2c-0.3,1.7-1.4,3-2.4,4.4c-0.2,0.1-0.3,0.4-0.6,0.4c0.5-1.3,0.9-2.8,0.4-4.3c-0.1-0.3-0.4-0.2-0.6-0.1
		c-0.2,0.2-0.4,0.5-0.7,0.4c-0.3-0.4,0.3-1.1-0.4-1.4c-0.5,0.1-0.9,0.6-1.3,0.8c-1.2,0.7-2.6,1-4,1c-0.3,0-0.5-0.1-0.7-0.2
		c0.3-0.4,0.9-0.4,1.3-0.7c1.6-1,2.7-2.8,4-4.1c-0.1-0.6-0.6-1.3-0.1-1.8c0.4,0,0.6,0.5,0.9,0.6c0.6,0.3,1.3,0.5,1.9,0.2
		c0.5-0.1,0.9-0.6,1-1.1c0-0.2-0.1-0.4-0.3-0.4c-0.2,0-0.3,0-0.4-0.2c0-0.3,0.2-0.5,0.4-0.5c0.7,0,1.3,1.4,1.8,0.3
		c0.3-0.9-0.6-1.6-1.2-2.2c-0.2-0.2-0.3-0.4-0.2-0.7c0.5-0.3-0.1-0.7,0.3-1.1c0.7-0.5,1.7-0.2,2.4-0.7
		C31.9,25.7,32.8,26.6,33.9,26.8L33.9,26.8L33.9,26.8L33.9,26.8z"/>
	<path class="st1" d="M15.4,26.5c0,0.2,0.1,0.4,0,0.5c-0.2,0.2-0.4,0-0.5-0.1c-0.2-0.2-0.3-0.5-0.3-0.7
		C14.7,25.4,15.4,26.2,15.4,26.5L15.4,26.5L15.4,26.5L15.4,26.5z"/>
	<path class="st1" d="M14.8,27.6c1.1,0.5,1.8,1.6,2.6,2.5c1.7,1.4,3.5,2.6,5.5,3.2c0.1,0.3-0.2,0.6-0.4,0.8
		c-0.7,0.7-1.2,1.5-1.9,2.1c-0.2,0-0.3,0-0.4,0c-0.7-0.7-0.6-2-1.8-2.1c-0.4,0-0.7,0.5-1.1,0.2s0.1-1-0.5-1.2c-0.7,0.3-1.2,1-2,0.9
		c0.5-0.9,1.4-1.8,0.9-2.9c-0.1-0.5-0.4-1.1-0.9-1.2c-0.5,0-0.7,0.5-1.2,0.3c-0.2-0.4-1.1-0.2-0.7-0.8c0.3-0.5,1.4-0.5,1-1.3
		c-0.3-0.4-1.1-0.2-1.1-0.8c0.1-0.3-0.2-0.8,0-1C13.7,26.1,14.3,27.1,14.8,27.6L14.8,27.6L14.8,27.6L14.8,27.6z"/>
	<path class="st1" d="M49,28.1c0.1,0.6-0.5,1-0.3,1.6c0.2,0.3,0.7,0.4,0.6,0.7c-1.5,0-1.8,2-3.2,1.9c-0.6-0.1-1.1-0.8-1.8-0.5
		c-1.9,0.9-4,2.2-4.5,4.5c-0.2,0.9-0.2,1.8,0.5,2.5c0.2,0.1,0.4,0.1,0.5,0c0.4-0.7,0.7-1.6,1.6-1.8c0.5-0.2,1.1-0.4,1.6-0.7
		c0.1,0,0.2-0.1,0.2,0.1c-0.2,0.7-0.5,1.5-1.3,1.7c-0.5,0.5-1.1,1-1.1,1.7c0,0.3-0.1,0.8,0.2,1.1c0.3,0.2,0.6-0.1,0.8-0.2
		c1-1.2,2.5-1.4,4-1.5c0.1,0.1-0.1,0.4-0.3,0.4c-1.3,0.4-2.5,1.5-2.9,2.8c0,0.2,0.2,0.4,0.3,0.4c0.6-0.1,1.1-0.5,1.8-0.4
		c0.2,0.4-0.5,0.4-0.7,0.8c-1.2,1.1,0,3.4-2,3.8c-0.6,0.2-0.5,0.9-0.9,1.2c-0.7,0.9-1.8,1.1-2.8,1c-0.8,0.1-1.4-1-2.1-0.3
		c0.1,0.8,0.7,1.2,1.1,1.9c1,0.9,2.3,1,3.6,1.4c0.2,0,0.3,0.2,0.4,0.3c0,0.3-0.4,0.2-0.6,0.2c-0.8,0.1-1.7,0.2-2.5-0.1
		c-0.1,0-0.2,0.1-0.3,0.2c0.1,0.9,1.1,1.2,1.7,1.6c0.6,0.3,1.4,0.2,1.6,0.9v0.9c0.3,0.4,0.4,1,0.3,1.5C42,58.3,41.6,59.1,42,60
		c-0.2,0.2-0.6,0-0.8,0.2c-0.3,0.6-1,0.7-1.2,1.2c0,0.5-0.3,0.9-0.8,1c-0.4,0-0.7,0.2-1,0.1c-0.2-0.3,0.1-0.7-0.3-0.9
		c-0.5-0.1-0.7,0.7-1.3,0.4c-0.3-0.2-0.5-0.3-0.7-0.5c0-0.4,0.3-0.5,0.5-0.6c1.3-0.2,3-0.4,3.4-1.8c0.1-0.7-0.2-1.2-0.1-1.8
		c-0.2-0.7-0.9-1.2-1.7-1.3c-0.7-0.2-1.5,0.1-2-0.4c-0.2-0.2-0.4-0.3-0.7-0.2c-0.2,0-0.3,0.3-0.5,0.2c-0.2-0.2-0.5-0.5-0.7-0.2
		c-0.5,0.9-1.2,1.9-2.3,2.1c-0.2-0.3,0.2-0.6,0.3-0.9c0.3-0.7,0.6-1.6,0.8-2.4c0.3-0.4,0.7-1,0.4-1.6c-0.5-1.3-1-2.8-0.6-4.3
		c0.3-1.8-0.2-3.5-1.5-4.7c-0.7-0.4-1.4-1.2-2.3-1.3c-0.6-0.2-1.4,0-1.8-0.5c0.1-0.6,0.7-1,1-1.5l1-1.6c0.4-0.1,0.3,0.5,0.7,0.5
		c0.8,0,0.8-1.4,1.6-0.9c0.4,0.5,1,0.7,1.4,1.2c0.5,2.2,1.4,4.4,2.9,6.1c1.2,1.5,3,2.6,4.8,2.1c0.5-0.4,1.2-0.9,1.3-1.6
		c0.5-3.5-4-5.3-3.7-8.8c0.3-3.3,3.7-5.1,6.4-6.4c1.5-0.8,3.3-1.8,3.5-3.7c0-0.2,0-0.3,0.1-0.5C49,26.9,48.9,27.6,49,28.1L49,28.1
		L49,28.1L49,28.1z"/>
	<path class="st1" d="M24.8,38.6c0.4,0.1,0.9-0.5,1.1,0.1c-0.1,0.8-0.1,1.8-0.5,2.5c-0.4,0.4-1,0.1-1.4,0.3
		c-0.6,0.2-0.7,1.6-1.4,0.7c-0.3-0.1-0.5,0.2-0.7,0.4c-0.3,0.7-0.6,1.5-1.2,2.1c-0.1,0.1-0.3,0.2-0.4,0c-0.1-0.5,0.3-1.4-0.4-1.6
		c-0.3,0-0.6,0.2-0.9,0.3c-0.6,0-1.4,0-1.7,0.5c-0.1,0.3-0.1,0.7-0.5,0.7c-0.4-0.2-0.8-0.3-1-0.7c-0.2-0.1-0.4-0.3-0.6-0.1
		c-0.3,0.3-0.4,0.9-0.9,0.9c-0.4,0-0.7-0.1-1.1-0.3c0.1-0.9,1.1-1,1.7-1.4c1.2-0.3,2.2-1.1,3.4-1.3c1.9-0.7,3.5-2.2,5-3.7
		c0.2-0.1,0.5-0.2,0.7-0.2C24.4,38.1,24.4,38.5,24.8,38.6L24.8,38.6L24.8,38.6L24.8,38.6z"/>
	<path class="st1" d="M15.3,42.2c-0.4,0.2-0.9,0.4-1.3,0.2c-0.2-0.2-0.1-0.7-0.2-1c0.1-0.3,0.5-0.2,0.7-0.1
		C14.8,41.6,15.3,41.7,15.3,42.2L15.3,42.2L15.3,42.2L15.3,42.2z"/>
	<path class="st1" d="M32,47.2c0,0.6-0.1,1-0.4,1.5c-0.7,0.6-1.3,1.4-1.5,2.4c0,0.7-0.1,1.3-0.1,1.9c-0.2,0.2-0.4-0.1-0.5-0.2
		c-0.3-0.5-0.2-1.5-1-1.4c-0.4,0.5-0.9,1.2-0.6,1.8c0.4,0.5,1.1,0.9,0.7,1.6c-0.6,0.3-0.4,1.2-1.2,1.3c-1.2,0.2-2.4-0.4-3.3,0.5
		c-0.3,0.3-0.5,0.7-0.7,1.1c-0.5,0.1-0.4-0.7-0.7-1c-0.2-0.3-0.6-0.1-0.9-0.3c-0.4-0.2-0.9-0.6-1.4-0.3c-0.4,0.2-0.9,0.8-1.4,0.4
		l-0.7-0.2c0-0.2,0.2-0.5,0-0.8L17,54.8c-0.1-0.1,0-0.3,0.1-0.4c1.1-0.7,2.4,0.1,3.7-0.1c0.9-0.3,1.7-0.2,2.6-0.1
		c0.5,0,1.1,0.2,1.4-0.3c0.2-0.3,0.3-0.7,0.1-1c-0.4-0.9-1.6-1-1.8-2.1c-0.1-0.2-0.2-0.4-0.4-0.5c-0.3-0.1-0.5,0.2-0.8,0.1
		c-0.1-0.3-0.2-0.6-0.5-0.7c-0.6,0-1.3,0.3-1.8-0.1c0.1-0.3,0.5-0.2,0.7-0.4c0.8-0.2,1.5-0.7,2.3-1.1l1.1-0.2
		c1.1-1.8,3.4-1.7,5.4-1.8l1.9-0.6C31.7,45.9,31.9,46.7,32,47.2L32,47.2L32,47.2L32,47.2z"/>
	<path class="st1" d="M19.6,53.5c-0.4,0.2-0.8,0.1-1.2,0c-0.2-0.2-0.3-0.6-0.3-0.9C18.7,52.4,19.3,53,19.6,53.5L19.6,53.5L19.6,53.5
		L19.6,53.5z"/>
	<path class="st1" d="M37,59.8c0,0.2-0.2,0.2-0.3,0.2c-0.2,0-0.2-0.1-0.2-0.2C36.5,59.5,36.9,59.7,37,59.8L37,59.8L37,59.8L37,59.8z
		"/>
	<path d="M31.9,27.5c0.1,0.3-0.1,0.5-0.4,0.5c-0.5,0-0.9,0-1.2-0.4c-0.4-0.3-0.2-0.7-0.1-1.1c0.2-0.2,0.4-0.2,0.6-0.1
		C31.2,26.7,31.6,27.1,31.9,27.5L31.9,27.5L31.9,27.5L31.9,27.5z"/>
	<path d="M34.1,28.1c0,0.3-0.2,0.6-0.4,0.9c-0.2,0.1-0.4,0-0.4-0.2c-0.1-0.3,0.1-0.7,0.3-0.9C33.8,27.8,34.1,27.9,34.1,28.1
		L34.1,28.1L34.1,28.1L34.1,28.1z"/>
	<path d="M31.6,30.9v0.7c-0.7,0.7-0.7,1.9-1.7,2.3c-0.3,0-0.5-0.1-0.5-0.4c0-0.4-0.1-1,0-1.4c0.4-0.2,0.5,0.6,0.9,0.2
		c0.2-0.6,0.7-1.1,1-1.6C31.4,30.7,31.6,30.8,31.6,30.9L31.6,30.9L31.6,30.9z"/>
	<polygon points="1.9,18.8 61.3,18.8 61.3,22.9 1.9,22.9 	"/>
	<polygon class="st3" points="1.9,18.8 61.3,18.8 61.3,22.9 1.9,22.9 	"/>
	<polygon class="st1" points="46.1,19.5 52.8,19.5 52.8,22.2 46.1,22.2 	"/>
	<polygon class="st1" points="31.4,19.5 38.1,19.5 38.1,22.2 31.4,22.2 	"/>
	<polygon class="st1" points="16.6,19.5 23.4,19.5 23.4,22.2 16.6,22.2 	"/>
	<polygon class="st1" points="2.6,19.5 8.7,19.5 8.7,22.2 2.6,22.2 	"/>
	<path d="M58.6,4.1c0.5,0.6,0.2,1.5,0.3,2.2c0.5,0.4,1.7,0,1.8,1c0.1,0.4-0.2,0.7-0.4,0.9c-0.4,0.4-1,0-1.3,0.4
		c-0.1,1.2,0,2.5,0,3.9c0.4,0.2,0.8,0.2,1.2,0.4c0.2,0.2,0.4,0.5,0.4,0.8s-0.2,0.6-0.6,0.7c-0.3,0.2-0.9,0-1,0.4
		c-0.2,0.6,0,1.4-0.1,2.1c-0.4,0.2-1,0.2-1.5,0.2h-4.8c-0.4,0.2-0.9,0.7-1.5,0.4c-1-0.6-2.4-0.4-3.5-0.5h-3.5
		c-0.6-0.6-0.2-1.5-0.4-2.2c-0.2-0.4-0.9-0.2-1.3-0.4C42,14.2,42,13.8,42,13.5c0-0.4,0.4-0.6,0.8-0.7c0.3-0.2,0.8,0.1,0.9-0.3
		c0-1.2-0.1-2.5,0-3.6c-0.1-0.7-1-0.3-1.4-0.6c-0.4-0.2-0.4-0.7-0.3-1.1c0.3-0.7,1.1-0.5,1.7-0.7l0.1-0.2l0.1-2.1L44,4l5.5,0.1
		c0.6,0,1.2,0.3,1.8,0.5c1.2-0.9,2.9-0.4,4.3-0.7C56.6,4.1,57.6,3.9,58.6,4.1L58.6,4.1L58.6,4.1L58.6,4.1z"/>
	<path class="st4" d="M58.6,4.1c0.5,0.6,0.2,1.5,0.3,2.2c0.5,0.4,1.7,0,1.8,1c0.1,0.4-0.2,0.7-0.4,0.9c-0.4,0.4-1,0-1.3,0.4
		c-0.1,1.2,0,2.5,0,3.9c0.4,0.2,0.8,0.2,1.2,0.4c0.2,0.2,0.4,0.5,0.4,0.8s-0.2,0.6-0.6,0.7c-0.3,0.2-0.9,0-1,0.4
		c-0.2,0.6,0,1.4-0.1,2.1c-0.4,0.2-1,0.2-1.5,0.2h-4.8c-0.4,0.2-0.9,0.7-1.5,0.4c-1-0.6-2.4-0.4-3.5-0.5h-3.5
		c-0.6-0.6-0.2-1.5-0.4-2.2c-0.2-0.4-0.9-0.2-1.3-0.4C42,14.2,42,13.8,42,13.5c0-0.4,0.4-0.6,0.8-0.7c0.3-0.2,0.8,0.1,0.9-0.3
		c0-1.2-0.1-2.5,0-3.6c-0.1-0.7-1-0.3-1.4-0.6c-0.4-0.2-0.4-0.7-0.3-1.1c0.3-0.7,1.1-0.5,1.7-0.7l0.1-0.2l0.1-2.1L44,4l5.5,0.1
		c0.6,0,1.2,0.3,1.8,0.5c1.2-0.9,2.9-0.4,4.3-0.7C56.6,4.1,57.6,3.9,58.6,4.1L58.6,4.1L58.6,4.1L58.6,4.1z"/>
	<path d="M38.8,4c0.2,0,0.5,0.2,0.7,0.3c0.2,0.8,0,1.4,0.2,2.1c0.5,0.2,1.3,0,1.6,0.7c0.1,0.3,0.1,0.8-0.1,1c-0.4,0.5-1.3,0-1.6,0.6
		c-0.1,1.4-0.1,2.5,0,3.8c0.4,0.4,1.1,0.1,1.5,0.6c0.2,0.2,0.3,0.5,0.2,0.8c-0.3,0.5-1,0.5-1.6,0.6c-0.2,0.2,0,0.6-0.1,0.8
		c-0.2,0.5,0.3,1.2-0.3,1.5c-1.7,0.2-3.2-0.1-4.9,0h-1.6c-0.4,0.3-1,0.7-1.5,0.4l-1-0.4c-1.2,0-2.3,0-3.5,0c-0.8,0-1.9,0.3-2.5-0.4
		c0-0.6,0.1-1.3,0-1.9c-0.6-0.2-1.6,0.1-1.9-0.7c-0.1-0.2,0-0.6,0.1-0.8c0.4-0.6,1.5-0.1,1.9-0.6v-1.8c0.1-0.8,0-1.5,0-2.3
		c-0.6-0.2-1.7,0.1-1.8-0.8c-0.1-0.5,0.2-0.9,0.6-1s1,0.1,1.2-0.3l0.1-1.9C25,3.5,26.2,4,26.9,3.9h3.7c0.6,0.1,1.1,0.6,1.7,0.3
		C34.1,3.5,36.6,4.2,38.8,4L38.8,4L38.8,4L38.8,4z"/>
	<path class="st4" d="M38.8,4c0.2,0,0.5,0.2,0.7,0.3c0.2,0.8,0,1.4,0.2,2.1c0.5,0.2,1.3,0,1.6,0.7c0.1,0.3,0.1,0.8-0.1,1
		c-0.4,0.5-1.3,0-1.6,0.6c-0.1,1.4-0.1,2.5,0,3.8c0.4,0.4,1.1,0.1,1.5,0.6c0.2,0.2,0.3,0.5,0.2,0.8c-0.3,0.5-1,0.5-1.6,0.6
		c-0.2,0.2,0,0.6-0.1,0.8c-0.2,0.5,0.3,1.2-0.3,1.5c-1.7,0.2-3.2-0.1-4.9,0h-1.6c-0.4,0.3-1,0.7-1.5,0.4l-1-0.4c-1.2,0-2.3,0-3.5,0
		c-0.8,0-1.9,0.3-2.5-0.4c0-0.6,0.1-1.3,0-1.9c-0.6-0.2-1.6,0.1-1.9-0.7c-0.1-0.2,0-0.6,0.1-0.8c0.4-0.6,1.5-0.1,1.9-0.6v-1.8
		c0.1-0.8,0-1.5,0-2.3c-0.6-0.2-1.7,0.1-1.8-0.8c-0.1-0.5,0.2-0.9,0.6-1s1,0.1,1.2-0.3l0.1-1.9C25,3.5,26.2,4,26.9,3.9h3.7
		c0.6,0.1,1.1,0.6,1.7,0.3C34.1,3.5,36.6,4.2,38.8,4L38.8,4L38.8,4L38.8,4z M11.6,4.4c2-0.8,4.2-0.2,6.4-0.4
		c0.6,0.1,1.4-0.3,1.8,0.3c0,0.6,0,1.2,0,1.9C20,6.7,20.7,6.4,21,6.6c0.2,0.1,0.4,0.2,0.5,0.5s0,0.6-0.1,0.9C21,8.4,20.5,8.3,20,8.4
		l-0.2,0.2c0.1,1.2-0.2,2.2,0,3.3c0,0.2-0.1,0.6,0.2,0.7c0.6,0,1.1,0,1.5,0.4c0.2,0.3,0.2,0.6,0.1,1c-0.2,1.2-2.1-0.2-1.9,1.2
		c0,0.5,0.1,1.2-0.1,1.7c-2.2,0-4.4-0.2-6.4,0c-0.4,0.3-0.8,0.5-1.4,0.6c-0.4-0.1-0.8-0.3-1.1-0.6c-2-0.1-3.9-0.1-5.8-0.1
		c-0.6-0.5-0.2-1.4-0.4-2.1c-0.3-0.4-0.8-0.1-1.2-0.3c-0.3,0-0.4-0.3-0.5-0.5c0-0.4,0-0.8,0.3-1.1c0.3-0.2,0.8-0.2,1.2-0.2l0.2-0.2
		c-0.1-1.3,0.2-2.6-0.1-4c-0.2-0.3-0.6,0-0.8-0.2C3.2,8.1,2.8,7.9,2.7,7.5C2.6,7.2,2.6,6.9,2.9,6.6c0.4-0.5,1.2,0.1,1.6-0.4l0.2-1.9
		C5,3.7,5.7,4,6.3,4c1-0.2,2.2,0,3.2,0C10.3,4,11,4.2,11.6,4.4L11.6,4.4L11.6,4.4L11.6,4.4z"/>
	<path class="st1" d="M11.3,4.9l0.2,0.4c0.1,2.7,0.1,5.4,0.1,8.3l-0.1,1c-0.7,0-1.4-0.3-2.1-0.2c-0.8-0.1-1.6,0.1-2.3-0.1
		c-0.4-0.9-0.1-1.9-0.2-2.9c0-2,0.1-4.5,0.1-6.6c0-0.2,0.2-0.2,0.3-0.3C8.7,4.6,10.2,4.2,11.3,4.9L11.3,4.9L11.3,4.9z"/>
	<path class="st1" d="M6,4.7C5.6,5,5.1,5.5,5.3,6c0.2,3.4,0,6.4,0.2,9.6l0.3,0.3c1.6,0,3.3-0.2,4.8,0.1c0.1,0,0.1,0.2,0,0.2
		c-0.4,0.2-0.9,0.1-1.3,0.1l-4.1-0.1C4.9,16,5,15.5,5,15.1s0.1-0.9-0.3-1.1c-0.6-0.1-1.1,0-1.5-0.4c0.3-0.8,1.6-0.2,1.8-1
		c0.1-1.5-0.1-3,0-4.4C4.8,7.4,4,7.6,3.4,7.5C3.3,7.4,3.2,7.3,3.2,7.1C3.7,6.6,4.7,7.2,5,6.5c0.2-0.6,0-1.2,0.1-1.9
		C5.3,4.5,5.7,4.5,6,4.5V4.7L6,4.7L6,4.7z"/>
	<path class="st1" d="M17.3,4.7c0,3.3,0,6.4,0,9.5c-1.6,0.2-3.4-0.1-5,0.3c-0.4-0.3-0.1-0.8-0.2-1.3c-0.1-1,0-2.2,0-3.3
		c0-1.6-0.1-3.3,0-4.9c0.2-0.5,0.8-0.6,1.3-0.6h3.8L17.3,4.7L17.3,4.7L17.3,4.7z"/>
	<path class="st1" d="M19.2,4.7c0.1,0.6-0.2,1.5,0.2,2.1c0.4,0.2,1,0.1,1.4,0.2c0.2,0.2,0.1,0.4,0,0.6c-0.4,0.4-1.4-0.1-1.6,0.6
		c0,1.6-0.1,3.1,0,4.7l0.2,0.2c0.5,0.1,1.2-0.1,1.5,0.3c0,0.2,0,0.5-0.2,0.6c-0.5,0.1-1.3-0.2-1.6,0.4C19,15,19.2,15.7,19,16.3
		l-0.3,0.1L13,16.3c-0.1-0.1,0-0.2,0-0.2l0.6-0.2h4.6c0.5-0.1,0.5-0.7,0.5-1.1c0-2.3,0-4.2,0-6.4c0-1.1,0.2-2.1-0.1-3.2
		c0-0.2-0.4-0.4-0.4-0.7C18.6,4.5,19,4.5,19.2,4.7L19.2,4.7L19.2,4.7L19.2,4.7z"/>
	<path class="st1" d="M45.1,4.7C45,5,44.6,5.3,44.5,5.6c0,3.3,0,6.9,0.1,10.3l0.3,0.2c1.8,0,3.7-0.4,5.2,0.4c0.1,0,0,0,0,0.1
		c-1.9,0-3.9,0.1-5.8,0l-0.2-0.2c-0.1-0.7,0.1-1.4-0.2-2.1c-0.4-0.4-1.7,0.1-1.4-0.8c0.5-0.4,1.2,0.1,1.5-0.5c0-1.7,0.1-3.2,0-4.8
		c-0.4-0.5-1-0.2-1.5-0.3c-0.2-0.2-0.3-0.4-0.1-0.6c0.5-0.4,2.1,0.1,1.8-1.1c0.2-0.5-0.2-1.5,0.5-1.6C44.8,4.5,45,4.5,45.1,4.7
		L45.1,4.7L45.1,4.7L45.1,4.7z"/>
	<path class="st1" d="M58.3,4.7c0.2,0.8-0.2,1.5,0.3,2.2C59,7.1,59.8,6.8,60,7.3c0,1-1.4,0.2-1.7,1c0.1,1.5-0.1,2.8,0,4.4
		c-0.2,0.1-0.2,0.3-0.1,0.4c0.4,0.4,1-0.2,1.5,0.2c0.3,0.1,0.1,0.3,0.1,0.5c-0.4,0.5-1.2-0.1-1.5,0.6l-0.1,2l-0.3,0.1h-5.4
		c-0.1-0.1,0-0.1,0-0.2l0.6-0.2h4.1c0.2,0,0.5-0.2,0.5-0.5c0-3.2-0.1-6.5-0.1-9.9l-0.5-1C57.6,4.5,58.2,4.4,58.3,4.7L58.3,4.7
		L58.3,4.7L58.3,4.7z"/>
	<path class="st1" d="M45.7,6c0,2.8,0,5.8,0,8.7c-0.1,0.2-0.4,0.4-0.5,0.5L45,15.1c0-0.9,0-2,0-2.9v-0.7c0-1.9,0-4,0-5.9
		c0.2-0.2,0.3-0.5,0.5-0.6C45.7,5.4,45.7,5.6,45.7,6L45.7,6L45.7,6L45.7,6z"/>
	<path class="st1" d="M57.5,5.6c-0.1,2.3,0,4.4,0,6.5c0,1,0,1.9,0,2.8c0,0.1,0,0.1-0.1,0.2c-0.7-0.3-0.4-1-0.5-1.7
		c0-0.8-0.1-1.8,0.1-2.7l-0.1-0.3V5.1C57.1,4.8,57.4,5.3,57.5,5.6L57.5,5.6L57.5,5.6L57.5,5.6z"/>
	<path class="st1" d="M18.4,5.4c0,3.3,0,6.5-0.1,9.4c-0.1,0.2-0.2,0-0.4-0.1c-0.2-0.5,0-1.1,0-1.6c-0.1-2.6,0-5.3,0-7.9
		C18.1,5,18.3,5.3,18.4,5.4L18.4,5.4L18.4,5.4L18.4,5.4z"/>
	<path class="st1" d="M51.6,9.5c-0.1,0.2-0.4,0.2-0.6,0.1l-0.2-0.1c0.1-0.4,0-1,0.4-1.3C51.5,8.5,51.4,9.1,51.6,9.5L51.6,9.5
		L51.6,9.5L51.6,9.5z"/>
	<path class="st1" d="M18,15.3c-0.1,0.2-0.5,0.1-0.7,0.2H16c-1,0-2.1-0.1-3,0.1c-0.2,0-0.3-0.2-0.3-0.4c0.1-0.4,0.6-0.2,0.9-0.4
		c1.2,0,2.7,0,3.9,0C17.6,14.9,17.8,15.1,18,15.3L18,15.3L18,15.3L18,15.3z"/>
	<path class="st1" d="M11.2,15.1c0,0.2-0.2,0.4-0.4,0.5c-1.3-0.4-2.7-0.1-4.1-0.3l0,0c0.1-0.2,0.3-0.4,0.6-0.4
		C8.6,14.9,10,14.9,11.2,15.1L11.2,15.1L11.2,15.1L11.2,15.1z"/>
	<path class="st1" d="M50.7,15.3c0.1,0.1,0.1,0.3,0,0.3c-0.5,0.6-1.1-0.1-1.7,0c-1-0.1-2.2,0-3.3-0.1c0.3-0.9,1.5-0.4,2.2-0.5
		C48.9,15.1,49.9,14.8,50.7,15.3L50.7,15.3L50.7,15.3L50.7,15.3z"/>
	<path class="st1" d="M56.7,15.1c0.2,0.1,0.4,0.3,0.4,0.5c-1.7,0.2-3.3-0.2-4.8,0.2c-0.2,0-0.3-0.3-0.2-0.5c0.3-0.4,0.8-0.3,1.3-0.4
		L56.7,15.1L56.7,15.1L56.7,15.1z"/>
	<path class="st1" d="M12.5,15.9c0.1,0.3,0,0.7-0.2,0.9c-0.2,0.2-0.5,0.2-0.7,0.1c-0.2,0-0.3-0.3-0.3-0.5c-0.1-0.4,0.4-0.6,0.6-0.9
		C12.2,15.5,12.4,15.7,12.5,15.9L12.5,15.9L12.5,15.9L12.5,15.9z"/>
	<path class="st1" d="M51.9,16.1c0,0.4,0,0.9-0.4,0.9c-0.3,0-0.6-0.1-0.7-0.4c-0.1-0.4,0.2-0.8,0.4-0.9
		C51.6,15.7,51.8,15.9,51.9,16.1L51.9,16.1L51.9,16.1L51.9,16.1z"/>
	<path class="st1" d="M37.2,4.8c0,3.1,0,6.4,0,9.5L37,14.4c-1.7,0.2-3.4-0.3-5,0.3c-0.3-0.2,0-0.6-0.1-0.9c0-2.7,0-5.5,0-8.4
		c0-0.3,0.2-0.5,0.4-0.6c0.4-0.3,1-0.2,1.6-0.3l3.2,0.1L37.2,4.8L37.2,4.8L37.2,4.8z"/>
	<path class="st1" d="M39.1,4.7c0,0.7,0,1.4,0.1,2.1c0.5,0.4,1.9-0.2,1.6,0.9c-0.4,0.3-1,0.1-1.5,0.2L39.1,8c-0.2,1.6,0.1,3.3,0,4.7
		c0,0.2,0.1,0.4,0.4,0.5c0.4,0,1.1-0.3,1.3,0.3c-0.1,1-1.3,0.1-1.7,0.8C39,15,39.3,15.7,39,16.4l-0.2,0.1c-2.1,0-4.1,0-6-0.1
		c-0.1,0,0-0.2,0-0.2l0.4-0.2c1.6-0.2,3.4,0,5.1-0.2c0.2,0,0.4-0.2,0.4-0.5c0-3.1,0-6.2,0-9.7c-0.1-0.5-0.6-0.8-0.6-1.2
		C38.4,4.5,38.9,4.4,39.1,4.7L39.1,4.7L39.1,4.7L39.1,4.7z"/>
	<path class="st1" d="M25.7,4.6c-0.1,0.4-0.4,0.5-0.6,0.8c-0.2,0.6,0,1.3-0.1,2c0,2.8,0,5.4,0,8.1c0,0.2,0.2,0.4,0.4,0.5l4.3,0.1
		c0.2,0,0.5,0.1,0.7,0.3c-0.1,0.2-0.4,0.2-0.6,0.2c-1.6,0-3.3,0.1-4.9-0.1l-0.2-0.1c0-0.7,0-1.5-0.3-2.1c-0.5-0.2-1.1,0-1.6-0.2
		c-0.2-0.1-0.2-0.4,0-0.6c0.5-0.3,1.5,0.2,1.8-0.6c0-1.6,0.1-3.1,0-4.7c-0.4-0.6-1.4,0-1.8-0.6c0.2-0.9,1.4-0.1,1.8-0.9l0.1-1.9
		C25.1,4.5,25.4,4.5,25.7,4.6L25.7,4.6L25.7,4.6L25.7,4.6z"/>
	<path class="st1" d="M26.3,5.1c0.1,2.8-0.2,5.3,0,8.1c-0.2,0.6,0.3,1.6-0.6,1.7c-0.2-2.8,0-5.8-0.1-8.8c-0.1-0.5,0.2-0.9,0.6-1.2
		L26.3,5.1L26.3,5.1L26.3,5.1z"/>
	<path class="st1" d="M38.3,5.6c0,3.1,0.1,6.4-0.1,9.3c-0.2,0-0.4-0.2-0.4-0.3c0-1.2-0.2-2.5-0.1-3.8c0.1-1.7-0.1-3.8,0.1-5.6
		C38,5.1,38.3,5.4,38.3,5.6L38.3,5.6L38.3,5.6L38.3,5.6z"/>
	<path class="st1" d="M30.9,15.1c0.2,0,0.4,0.2,0.2,0.4l-0.3,0.3c-1.4-0.5-3.2-0.2-4.7-0.4c0.1-0.2,0.2-0.4,0.4-0.6
		C28,15,29.5,14.8,30.9,15.1L30.9,15.1L30.9,15.1L30.9,15.1z"/>
	<path class="st1" d="M37.3,14.9c0.2,0.1,0.4,0.3,0.4,0.5l-0.2,0.1c-1.7,0-3.4-0.2-5,0.2c-0.2,0-0.5,0-0.6-0.3
		c0.2-0.4,0.6-0.5,1-0.5C34.5,14.8,35.9,14.9,37.3,14.9L37.3,14.9L37.3,14.9L37.3,14.9z"/>
	<path class="st1" d="M32.1,16.3c0,0.3,0,0.7-0.4,0.7c-0.3,0-0.7,0-0.7-0.4c0.1-0.3,0.3-0.5,0.6-0.7C31.9,15.8,32,16.1,32.1,16.3
		L32.1,16.3L32.1,16.3L32.1,16.3z"/>
	<path class="st1" d="M31.3,11.2c0.2-1.6,0-3.4,0.1-5c0-0.5,0-1-0.3-1.4c-1.2-0.5-2.7-0.2-4.1-0.3c-0.1,0-0.2,0-0.2,0.1
		c0,3.2,0,6.2,0,9.3l0.1,0.4c1,0.2,1.9,0.1,2.9,0.1c0.5,0.1,1,0.2,1.5,0.3c0-1.1,0.1-1.9,0-3V11.2L31.3,11.2L31.3,11.2z"/>
	<path d="M30.9,11.1c-0.5-0.4-0.6-1-1-1.5c0.2-0.2,0.4-0.3,0.6-0.5c0.3-0.3,0.6-0.8,0.5-1.2c0-0.4-0.2-0.8-0.6-1
		c-0.8-0.3-1.9-0.2-2.8-0.1c-0.2,0.1-0.2,0.2-0.1,0.4c0.3,0,0.5,0.2,0.5,0.5c0,1.1,0,2.2-0.2,3.3l-0.4,0.5c0.4,0.4,1,0.1,1.7,0.2
		c0.2-0.3-0.3-0.5-0.4-0.8c0.1-0.3,0-0.8,0.2-1c0.6,0.5,0.8,1.4,1.5,1.9l0.9,0.1v-0.5C31.3,11.3,31,11.1,30.9,11.1L30.9,11.1
		L30.9,11.1z M29.7,9.1c-0.3,0-0.7,0.2-0.8-0.2c0-0.5-0.2-1.2,0-1.7c0.4-0.3,0.9-0.2,1.2,0.2c0.2,0.3,0.2,0.6,0.2,1
		C30.1,8.7,30,9,29.7,9.1L29.7,9.1L29.7,9.1z"/>
	<path class="st1" d="M56.5,5.7c0-0.4,0-0.8-0.2-1.1h-1.5c-1,0.2-2.2-0.2-3.1,0.4c-0.4,0.5-0.2,1-0.3,1.6c0.1,0.3,0.2,0.7,0.3,1
		L51.5,8L51,7.8l-0.2-0.4C50.9,7.2,51,7,51,6.7c0-0.7,0.2-1.7-0.7-2c-1.3-0.1-2.5-0.2-3.9-0.2c-0.1,0-0.2,0-0.2,0.1
		c0,3.1,0,5.8,0,8.8c0,0.4-0.1,0.8,0.3,1c1.2-0.2,2.2,0,3.3,0c0.4,0,0.7,0.4,1.2,0.3c0.1-1.2,0.1-2.7,0.1-4.1c0-0.1,0-0.4-0.2-0.4
		V9.9l0.7,0.1l0.1,0.2c0,0,0,0-0.1,0.1l-0.1,4.1c0,0.1,0,0.4,0.3,0.4c1.2-0.7,2.8-0.2,4.2-0.4l0.3-0.1c0.2-0.7,0.1-3.1,0.1-3.1
		C56.5,9.4,56.5,7.6,56.5,5.7L56.5,5.7L56.5,5.7z"/>
	<path d="M51.8,10.2c0.2,0.2,0.3,0.5,0.2,0.8l-0.3,0.4l0.2,0.2c0.5,0,1.1,0.1,1.6-0.1c-0.1-0.2-0.4-0.3-0.6-0.5
		c-0.6-1.5-1-3-1.4-4.6L51,6.7c-0.3,1.4-0.8,2.6-1.2,4c-0.1,0.3-0.4,0.3-0.6,0.5c-0.3,0.1-0.4-0.2-0.5-0.4c0-1.2,0.1-2.2,0-3.5
		c0-0.2,0.2-0.4,0.4-0.2c0.3,0.2,0.3,0.6,0.4,0.8C49.7,8,49.9,8,49.9,7.8l0.2-1.2c-0.2-0.4-0.5,0-0.8,0c-0.6,0-1.4,0.1-2-0.2
		c-0.5,0.2-0.4,0.8-0.4,1.3c0,0.1,0,0.2,0,0.2C47.3,7.6,47.5,7,48,7.1v1.2v2.6c-0.2,0.2-0.6,0.3-0.5,0.6c0.7,0.2,1.5,0,2.2,0.1
		c0.4,0,0.8,0.1,1.2,0c0.1-0.1,0-0.2,0-0.3c-0.2-0.1-0.5-0.3-0.4-0.6c0.1-0.2,0.2-0.6,0.5-0.5c0.1,0,0.1,0,0.2,0.1l0.6,0.1l0,0
		C51.7,10.3,51.7,10.2,51.8,10.2L51.8,10.2L51.8,10.2z M50.9,9.7l-0.2-0.1c0.1-0.4,0-1,0.4-1.3c0.4,0.2,0.3,0.8,0.5,1.2
		C51.5,9.7,51.1,9.7,50.9,9.7L50.9,9.7L50.9,9.7z"/>
	<path d="M55.5,6.9c0,0.3,0.2,0.8,0,1c-0.3-0.2-0.3-0.5-0.8-0.6c-0.2,0-0.5,0-0.5,0.3C54.1,8.5,55,8.5,55.5,9s0.7,1.2,0.5,1.8
		c-0.2,0.5-0.4,0.7-0.9,0.7c-0.4,0.1-0.7-0.2-1,0c-0.1,0-0.2,0.1-0.3,0V9.9c0-0.1,0.1-0.1,0.2-0.1c0.2,0.5,0.1,1.1,0.8,1.2
		c0.2,0,0.4-0.1,0.5-0.4c0.1-1.4-1.8-1.1-1.8-2.6c0-0.3,0.1-0.6,0.2-0.9c0.3-0.5,1.1-0.2,1.6-0.5C55.4,6.5,55.4,6.8,55.5,6.9
		L55.5,6.9L55.5,6.9L55.5,6.9z"/>
	<path d="M35.3,6.8c-0.4,0.2-0.8,0.5-0.7,1.1c-0.1,1-0.1,2,0,3l0.6,0.6v0.1c-0.7,0-1.3,0.1-2,0c-0.3-0.3,0.4-0.5,0.5-0.7
		c0.1-1.1,0.2-2.3,0.1-3.5C33.6,7,33,7.1,33.1,6.7c0.6-0.1,1.4-0.1,2,0L35.3,6.8L35.3,6.8L35.3,6.8z"/>
	<path d="M15.7,7.6c-0.4,0.5-0.5-0.4-0.9-0.5c-0.2,0-0.6-0.1-0.8,0.1c-0.1,0.5-0.2,1,0,1.5c0.2,0.1,0.5,0.1,0.7,0.1
		c0.2-0.2,0.4-0.6,0.7-0.6c0.2,0.2-0.1,0.5,0,0.7c-0.1,0.3,0.2,0.7-0.2,0.8c-0.2-0.1-0.4-0.6-0.7-0.6h-0.6c-0.2,0.7-0.1,1.4,0,2.1
		c0.3,0.3,0.7,0,1.1,0c0.5-0.1,0.4-0.8,0.8-0.8c0.1,0.3,0.2,0.7,0.1,1l-0.2,0.2h-2.9c-0.1,0-0.4,0-0.3-0.2c0.9-0.6,0.4-1.7,0.5-2.5
		c-0.1-0.6,0.4-1.6-0.5-2c0-0.2,0.2-0.2,0.3-0.2c0.7,0,1.7,0.3,2.3-0.3C15.7,6.6,15.7,7.2,15.7,7.6L15.7,7.6L15.7,7.6L15.7,7.6z"/>
	<path d="M11.3,7c-0.8,0.6-0.8,1.8-1.2,2.7c-0.3,0.5-0.2,1.3-0.7,1.7C9.2,11.5,9,11.3,9,11.1C8.7,9.9,8.4,8.6,7.9,7.4
		C7.9,7.1,7,7,7.5,6.7c0.6-0.1,1,0.1,1.6,0c0.1,0.4-0.4,0.6-0.3,1C9.2,8.2,9,9,9.5,9.6l0.2-0.2c0-0.9,1.1-1.8,0.2-2.6
		c0.2-0.4,0.8-0.1,1.2-0.2C11.2,6.7,11.5,6.8,11.3,7L11.3,7L11.3,7L11.3,7z"/>
	<path class="st1" d="M6.4,5.1c0.2,3.3,0,6.4,0,9.5C6.4,14.8,6.2,15,6,15c-0.2-1-0.2-2-0.1-3c-0.1-2.1,0-4.3,0-6.4
		C5.9,5.3,6.2,5.1,6.4,5.1L6.4,5.1L6.4,5.1L6.4,5.1z"/>
</g>
</svg>
