<svg id="Layer_1" data-name="Layer 1" xmlns="http://www.w3.org/2000/svg" viewBox="0 0 1513.3 233"><defs><style>.cls-1{fill:#fff;}.cls-2{fill:#fff;}.cls-3{fill:#8daf49;}.cls-4{fill:#68bdc6;}.cls-5{fill:#de2d36;}</style></defs><path class="cls-1" d="M639.3,349.3a7.28,7.28,0,0,1-2.1,5.1,6.41,6.41,0,0,1-4.9,2.2h-4.9c-4.9,0-7.3-2.4-7.3-7.3V274.4H511.6v74.9a7.52,7.52,0,0,1-7.3,7.3h-4.9a7.52,7.52,0,0,1-7.3-7.3V187.6a7.52,7.52,0,0,1,7.3-7.3h4.9a7.52,7.52,0,0,1,7.3,7.3v67.9H620V187.6c0-4.9,2.4-7.3,7.3-7.3h4.9a6.26,6.26,0,0,1,4.9,2.2,7.28,7.28,0,0,1,2.1,5.1V349.3Z" transform="translate(-242.3 -163.6)"/><path class="cls-1" d="M794.2,293.4c0,4.9-2.4,7.3-7.3,7.3l-97.5.3c2.1,26.4,16.2,39.5,42.4,39.5a46.57,46.57,0,0,0,23.7-6.2,33.21,33.21,0,0,0,15.9-18.2l-.3.5c.9-3.6,3.1-5.5,6.8-5.5h4.9c4.9,0,7.3,2.4,7.3,7.3v1c-8.1,26.4-27.7,39.5-58.8,39.5-20.3,0-35.5-6-45.8-17.9s-15.3-28-15.3-48.1q0-28.8,16.6-47.3,17.7-19.5,45.5-19.5,28.05,0,45,16.9t16.9,45.2v5.2Zm-20.5-11.2c-1.4-10.2-5-18.6-10.9-25.2-7.1-8-17.3-12-30.4-12-11.6,0-21.2,3.3-28.7,10s-12.2,15.7-13.9,27.2Z" transform="translate(-242.3 -163.6)"/><path class="cls-1" d="M939.8,349.6c0,4.7-2.3,7-7,7h-4.9c-4.7,0-7-2.3-7-7V342c-10.6,11.3-24.9,16.9-42.9,16.9q-28.65,0-45-19.2-15.3-18-15.3-46.8t15.9-47.1Q851,226,878.8,226c17.5,0,31.5,5.6,42.1,16.9v-9.1a7.28,7.28,0,0,1,2.1-5.1,6.41,6.41,0,0,1,4.9-2.2h4.9c4.7,0,7,2.4,7,7.3Zm-18.9-56.7c0-14.7-3.5-26.2-10.4-34.3-7.3-9-18.1-13.5-32.5-13.5-13.2,0-23.5,4.8-30.9,14.3-6.9,8.8-10.4,20-10.4,33.5,0,13.7,3.1,24.7,9.4,33a7.57,7.57,0,0,1,1.3,1c7.3,9,17.5,13.5,30.7,13.5s23.6-4.5,31.3-13.4S920.9,306.8,920.9,292.9Z" transform="translate(-242.3 -163.6)"/><path class="cls-1" d="M992.4,348.3a6.81,6.81,0,0,1-2.3,4.8,7.05,7.05,0,0,1-4.9,2.2h-2.3c-4.9,0-7.3-2.3-7.3-7V191.2c0-4.9,2.4-7.3,7.3-7.3h2.3a7,7,0,0,1,4.9,2.3,6.79,6.79,0,0,1,2.3,4.9Z" transform="translate(-242.3 -163.6)"/><path class="cls-1" d="M1081,245a8.08,8.08,0,0,1-2,5.2,5.63,5.63,0,0,1-4.6,2.3h-13.8v96.7a7.4,7.4,0,0,1-1.9,4.9,5.63,5.63,0,0,1-4.6,2.3h-3.6a6.06,6.06,0,0,1-4.8-2.2,7.63,7.63,0,0,1-2-5.1l-.3-96.7h-13.5a6.07,6.07,0,0,1-4.6-2.3,8.08,8.08,0,0,1-2-5.2v-4.4c0-4.9,2.2-7.3,6.5-7.3h13.5V204.1c0-4.9,2.2-7.3,6.5-7.3h4.2a6.07,6.07,0,0,1,4.6,2.3,7.59,7.59,0,0,1,1.9,4.9v29.1h13.8c4.3,0,6.5,2.4,6.5,7.3V245Z" transform="translate(-242.3 -163.6)"/><path class="cls-1" d="M1217.3,349.3a7.28,7.28,0,0,1-2.1,5.1,6.41,6.41,0,0,1-4.9,2.2h-4.7c-4.5,0-6.8-2.4-6.8-7.3V272.1c0-9.5-2.8-16.9-8.5-22.2s-13.3-7.9-23-7.9c-11.6,0-20.7,3.9-27.2,11.6s-9.8,17.7-9.8,30v65.8a7.28,7.28,0,0,1-2.1,5.1,6.41,6.41,0,0,1-4.9,2.2h-4.9c-4.7,0-7-2.4-7-7.3V187.6c0-4.9,2.3-7.3,7-7.3h4.9a6.26,6.26,0,0,1,4.9,2.2,7.28,7.28,0,0,1,2.1,5.1v48.6a42.64,42.64,0,0,1,4.9-4.2,1.9,1.9,0,0,1,1.3-.5,54.63,54.63,0,0,1,30.7-8.8c14,0,25.7,3.9,34.8,11.7l-.3-.3c10.2,8.2,15.3,20.1,15.3,35.9v79.3Z" transform="translate(-242.3 -163.6)"/><path class="cls-1" d="M1439.6,349.3a7.09,7.09,0,0,1-2.3,5.1,7.36,7.36,0,0,1-5.2,2.2h-4.9c-4.9,0-7.3-2.4-7.3-7.3V224.2l-62.7,128.5c-1.2,2.6-3.4,3.9-6.5,3.9h-5.5a6.25,6.25,0,0,1-6.2-3.9l-62.7-128.5V349.3a7.09,7.09,0,0,1-2.3,5.1,7.36,7.36,0,0,1-5.2,2.2h-4.9c-4.9,0-7.3-2.4-7.3-7.3V187.6c0-4.9,2.4-7.3,7.3-7.3h8.1a6.34,6.34,0,0,1,6.2,3.9l69.9,143.5,69.7-143.5a7.26,7.26,0,0,1,6.5-3.9h7.8a7.36,7.36,0,0,1,5.2,2.2,6.72,6.72,0,0,1,2.3,5.1Z" transform="translate(-242.3 -163.6)"/><path class="cls-1" d="M1593.6,349.6c0,4.7-2.3,7-7,7h-4.9c-4.7,0-7-2.3-7-7V342c-10.6,11.3-24.9,16.9-42.9,16.9q-28.65,0-45-19.2-15.3-18-15.3-46.8t15.9-47.1q17.4-19.8,45.2-19.8c17.5,0,31.5,5.6,42.1,16.9v-9.1a7.28,7.28,0,0,1,2.1-5.1,6.41,6.41,0,0,1,4.9-2.2h4.9c4.7,0,7,2.4,7,7.3V349.6Zm-19-56.7c0-14.7-3.5-26.2-10.4-34.3-7.3-9-18.1-13.5-32.5-13.5-13.2,0-23.5,4.8-30.9,14.3-6.9,8.8-10.4,20-10.4,33.5,0,13.7,3.1,24.7,9.4,33a7.57,7.57,0,0,1,1.3,1c7.3,9,17.5,13.5,30.7,13.5s23.6-4.5,31.3-13.4S1574.6,306.8,1574.6,292.9Z" transform="translate(-242.3 -163.6)"/><path class="cls-1" d="M1755.6,290.6q0,30.15-14.3,47.3a2.68,2.68,0,0,1-.8,1.6c-10.6,13.4-25.8,20-45.8,20-17.3,0-31.4-5.7-42.1-17.2v46.8c0,5-2.3,7.5-7,7.5h-4.7c-4.7,0-7-2.5-7-7.5v-156c0-4.9,2.3-7.3,7-7.3h4.7c4.7,0,7,2.4,7,7.3v7c10.7-11.4,24.8-17.2,42.1-17.2,19.1,0,34.1,6.5,45.2,19.5C1750.4,254.6,1755.6,270.6,1755.6,290.6Zm-19,.2c0-13.9-3.2-25.2-9.6-34.1-7.3-9.7-17.7-14.6-31.2-14.6-13.7,0-24.3,4.5-31.9,13.4s-11.3,20.4-11.3,34.5q0,50.25,42.9,50.2,19.5,0,30.3-13.8C1733,317.3,1736.6,305.4,1736.6,290.8Z" transform="translate(-242.3 -163.6)"/><path class="cls-2" d="M431.3,186.9a6.66,6.66,0,0,0-1.6-4.5,6.74,6.74,0,0,0-4.8-2H248.3a7.82,7.82,0,0,0-4.3,2.1,6.9,6.9,0,0,0-1.7,4.3V356.5H425a9.71,9.71,0,0,0,4.8-2.3,7,7,0,0,0,1.7-3.9Z" transform="translate(-242.3 -163.6)"/><path class="cls-3" d="M429.8,182.4a6.74,6.74,0,0,0-4.8-2H248.4a7.5,7.5,0,0,0-4.4,2,6.9,6.9,0,0,0-1.7,4.3V354.5c1-1.2,2-2.5,3.2-3.9q2.25-2.55,5.1-5.4a86.43,86.43,0,0,1,13.9-11A67.76,67.76,0,0,1,284,326l2.8-.6c.9-.1,1.9-.3,2.9-.4l2.9-.3a24.58,24.58,0,0,1,2.8-.2,115.87,115.87,0,0,1,11.8-.1,102,102,0,0,1,12.1,1.4c4,.7,8,1.6,11.9,2.5a98.39,98.39,0,0,0,11.6,2.2,49.17,49.17,0,0,0,11.5.2,42.79,42.79,0,0,0,21-7.9,50.41,50.41,0,0,0,14.5-16.7,61.76,61.76,0,0,0,4.3-9.9c.5-1.7,1-3.4,1.4-5,.2-.8.4-1.7.6-2.5s.3-1.7.5-2.6a90.92,90.92,0,0,1,6-19.5,53.09,53.09,0,0,1,9.4-14.7,32.52,32.52,0,0,1,11.2-8,27.66,27.66,0,0,1,8.3-2.2V186.8A7.89,7.89,0,0,0,429.8,182.4Z" transform="translate(-242.3 -163.6)"/><path class="cls-4" d="M424.9,248a27.65,27.65,0,0,0-9.5,7.1,49.2,49.2,0,0,0-8.3,13.6,85.68,85.68,0,0,0-5.3,18.5c-.2.9-.3,1.7-.5,2.6a26.14,26.14,0,0,1-.6,2.7,56.18,56.18,0,0,1-1.5,5.5,60.22,60.22,0,0,1-20.4,29.9,50.67,50.67,0,0,1-5.4,3.6,53.86,53.86,0,0,1-5.9,2.9,42.1,42.1,0,0,1-6.3,2c-.5.1-1.1.3-1.6.4a9,9,0,0,1-1.6.3l-1.6.3-1.6.2a56.52,56.52,0,0,1-13,0c-4.3-.5-8.4-1.3-12.3-2.1s-7.8-1.6-11.6-2.2a86.25,86.25,0,0,0-11.2-1,96,96,0,0,0-10.8.3l-2.7.3-2.5.3c-.8.1-1.6.3-2.4.4l-2.4.6a57.27,57.27,0,0,0-16.8,7.5,70,70,0,0,0-12.1,10,57.12,57.12,0,0,0-4.2,4.7H425a9.71,9.71,0,0,0,4.8-2.3,7,7,0,0,0,1.7-3.9l-.1-104.1A18.41,18.41,0,0,0,424.9,248Z" transform="translate(-242.3 -163.6)"/><path class="cls-5" d="M336.5,163.6a55.89,55.89,0,0,0-17.1,109.1c9.3,11.8,17.2,20.2,17.2,20.2s7.9-8.4,17.2-20.2a55.89,55.89,0,0,0-17.3-109.1Zm0,93.9a37.9,37.9,0,1,1,37.9-37.9A37.94,37.94,0,0,1,336.5,257.5Z" transform="translate(-242.3 -163.6)"/><path class="cls-2" d="M336.5,181.6a37.9,37.9,0,1,0,37.9,37.9A37.94,37.94,0,0,0,336.5,181.6Zm22.9,40.8a3.33,3.33,0,0,1-3.3,3.3H342.6v13.1a3.33,3.33,0,0,1-3.3,3.3h-5a3.33,3.33,0,0,1-3.3-3.3V225.7H317.5a3.33,3.33,0,0,1-3.3-3.3v-5.1a3.33,3.33,0,0,1,3.3-3.3H331V200.1a3.33,3.33,0,0,1,3.3-3.3h5a3.33,3.33,0,0,1,3.3,3.3V214h13.5a3.33,3.33,0,0,1,3.3,3.3v5.1Z" transform="translate(-242.3 -163.6)"/><path class="cls-5" d="M356.1,214.1H342.6V200.2a3.33,3.33,0,0,0-3.3-3.3h-5a3.33,3.33,0,0,0-3.3,3.3v13.9H317.5a3.33,3.33,0,0,0-3.3,3.3v5.1a3.33,3.33,0,0,0,3.3,3.3H331v13.1a3.33,3.33,0,0,0,3.3,3.3h5a3.33,3.33,0,0,0,3.3-3.3V225.8h13.5a3.33,3.33,0,0,0,3.3-3.3v-5.1a3.33,3.33,0,0,0-3.3-3.3" transform="translate(-242.3 -163.6)"/></svg>
