<?xml version="1.0" encoding="utf-8"?>
<!-- Generator: Adobe Illustrator 22.1.0, SVG Export Plug-In . SVG Version: 6.00 Build 0)  -->
<svg version="1.1" id="Layer_1" xmlns="http://www.w3.org/2000/svg" xmlns:xlink="http://www.w3.org/1999/xlink" x="0px" y="0px"
	 viewBox="0 0 1024 1024" style="enable-background:new 0 0 1024 1024;" xml:space="preserve">
<path fill="#ffffff" d="M823.1,512.3c0,12.2-4.6,24.3-13.9,33.6l-41.6,41.6c-0.3,0.3-0.6,0.5-0.9,0.8l-441.1,419.8
	c-18.5,18.5-48.6,18.5-67.1,0l-41.6-41.6c-18.5-18.5-18.5-48.6,0-67.1l408.4-387.1L216.7,125.2c-18.5-18.5-18.5-48.6,0-67.1
	l41.6-41.6c18.5-18.5,48.6-18.5,67.1,0l441.1,419.8c0.3,0.3,0.6,0.5,0.9,0.8l41.6,41.6C818.5,487.9,823.1,500.1,823.1,512.3z"/>
</svg>
