<?xml version="1.0" encoding="utf-8"?>
<!-- Generator: Adobe Illustrator 22.1.0, SVG Export Plug-In . SVG Version: 6.00 Build 0)  -->
<svg version="1.1" id="Layer_1" xmlns="http://www.w3.org/2000/svg" xmlns:xlink="http://www.w3.org/1999/xlink" x="0px" y="0px"
	 viewBox="0 0 1024 1024" style="enable-background:new 0 0 1024 1024;" xml:space="preserve">
<path fill="#ffffff" d="M202.8,512.2c0-12.2,4.6-24.3,13.9-33.6l41.6-41.6c0.3-0.3,0.6-0.5,0.9-0.8L700.4,16.4
	c18.5-18.5,48.6-18.5,67.1,0L809.2,58c18.5,18.5,18.5,48.6,0,67.1L400.8,512.2l408.4,387.1c18.5,18.5,18.5,48.6,0,67.1l-41.6,41.6
	c-18.5,18.5-48.6,18.5-67.1,0L259.3,588.3c-0.3-0.3-0.6-0.5-0.9-0.8l-41.6-41.6C207.5,536.6,202.8,524.4,202.8,512.2z"/>
</svg>
