<?xml version="1.0" encoding="utf-8"?>
<!-- Generator: Adobe Illustrator 16.0.4, SVG Export Plug-In . SVG Version: 6.00 Build 0)  -->
<!DOCTYPE svg PUBLIC "-//W3C//DTD SVG 1.1//EN" "http://www.w3.org/Graphics/SVG/1.1/DTD/svg11.dtd">
<svg version="1.1" id="Layer_1" xmlns="http://www.w3.org/2000/svg" xmlns:xlink="http://www.w3.org/1999/xlink" x="0px" y="0px"
	 width="1024px" height="1024px" viewBox="0 0 1024 1024" enable-background="new 0 0 1024 1024" xml:space="preserve">
<path fill="#999999" d="M993.574,902.348L603.226,512l390.349-390.349c9.762-9.763,9.762-25.592,0-35.355l-55.871-55.87
	c-9.764-9.764-25.592-9.763-35.355,0L512,420.774L121.651,30.426c-9.763-9.763-25.592-9.763-35.355,0l-55.87,55.87
	c-9.763,9.763-9.763,25.592,0,35.355L420.774,512L30.427,902.348c-9.763,9.764-9.763,25.593,0,35.355l55.87,55.871
	c9.763,9.763,25.592,9.763,35.355,0L512,603.226l390.349,390.349c9.763,9.762,25.592,9.762,35.355,0l55.87-55.871
	C1003.338,927.939,1003.337,912.111,993.574,902.348z"/>
</svg>
