<?xml version="1.0" encoding="utf-8"?>
<!-- Generator: Adobe Illustrator 16.0.4, SVG Export Plug-In . SVG Version: 6.00 Build 0)  -->
<!DOCTYPE svg PUBLIC "-//W3C//DTD SVG 1.1//EN" "http://www.w3.org/Graphics/SVG/1.1/DTD/svg11.dtd">
<svg version="1.1" id="Layer_1" xmlns="http://www.w3.org/2000/svg" xmlns:xlink="http://www.w3.org/1999/xlink" x="0px" y="0px"
	 width="60px" height="60px" viewBox="0 0 60 60" enable-background="new 0 0 60 60" xml:space="preserve">
<path fill="#53A7B2" d="M59.064,35.666c0,1.657-1.342,3-3,3H3.935c-1.656,0-3-1.343-3-3V24.334c0-1.657,1.344-3,3-3h52.131
	c1.656,0,3,1.343,3,3v11.332H59.064z"/>
<path fill="#FFFFFF" d="M59.064,15.332c0,1.657-1.342,3-3,3H3.935c-1.656,0-3-1.343-3-3V4c0-1.657,1.344-3,3-3h52.131
	c1.656,0,3,1.343,3,3v11.332H59.064z"/>
<path fill="#FFFFFF" d="M59.064,56c0,1.657-1.342,3-3,3H3.935c-1.656,0-3-1.343-3-3V44.668c0-1.657,1.344-3,3-3h52.131
	c1.656,0,3,1.343,3,3V56H59.064z"/>
<path fill="#FFFFFF" d="M23.018,42.833c0,0,0.093-7.162,0-10.74c-0.022-0.843-0.436-1.814-0.94-2.491
	c-4.489-6.029-9.896-12.875-14.461-18.847C6.914,9.834,6.573,9.883,7.505,8.953c12.517,0,32.478,0,44.995,0
	c0.883,0.865,0.626,0.9-0.062,1.802c-4.59,6.019-10.014,12.78-14.521,18.861c-0.502,0.676-0.826,1.653-0.836,2.497
	c-0.069,5.986,0.06,22.275,0,22.934c-0.104,0-0.422,0-0.526,0C34.277,52.775,23.018,42.833,23.018,42.833z"/>
<path fill="#666666" d="M25.712,40.616c0,0,0.08-6.165,0-9.245c-0.019-0.727-0.375-1.562-0.809-2.145
	c-3.864-5.189-8.518-11.082-12.448-16.223c-0.605-0.793-0.898-0.75-0.097-1.551c10.774,0,24.512,0,35.287,0
	c0.76,0.745,0.539,0.774-0.053,1.551c-3.951,5.181-8.619,11.001-12.5,16.235c-0.432,0.582-0.711,1.424-0.719,2.149
	c-0.061,5.153,0.051,16.594,0,17.158c-0.09,0-0.363,0-0.453,0C31.96,46.592,25.712,40.616,25.712,40.616z"/>
</svg>
