<?xml version="1.0" encoding="utf-8"?>
<!-- Generator: Adobe Illustrator 24.0.3, SVG Export Plug-In . SVG Version: 6.00 Build 0)  -->
<svg version="1.1" id="Layer_1" xmlns="http://www.w3.org/2000/svg" xmlns:xlink="http://www.w3.org/1999/xlink" x="0px" y="0px"
	 viewBox="0 0 1908.1 532" style="enable-background:new 0 0 1908.1 532;" xml:space="preserve">
<style type="text/css">
	.st0{fill:#4C779C;}
	.st1{fill:#FFFFFF;}
	.st2{fill:#8DAF49;}
	.st3{fill:#68BDC6;}
	.st4{fill:#DE2D36;}
</style>
<g>
	<path class="st0" d="M639.3,349.3c0,1.9-0.7,3.6-2.1,5.1c-1.4,1.5-3,2.2-4.9,2.2h-4.9c-4.9,0-7.3-2.4-7.3-7.3v-74.9H511.6v74.9
		c0,1.9-0.7,3.6-2.2,5.1c-1.5,1.5-3.2,2.2-5.1,2.2h-4.9c-1.9,0-3.6-0.7-5.1-2.2c-1.5-1.5-2.2-3.2-2.2-5.1V187.6
		c0-1.9,0.7-3.6,2.2-5.1c1.5-1.5,3.2-2.2,5.1-2.2h4.9c1.9,0,3.6,0.7,5.1,2.2c1.5,1.5,2.2,3.2,2.2,5.1v67.9H620v-67.9
		c0-4.9,2.4-7.3,7.3-7.3h4.9c1.9,0,3.6,0.7,4.9,2.2c1.4,1.5,2.1,3.2,2.1,5.1V349.3z"/>
	<path class="st0" d="M794.2,293.4c0,4.9-2.4,7.3-7.3,7.3l-97.5,0.3c2.1,26.4,16.2,39.5,42.4,39.5c8.7,0,16.6-2.1,23.7-6.2
		c7.8-4.3,13.1-10.4,15.9-18.2l-0.3,0.5c0.9-3.6,3.1-5.5,6.8-5.5h4.9c4.9,0,7.3,2.4,7.3,7.3v1c-8.1,26.4-27.7,39.5-58.8,39.5
		c-20.3,0-35.5-6-45.8-17.9c-10.2-12-15.3-28-15.3-48.1c0-19.2,5.5-35,16.6-47.3c11.8-13,27-19.5,45.5-19.5c18.7,0,33.7,5.6,45,16.9
		c11.3,11.3,16.9,26.4,16.9,45.2V293.4z M773.7,282.2c-1.4-10.2-5-18.6-10.9-25.2c-7.1-8-17.3-12-30.4-12c-11.6,0-21.2,3.3-28.7,10
		c-7.5,6.7-12.2,15.7-13.9,27.2H773.7z"/>
	<path class="st0" d="M939.8,349.6c0,4.7-2.3,7-7,7h-4.9c-4.7,0-7-2.3-7-7V342c-10.6,11.3-24.9,16.9-42.9,16.9
		c-19.1,0-34.1-6.4-45-19.2c-10.2-12-15.3-27.6-15.3-46.8c0-19.2,5.3-34.9,15.9-47.1c11.6-13.2,26.7-19.8,45.2-19.8
		c17.5,0,31.5,5.6,42.1,16.9v-9.1c0-1.9,0.7-3.6,2.1-5.1c1.4-1.5,3-2.2,4.9-2.2h4.9c4.7,0,7,2.4,7,7.3V349.6z M920.9,292.9
		c0-14.7-3.5-26.2-10.4-34.3c-7.3-9-18.1-13.5-32.5-13.5c-13.2,0-23.5,4.8-30.9,14.3c-6.9,8.8-10.4,20-10.4,33.5
		c0,13.7,3.1,24.7,9.4,33c0.3,0.2,0.8,0.5,1.3,1c7.3,9,17.5,13.5,30.7,13.5c13.2,0,23.6-4.5,31.3-13.4
		C917,318.2,920.9,306.8,920.9,292.9z"/>
	<path class="st0" d="M992.4,348.3c0,1.7-0.8,3.3-2.3,4.8c-1.6,1.5-3.2,2.2-4.9,2.2h-2.3c-4.9,0-7.3-2.3-7.3-7V191.2
		c0-4.9,2.4-7.3,7.3-7.3h2.3c1.7,0,3.4,0.8,4.9,2.3c1.6,1.6,2.3,3.2,2.3,4.9V348.3z"/>
	<path class="st0" d="M1081,245c0,1.9-0.7,3.6-2,5.2c-1.3,1.6-2.8,2.3-4.6,2.3h-13.8v96.7c0,1.7-0.6,3.4-1.9,4.9
		c-1.3,1.6-2.8,2.3-4.6,2.3h-3.6c-1.9,0-3.5-0.7-4.8-2.2c-1.3-1.5-2-3.2-2-5.1l-0.3-96.7h-13.5c-1.7,0-3.3-0.8-4.6-2.3
		c-1.3-1.6-2-3.3-2-5.2v-4.4c0-4.9,2.2-7.3,6.5-7.3h13.5v-29.1c0-4.9,2.2-7.3,6.5-7.3h4.2c1.7,0,3.3,0.8,4.6,2.3
		c1.3,1.6,1.9,3.2,1.9,4.9v29.1h13.8c4.3,0,6.5,2.4,6.5,7.3V245z"/>
	<path class="st0" d="M1217.3,349.3c0,1.9-0.7,3.6-2.1,5.1c-1.4,1.5-3,2.2-4.9,2.2h-4.7c-4.5,0-6.8-2.4-6.8-7.3v-77.2
		c0-9.5-2.8-16.9-8.5-22.2c-5.6-5.3-13.3-7.9-23-7.9c-11.6,0-20.7,3.9-27.2,11.6c-6.5,7.7-9.8,17.7-9.8,30v65.8
		c0,1.9-0.7,3.6-2.1,5.1c-1.4,1.5-3,2.2-4.9,2.2h-4.9c-4.7,0-7-2.4-7-7.3V187.6c0-4.9,2.3-7.3,7-7.3h4.9c1.9,0,3.6,0.7,4.9,2.2
		c1.4,1.5,2.1,3.2,2.1,5.1v48.6c1.4-1.4,3-2.8,4.9-4.2c0.3-0.3,0.8-0.5,1.3-0.5c9-5.9,19.2-8.8,30.7-8.8c14,0,25.7,3.9,34.8,11.7
		l-0.3-0.3c10.2,8.2,15.3,20.1,15.3,35.9V349.3z"/>
	<path class="st0" d="M1439.6,349.3c0,1.9-0.8,3.6-2.3,5.1c-1.6,1.5-3.3,2.2-5.2,2.2h-4.9c-4.9,0-7.3-2.4-7.3-7.3V224.2l-62.7,128.5
		c-1.2,2.6-3.4,3.9-6.5,3.9h-5.5c-3,0-5-1.3-6.2-3.9l-62.7-128.5v125.1c0,1.9-0.8,3.6-2.3,5.1c-1.6,1.5-3.3,2.2-5.2,2.2h-4.9
		c-4.9,0-7.3-2.4-7.3-7.3V187.6c0-4.9,2.4-7.3,7.3-7.3h8.1c2.9,0,5,1.3,6.2,3.9l69.9,143.5l69.7-143.5c1.6-2.6,3.7-3.9,6.5-3.9h7.8
		c1.9,0,3.6,0.7,5.2,2.2c1.6,1.5,2.3,3.2,2.3,5.1V349.3z"/>
	<path class="st0" d="M1593.6,349.6c0,4.7-2.3,7-7,7h-4.9c-4.7,0-7-2.3-7-7V342c-10.6,11.3-24.9,16.9-42.9,16.9
		c-19.1,0-34.1-6.4-45-19.2c-10.2-12-15.3-27.6-15.3-46.8c0-19.2,5.3-34.9,15.9-47.1c11.6-13.2,26.7-19.8,45.2-19.8
		c17.5,0,31.5,5.6,42.1,16.9v-9.1c0-1.9,0.7-3.6,2.1-5.1c1.4-1.5,3-2.2,4.9-2.2h4.9c4.7,0,7,2.4,7,7.3V349.6z M1574.6,292.9
		c0-14.7-3.5-26.2-10.4-34.3c-7.3-9-18.1-13.5-32.5-13.5c-13.2,0-23.5,4.8-30.9,14.3c-6.9,8.8-10.4,20-10.4,33.5
		c0,13.7,3.1,24.7,9.4,33c0.3,0.2,0.8,0.5,1.3,1c7.3,9,17.5,13.5,30.7,13.5c13.2,0,23.6-4.5,31.3-13.4
		C1570.7,318.2,1574.6,306.8,1574.6,292.9z"/>
	<path class="st0" d="M1755.6,290.6c0,20.1-4.8,35.9-14.3,47.3c0,0.5-0.3,1-0.8,1.6c-10.6,13.4-25.8,20-45.8,20
		c-17.3,0-31.4-5.7-42.1-17.2v46.8c0,5-2.3,7.5-7,7.5h-4.7c-4.7,0-7-2.5-7-7.5v-156c0-4.9,2.3-7.3,7-7.3h4.7c4.7,0,7,2.4,7,7.3v7
		c10.7-11.4,24.8-17.2,42.1-17.2c19.1,0,34.1,6.5,45.2,19.5C1750.4,254.6,1755.6,270.6,1755.6,290.6z M1736.6,290.8
		c0-13.9-3.2-25.2-9.6-34.1c-7.3-9.7-17.7-14.6-31.2-14.6c-13.7,0-24.3,4.5-31.9,13.4c-7.5,8.9-11.3,20.4-11.3,34.5
		c0,33.5,14.3,50.2,42.9,50.2c13,0,23.1-4.6,30.3-13.8C1733,317.3,1736.6,305.4,1736.6,290.8z"/>
</g>
<g>
	<path class="st1" d="M431.3,186.9c0,0,0.2-2.4-1.6-4.5c-1.9-2.1-4.8-2-4.8-2H248.3c0,0-2.6,0.3-4.3,2.1c-1.7,1.8-1.7,4.3-1.7,4.3
		v169.7l10.5,0l172.2,0c0,0,3.1-0.5,4.8-2.3c1.6-1.8,1.7-3.9,1.7-3.9L431.3,186.9z"/>
	<g>
		<g>
			<g>
				<path class="st2" d="M429.8,182.4c-1.9-2.1-4.8-2-4.8-2H248.4c0,0-2.7,0.2-4.4,2c-1.7,1.8-1.7,4.3-1.7,4.3v167.8
					c1-1.2,2-2.5,3.2-3.9c1.5-1.7,3.2-3.5,5.1-5.4c3.8-3.7,8.4-7.5,13.9-11c5.5-3.4,12.1-6.4,19.5-8.2c0.9-0.2,1.9-0.4,2.8-0.6
					c0.9-0.1,1.9-0.3,2.9-0.4c1-0.1,1.9-0.2,2.9-0.3c0.9-0.1,1.8-0.2,2.8-0.2c3.9-0.2,7.8-0.3,11.8-0.1c4,0.2,8,0.7,12.1,1.4
					c4,0.7,8,1.6,11.9,2.5c3.9,0.9,7.8,1.8,11.6,2.2c3.8,0.5,7.7,0.6,11.5,0.2c7.6-0.7,14.9-3.5,21-7.9c6.1-4.4,11-10.3,14.5-16.7
					c1.7-3.2,3.2-6.5,4.3-9.9c0.5-1.7,1-3.4,1.4-5c0.2-0.8,0.4-1.7,0.6-2.5c0.2-0.9,0.3-1.7,0.5-2.6c1.4-7.1,3.4-13.7,6-19.5
					c2.6-5.8,5.8-10.9,9.4-14.7c3.6-3.9,7.6-6.5,11.2-8c3.6-1.5,6.2-2,8.3-2.2v-54.9C431.4,186.9,431.6,184.5,429.8,182.4z"/>
				<path class="st3" d="M424.9,248c-3,1.3-6.4,3.6-9.5,7.1c-3.1,3.5-6,8.1-8.3,13.6c-2.3,5.4-4.1,11.7-5.3,18.5
					c-0.2,0.9-0.3,1.7-0.5,2.6c-0.2,0.9-0.3,1.8-0.6,2.7c-0.4,1.8-0.9,3.7-1.5,5.5c-1.1,3.7-2.6,7.4-4.5,10.9
					c-3.7,7.1-9.1,13.9-15.9,19c-1.7,1.3-3.5,2.5-5.4,3.6c-1.9,1.1-3.8,2-5.9,2.9c-2,0.8-4.1,1.5-6.3,2c-0.5,0.1-1.1,0.3-1.6,0.4
					c-0.5,0.1-1.1,0.3-1.6,0.3l-1.6,0.3l-1.6,0.2c-4.3,0.5-8.7,0.5-13,0c-4.3-0.5-8.4-1.3-12.3-2.1c-4-0.8-7.8-1.6-11.6-2.2
					c-3.8-0.6-7.5-0.9-11.2-1c-3.7-0.1-7.3,0-10.8,0.3c-0.9,0.1-1.8,0.2-2.7,0.3c-0.8,0.1-1.7,0.2-2.5,0.3c-0.8,0.1-1.6,0.3-2.4,0.4
					c-0.8,0.2-1.6,0.4-2.4,0.6c-6.3,1.6-12,4.4-16.8,7.5c-4.8,3.1-8.9,6.7-12.1,10c-1.6,1.6-3,3.2-4.2,4.7l172.2,0
					c0,0,3.1-0.5,4.8-2.3c1.6-1.8,1.7-3.9,1.7-3.9l-0.1-104.1C429.6,246.3,427.9,246.6,424.9,248z"/>
			</g>
		</g>
		<g>
			<g>
				<path class="st4" d="M336.5,163.6c-30.9,0-55.9,25-55.9,55.9c0,24.9,16.3,46,38.8,53.2c9.3,11.8,17.2,20.2,17.2,20.2
					s7.9-8.4,17.2-20.2c22.5-7.2,38.8-28.3,38.8-53.2C392.4,188.7,367.4,163.6,336.5,163.6z M336.5,257.5c-20.9,0-37.9-17-37.9-37.9
					c0-20.9,17-37.9,37.9-37.9c20.9,0,37.9,17,37.9,37.9C374.4,240.5,357.5,257.5,336.5,257.5z"/>
				<path class="st1" d="M336.5,181.6c-20.9,0-37.9,17-37.9,37.9c0,20.9,17,37.9,37.9,37.9c20.9,0,37.9-17,37.9-37.9
					C374.4,198.6,357.5,181.6,336.5,181.6z M359.4,222.4c0,1.8-1.5,3.3-3.3,3.3h-13.5v13.1c0,1.8-1.5,3.3-3.3,3.3h-2.5h-2.5
					c-1.8,0-3.3-1.5-3.3-3.3v-13.1h-13.5c-1.8,0-3.3-1.5-3.3-3.3v-5.1c0-1.8,1.5-3.3,3.3-3.3H331v-13.9c0-1.8,1.5-3.3,3.3-3.3h2.5
					h2.5c1.8,0,3.3,1.5,3.3,3.3v13.9h13.5c1.8,0,3.3,1.5,3.3,3.3V222.4z"/>
			</g>
			<path class="st4" d="M356.1,214.1h-13.5v-13.9c0-1.8-1.5-3.3-3.3-3.3h-2.5h-2.5c-1.8,0-3.3,1.5-3.3,3.3v13.9h-13.5
				c-1.8,0-3.3,1.5-3.3,3.3v5.1c0,1.8,1.5,3.3,3.3,3.3H331v13.1c0,1.8,1.5,3.3,3.3,3.3h2.5h2.5c1.8,0,3.3-1.5,3.3-3.3v-13.1h13.5
				c1.8,0,3.3-1.5,3.3-3.3v-5.1C359.4,215.6,357.9,214.1,356.1,214.1"/>
		</g>
	</g>
</g>
</svg>
