<?xml version="1.0" encoding="utf-8"?>
<!-- Generator: Adobe Illustrator 24.0.3, SVG Export Plug-In . SVG Version: 6.00 Build 0)  -->
<svg version="1.1" id="Layer_1" xmlns="http://www.w3.org/2000/svg" xmlns:xlink="http://www.w3.org/1999/xlink" x="0px" y="0px"
	 viewBox="0 0 792 184.2" style="enable-background:new 0 0 792 184.2;" xml:space="preserve">
<style type="text/css">
	.st0{fill:#FFFFFF;}
</style>
<g>
	<path class="st0" d="M566,52.3v1.3c-6,0.5-6,3.5-6,8.4v11.2c0,5.3,0,7.9-1.7,10.7c-2.1,3.8-6.9,6.9-14.1,6.9
		c-8.3,0-11.9-3.6-13.6-6c-2-3-2-5.8-2-12.6V62.3c0-8.1,0-8.8-5.5-8.8h-0.8v-1.2h17.4v1.3c-6,0-6.1,0-6.1,8.6v10.6
		c0,5.8,0,8.9,1.5,11.6c1.3,2.3,4.8,4.8,10.4,4.8c3.8,0,8.6-1.3,11.2-5.5c1.7-2.6,1.7-5.5,1.7-10.4V61.8c0-4.8,0-7.4-6.1-7.9v-1.5
		H566z M572.7,65.2c0.5,1.3,0.7,3.8,0.8,5c3.1-3.5,5.8-5,9.3-5c5.6,0,7.6,3.8,7.6,7.9v8.9c0,6.6,0,6.9,4,6.9v1.3h-12.4V89
		c4.1,0,4.1-0.3,4.1-6.9v-7.8c0-5.5-2-7.3-5-7.3c-3.5,0-5.6,3-7.8,5.1v9.9c0,6.6,0,6.9,4,6.9v1.3H565V89c4,0,4-0.3,4-6.9V75
		c0-6.6,0-6.9-4-6.9v-1.3c2.5-0.3,5.6-1,6.6-1.3h1V65.2z M605.4,84.6c0,3.8,0.3,4.6,3.3,4.6h0.8v1.3h-12.9v-1.3h1
		c3.1,0,3.6-0.5,3.6-4.6v-9.8c0-6.6-0.3-6.6-4.8-6.6v-1.3c1.8,0,5.5-0.8,8.1-1.7h0.7v19.3H605.4z M623.4,91.4L614.8,72
		c-1.7-3.5-2.1-4.3-4.5-4.5v-1.3h10.9v1.3c-1.7,0-3.1,0-3.1,1.5c0,0.2,0,0.7,0.7,2l6.9,15.9l6-13.1c0.8-2,1.3-3.3,1.3-4
		c0-1.8-1.8-2-3-2.1v-1.3h8.1v1.3c-2.5,0.2-3.5,2.5-5.5,6.6l-7.9,17.4h-1.3L623.4,91.4z M643.7,75.5c0,0.5-0.2,1.3-0.2,1.8
		c0,7.6,2.5,12.6,8.3,12.6c3.3,0,6.1-1.5,7.8-4.8h1.3c-1.5,4-5.1,6.4-9.9,6.4c-6.8,0-12.4-5.1-12.4-12.9c0-7.4,5-13.2,12.2-13.2
		c6.8,0,10.3,4.5,10.4,10.3h-17.5V75.5z M643.7,74.3h12.9c0-2.8-0.8-7.6-6.1-7.6C645.9,66.6,644.1,71,643.7,74.3L643.7,74.3z
		 M673,82.1c0,6.1,0,6.9,3.6,6.9h0.8v1.3h-12.9V89c4.1,0,4.1-0.2,4.1-6.9v-6.8c0-6.8,0-6.9-4.1-6.9v-1.3c2.6-0.3,5.8-1.3,6.8-1.7
		l0.5-0.2c0.3,1,0.8,3,0.8,6.3c1.8-4.5,6.3-6.3,9.3-6.3c3.1,0,4.6,2.3,4.6,3.6c0,1.2-0.8,2.1-2,2.1c-1.3,0-2-0.8-2.3-2
		c-0.2-0.7-0.7-1.8-2.1-1.8c-2.5,0-7.1,3-7.1,9.1L673,82.1L673,82.1z M689,83.3h1.2c0.7,3,2.6,6.8,8.3,6.8c5,0,5.6-3.1,5.6-4.3
		c0-3-3.1-4.3-6.9-5.8c-5.6-2-8.1-3.8-8.1-8.1c0-3.1,2.3-6.8,7.8-6.8c2.8,0,5,1.2,6.3,2.5c0.5-0.5,1.2-2,1.2-2.1h1.2v7.4h-1.2
		c-0.5-2.8-3-6.6-7.3-6.6c-4,0-5.3,2-5.3,3.6c0,2.8,2.3,3.8,6.8,5.5c4.8,1.7,8.6,3.6,8.6,8.6c0,4.1-3,7.1-8.4,7.1
		c-3.6,0-5.6-1.3-7.1-2.6c-0.7,0.7-1.2,2-1.3,2.5H689L689,83.3L689,83.3z M719.5,84.6c0,3.8,0.3,4.6,3.3,4.6h0.8v1.3h-12.9v-1.3h1
		c3.1,0,3.6-0.5,3.6-4.6v-9.8c0-6.6-0.3-6.6-4.8-6.6v-1.3c1.8,0,5.5-0.8,8.1-1.7h0.7v19.3H719.5z M733.7,67.6v14.7
		c0,3.3,0,7.1,3.6,7.1c2,0,3.1-1.7,3.6-2.5l0.8,0.5c-1.8,4-5.8,4-6.1,4c-1.7,0-3-0.3-4-1.2c-1.7-1.2-2.3-3.5-2.3-6.9V67.6h-3.5v-1.3
		c2.6-0.2,6-1.8,6.8-7.6h1v7.6h7.3v1.3H733.7L733.7,67.6z M765.1,71.5c0.5-1,0.8-1.8,0.8-2.3c0-1.3-2.1-1.7-3.3-1.7v-1.3h8.4v1.3
		c-3,0.2-3.6,1.7-5.1,5.3l-10.7,26c-1.7,3.8-3,6.4-5.5,6.4c-1,0-1.8-0.7-1.8-1.8c0-2,2-3,3.1-3.5c2-1,2.6-1.3,3.6-3.3l2.3-5.8
		l-9.1-19.3c-1.3-3-1.8-4-4.8-4v-1.3h11.1v1.3c-1.5,0.2-3,0.2-3,1.2c0,0.5,0.7,2,1.2,3l6.6,14.2L765.1,71.5L765.1,71.5z M605.6,57.6
		c0,1.5-1.2,2.6-2.6,2.6c-1.5,0-2.6-1.2-2.6-2.6c0-1.5,1.2-2.6,2.6-2.6C604.2,55,605.6,56.1,605.6,57.6z M719.6,57.6
		c0,1.5-1.2,2.6-2.6,2.6s-2.6-1.2-2.6-2.6c0-1.5,1.2-2.6,2.6-2.6C718.3,55,719.6,56.1,719.6,57.6z"/>
</g>
<path class="st0" d="M203.5,55.6v27.1c0,4,0.8,6.3,6.9,6.4v1.3h-14.9v-1.3c6.6-0.3,6.4-3,6.4-6.4V61.9c0-7.6-0.5-8.3-6-8.3v-1.3H207
	l22.6,30.1v-23c0-3.1-0.5-5.6-6.8-5.8v-1.3h14.5v1.3c-5.8,0.5-6.3,2.6-6.3,6.1v31.4h-0.8L203.5,55.6z M249.8,65.2
	c7.1,0,12.9,5.5,12.9,13.1c0,8.6-6.4,13.1-12.9,13.1c-6.3,0-12.9-4.1-12.9-13.1C236.9,70.9,242.5,65.2,249.8,65.2z M249.8,90
	c5.6,0,8.1-3.8,8.1-11.4c0-6.6-1.8-11.7-8.1-11.7c-6.1,0-7.9,5.1-7.9,11.7C241.7,86.2,244.1,90,249.8,90z M273.4,82.3
	c0,6.1,0,6.9,3.6,6.9h0.8v1.3H265v-1.3c4.1,0,4.1-0.2,4.1-6.9v-6.8c0-6.8,0-6.9-4.1-6.9v-1.3c2.8-0.3,6-1.3,6.8-1.7l0.5-0.2
	c0.3,1,0.8,3,0.8,6.3c1.8-4.5,6.3-6.3,9.3-6.3c3.1,0,4.6,2.3,4.6,3.6c0,1.2-0.8,2.1-2,2.1c-1.3,0-2-0.8-2.3-2
	c-0.2-0.7-0.7-1.8-2.1-1.8c-2.5,0-7.1,3-7.1,9.1C273.4,76.5,273.4,82.3,273.4,82.3z M296.9,67.6v14.7c0,3.3,0,7.1,3.6,7.1
	c2,0,3.1-1.7,3.6-2.5l0.8,0.5c-1.8,4-5.8,4-6.1,4c-1.7,0-3-0.3-4-1.2c-1.7-1.2-2.3-3.5-2.3-6.9V67.6h-3.5v-1.3
	c2.6-0.2,6-1.8,6.8-7.6h1v7.6h7.3v1.3C304.2,67.6,296.9,67.6,296.9,67.6z M332.6,82.3c0,6.6,0,6.9,4.1,6.9v1.3h-12.6v-1.3
	c4.1,0,4.1-0.3,4.1-6.9v-7.8c0-5.6-1.7-7.3-5.3-7.3c-2.8,0-5.5,2.8-7.4,5.3v9.8c0,6.4,0,6.9,3.8,6.9v1.3h-12.2v-1.3
	c4.3,0,4.3-0.2,4.3-6.9V60.1c0-4.3,0-5.6-4-5.6v-1.3c2.5,0,5.8-0.5,7.8-1.3h0.5v18.5c3-3.1,5.6-5,8.8-5c5.5,0,8.1,2.8,8.1,8.4
	C332.6,73.8,332.6,82.3,332.6,82.3z M342.7,75.5c0,0.5-0.2,1.3-0.2,1.8c0,7.8,2.5,12.6,8.3,12.6c3.5,0,6.1-1.5,7.8-4.8h1.3
	c-1.5,4-5.1,6.4-9.9,6.4c-6.8,0-12.4-5.1-12.4-12.9c0-7.4,5-13.2,12.2-13.2c6.8,0,10.3,4.5,10.4,10.3h-17.5V75.5z M342.8,74.3h12.9
	c0-2.8-0.8-7.6-6.1-7.6C345,66.6,343.2,71,342.8,74.3z M391.5,83.3h1.2c0.7,3,2.6,6.8,8.3,6.8c5,0,5.6-3.1,5.6-4.3
	c0-3-3.1-4.3-6.9-5.8c-5.6-2-8.1-3.8-8.1-8.1c0-3.1,2.3-6.8,7.8-6.8c2.8,0,5,1.2,6.3,2.5c0.5-0.5,1.2-2,1.2-2.1h1.2v7.4h-1.2
	c-0.5-2.8-3-6.6-7.3-6.6c-4,0-5.3,2-5.3,3.6c0,2.8,2.3,3.8,6.8,5.5c4.8,1.7,8.6,3.6,8.6,8.6c0,4.1-3,7.1-8.4,7.1
	c-3.6,0-5.6-1.3-7.1-2.6c-0.7,0.7-1.2,2-1.3,2.5h-1.2V83.3z M420.6,67.6v14.7c0,3.3,0,7.1,3.6,7.1c2,0,3.1-1.7,3.6-2.5l0.8,0.5
	c-1.8,4-5.8,4-6.1,4c-1.7,0-3-0.3-4-1.2c-1.7-1.2-2.3-3.5-2.3-6.9V67.6h-3.5v-1.3c2.6-0.2,5.8-1.8,6.8-7.6h1v7.6h7.3v1.3H420.6z
	 M435.1,75.5c0,0.5-0.2,1.3-0.2,1.8c0,7.8,2.5,12.6,8.3,12.6c3.3,0,6.1-1.5,7.8-4.8h1.3c-1.5,4-5.1,6.4-9.9,6.4
	c-6.8,0-12.4-5.1-12.4-12.9c0-7.4,5-13.2,12.2-13.2c6.8,0,10.3,4.5,10.4,10.3h-17.5V75.5z M435.3,74.3h12.9c0-2.8-0.8-7.6-6.1-7.6
	C437.4,66.6,435.6,71,435.3,74.3z M463.7,82.3c0,6.1,0,6.9,3.6,6.9h0.8v1.3h-12.9v-1.3c4.1,0,4.1-0.2,4.1-6.9v-6.8
	c0-6.8,0-6.9-4.1-6.9v-1.3c2.6-0.3,5.8-1.3,6.8-1.7l0.5-0.2c0.3,1,0.8,3,0.8,6.3c1.8-4.5,6.3-6.3,9.3-6.3c3.1,0,4.6,2.3,4.6,3.6
	c0,1.2-0.8,2.1-2,2.1c-1.3,0-2-0.8-2.3-2c-0.2-0.7-0.7-1.8-2.1-1.8c-2.5,0-7.1,3-7.1,9.1L463.7,82.3L463.7,82.3z M487,65.2
	c0.5,1.3,0.7,3.8,0.8,5c3.1-3.5,5.8-5,9.3-5c5.6,0,7.6,3.8,7.6,7.9v8.9c0,6.6,0,6.9,4,6.9v1.3h-12.4V89c4.1,0,4.1-0.3,4.1-6.9v-7.8
	c0-5.5-2-7.3-5-7.3c-3.5,0-5.6,3-7.8,5.3v9.9c0,6.6,0,6.9,4,6.9v1.3h-12.2v-1.3c4,0,4-0.3,4-6.9V75c0-6.6,0-6.9-4-6.9v-1.3
	c2.5-0.3,5.6-1,6.6-1.3h1L487,65.2z M387.8,86.1c-0.5,2.8-1.7,3-2.5,3c-1.8,0-2-1.3-2-5.5v-9.8c0-3.6-0.5-8.4-8.8-8.4
	c-6.1,0-9.8,3.1-9.8,5.5c0,1.2,0.7,1.8,1.7,1.8c1.5,0,2.1-1.2,2.5-2.5c0.5-1.7,1.3-3.5,5.1-3.5c4.5,0,5.1,3,5.1,6.4v1.5l-4.6,1.7
	c-8.6,3-11.1,6.3-11.1,9.8s2.6,5.1,6.3,5.1c3,0,6-1.2,9.4-4.3c0.3,1.5,1.2,4.3,4.6,4.3c3.3,0,4.8-2.3,5-5h-1V86.1z M379.4,85.6
	c-2.5,2.1-5.8,3.8-7.9,3.8c-2.6,0-3.8-1.8-3.8-4.1c0-3.3,3.1-6.4,8.3-8.1l3.5-1.2C379.4,76,379.4,85.6,379.4,85.6z"/>
<g>
	<path class="st0" d="M205.3,110.1c-1.1-2-1.1-2.1-3.6-2.2l0.2-0.7c1,0,1.9,0.1,2.9,0.1c0.8,0,1.6-0.1,2.5-0.1l8.9,18l2.9-11
		c0.3-1.1,0.8-3.2,0.8-4.4c0-1.9-1.4-1.8-2.9-1.9l0.2-0.7c1.2,0,2.4,0.1,3.6,0.1c1.2,0,2.5-0.1,3.8-0.1l-0.2,0.7
		c-2.5,0-3,1.6-3.6,3.7l-4.9,18.3h-0.8l-9.3-18.7l-2.6,9.7c-0.4,1.4-1.2,4.6-1.2,5.9c0,1.8,1.6,1.7,2.9,1.8l-0.2,0.7
		c-1.3,0-2.6-0.1-4-0.1c-1.3,0-2.6,0.1-3.9,0.1l0.2-0.7c1.5-0.2,2.5-0.3,3.2-1.7c0.8-1.5,1.6-4.6,2-6.3L205.3,110.1z"/>
	<path class="st0" d="M231.7,125.4c-1.4,2-3.3,4.3-6,4.3c-2.3,0-3.8-1.5-3.8-3.8c0-4.2,4-11.1,8.7-11.1c1.4,0,2.4,0.9,2.4,2.3
		c0,3.5-4.9,5.5-7.6,6.6L225,124c-0.3,1-0.6,2-0.6,3.1c0,1,0.5,1.9,1.6,1.9c2.2,0,3.9-2.4,5.1-4L231.7,125.4z M231.3,116.7
		c0-0.7-0.4-1.1-1-1.1c-2.4,0-4.5,5.5-5,7.5C227.6,122.1,231.3,119.7,231.3,116.7z"/>
	<path class="st0" d="M241.4,110.6l-1.4,4.7h2.6l-0.2,0.7h-2.6l-0.3,0.9c-0.5,1.6-2.8,9.7-2.8,10.9c0,0.5,0.1,0.9,0.6,0.9
		c1.4,0,2.8-3.3,3.4-4.4l0.7,0.4c-1,1.9-2.2,5-4.8,5c-1.3,0-2.2-0.9-2.2-2.2c0-1.4,0.7-3.5,1.1-4.9l1.9-6.6h-2.6l0.3-0.7h2.6
		l1.6-4.7H241.4z"/>
	<path class="st0" d="M247.5,117c2.4,0,1.3-2.1,2.5-2.1c0.3,0,0.6,0.2,0.6,0.5c0,0.5-0.7,1.5-0.9,1.8c-1.2,2-2.7,6-2.7,8.4
		c0,1.2,0.3,3.1,1.8,3.1c2.6,0,3.9-5.2,4.5-7.4l0.4-1.5c0.2-0.7,0.6-2.4,0.9-3c0.2-0.4,0.5-0.6,1-0.6c0.6,0,1.1,0.5,1.1,1.1
		c0,1.3-2.1,6.6-2.1,9c0,1,0.4,2.3,1.5,2.3c3.1,0,4.9-6.3,4.9-8.6c0-0.9-0.1-1.6-0.3-2.5c-0.1-0.4-0.2-0.7-0.2-1.1
		c0-0.8,0.3-1.6,1.3-1.6c1.3,0,1.4,1.6,1.4,2.5c0,4.1-3,12.3-8,12.3c-1.8,0-2.8-1.3-2.8-3h-0.1c-1.1,1.6-2.8,3-4.8,3
		c-1.9,0-3.4-1.2-3.4-3.1c0-2.9,2.9-6.7,4.5-9l-0.1-0.1c-0.7,0.4-1.2,0.8-2,0.8c-0.5-0.1-0.7-0.1-1.1-0.3c-0.3-0.1-0.5-0.2-0.8-0.2
		c-0.5,0-0.6,0.5-0.6,0.9v0.3c0,0.1,0,0.2-0.2,0.2c-0.5,0-0.6-1-0.6-1.3c0-1.2,0.7-2.2,2-2.2C246.4,115.7,246.7,117,247.5,117z"/>
	<path class="st0" d="M264.7,124.9c0-3.9,3.2-10,7.7-10c3.1,0,4.6,2.6,4.6,5.4c0,3.9-3.3,9.4-7.7,9.4
		C266.4,129.7,264.7,127.7,264.7,124.9z M274.6,118.1c0-1.2-0.7-2.5-2-2.5c-3.5,0-5.5,8.1-5.5,10.9c0,1.5,0.7,2.5,2.3,2.5
		C273,129,274.6,120.9,274.6,118.1z"/>
	<path class="st0" d="M277.9,119.8c0.6-1.5,2.5-4.9,4.3-4.9c1.7,0,2.2,1.8,2.2,3.1c0,0.7-0.2,1.5-0.3,2.2l0.1,0.1
		c0.7-1.9,2.3-5.4,4.7-5.4c0.9,0,1.9,0.5,1.9,1.5c0,0.7-0.6,1.2-1.3,1.2c-0.6,0-1.1-0.4-1.1-1.1c0-0.2,0.1-0.7-0.2-0.7
		c-0.7,0-1.8,1.8-2.1,2.3c-1.2,2.4-2.2,5.4-3,7.9l-1.1,3.2h-2.5l1.7-5.5c0.4-1.6,1-4.4,1-6.1c0-0.3,0.1-1.8-0.5-1.8
		c-0.8,0-2.6,3.4-2.9,4.2L277.9,119.8z"/>
	<path class="st0" d="M293.4,123.5l-1.7,5.8h-2.5l5.1-19.3c0.1-0.4,0.2-0.9,0.2-1.2c0-0.9-2.1-0.7-2.5-0.7l0.2-0.7l5.5-0.3
		c-0.4,1.4-0.8,2.7-1.1,4.1l-1.8,7.2l0.1,0.1c1.2-1.7,2.9-3.5,5.2-3.5c1.2,0,2.5,0.8,2.5,2c0,2.6-3.6,3.8-5.5,5
		c2.4,0.7,2.7,2.1,2.6,4.3l0,1c-0.1,0.4-0.3,1.5,0.4,1.5c1.1,0,2-2.7,2.5-3.6l0.6,0.3c-0.8,1.8-1.6,4.3-4,4.3c-1.3,0-2.1-1-2.1-2.3
		c0-1.1,0.2-2.3,0.2-3.4c0-1-0.2-1.4-1.1-1.7L293.4,123.5z M300.1,116.9c0-0.6-0.4-1-1.1-1c-2.6,0-4.7,4.6-5.4,6.7
		C295.9,121.7,300.1,119.7,300.1,116.9z"/>
	<path class="st0" d="M328.7,107.6h0.4l-1.2,5.7h-0.6c-0.1-3.2-1.3-5.7-4.5-5.7c-2,0-3.6,1.4-3.6,3.4c0,4.6,7.8,6.4,7.8,12.5
		c0,3.8-3,6.2-6.7,6.2c-2.2,0-4.7-0.9-6.2-2.5l-1.1,1.4h-0.4l1.1-6.2h0.7c0.3,3.5,1.4,6.6,5.5,6.6c2.4,0,4.1-1.9,4.1-4.2
		c0-5.1-7.7-6.7-7.7-12.5c0-3.4,2.8-5.4,6-5.4c2,0,3.7,0.7,5.3,1.9L328.7,107.6z"/>
	<path class="st0" d="M339.4,125.1c-1.2,2.3-3,4.6-5.9,4.6c-2.6,0-3.9-2-3.9-4.5c0-4.2,3.9-10.4,8.4-10.4c1.1,0,2.5,0.6,2.5,1.9
		c0,0.7-0.5,1.4-1.3,1.4c-0.6,0-1.1-0.6-1.1-1.2c0-0.5,0.4-0.8,0.4-1c0-0.4-0.5-0.4-0.7-0.4c-3.3,0-5.8,8.7-5.8,11
		c0,1.2,0.6,2.4,1.9,2.4c2.3,0,3.8-2.4,4.8-4.3L339.4,125.1z"/>
	<path class="st0" d="M344.8,120.6c0.3-0.8,1.2-3.2,1.2-4c0-0.3-0.2-0.7-0.6-0.7c-1,0-2.7,2.7-3.1,3.7l-0.7-0.4
		c1-1.6,2.3-4.3,4.5-4.3c1.3,0,2.1,1.1,2.1,2.3c0,1.6-1,3.6-1.6,5.1l-1.1,2.7c-0.2,0.6-1,2.6-1,3.2c0,0.3,0.2,0.6,0.5,0.6
		c1.3,0,3.1-3,3.6-4l0.7,0.3c-0.8,1.7-2.6,4.7-4.8,4.7c-1.4,0-2.2-1.1-2.2-2.4c0-1.4,0.9-3.2,1.5-4.5L344.8,120.6z M346.7,108.9
		c0-0.9,0.6-1.6,1.5-1.6c0.9,0,1.5,0.7,1.5,1.6c0,0.8-0.7,1.5-1.5,1.5C347.4,110.4,346.7,109.7,346.7,108.9z"/>
	<path class="st0" d="M360.3,125.4c-1.4,2-3.3,4.3-6,4.3c-2.3,0-3.8-1.5-3.8-3.8c0-4.2,4-11.1,8.7-11.1c1.4,0,2.4,0.9,2.4,2.3
		c0,3.5-4.9,5.5-7.6,6.6l-0.5,0.2c-0.3,1-0.6,2-0.6,3.1c0,1,0.5,1.9,1.6,1.9c2.2,0,3.9-2.4,5.1-4L360.3,125.4z M359.9,116.7
		c0-0.7-0.4-1.1-1-1.1c-2.4,0-4.5,5.5-5,7.5C356.3,122.1,359.9,119.7,359.9,116.7z"/>
	<path class="st0" d="M366.2,129.3h-2.5l0.7-2.1c0.8-2.3,2.5-7.9,2.5-10.2c0-0.4,0-1.1-0.6-1.1c-1.3,0-2.8,3.5-3.3,4.5l-0.7-0.2
		c0.9-1.9,2.1-5.2,4.7-5.2c1.4,0,2,1,2,2.3c0,0.7-0.2,1.7-0.3,2.5l-0.1,0.6l0.1,0.1c1.1-2.2,3.1-5.5,6-5.5c1.5,0,2.6,1.2,2.6,2.7
		c0,1.5-0.6,3.5-1.1,4.9l-0.6,1.6c-0.2,0.7-1.1,2.9-1.1,3.6c0,0.4,0.2,1,0.7,1c1.3,0,2.9-3.1,3.4-4.2l0.7,0.3
		c-0.9,1.8-2.5,4.9-4.8,4.9c-1.4,0-2.2-1-2.2-2.4c0-1.4,0.8-3.4,1.2-4.7l0.6-1.6c0.4-1,1.2-2.8,1.2-4c0-0.6-0.5-1.1-1.1-1.1
		c-1.8,0-3.8,2.9-4.5,4.3c-1.4,2.4-2.4,5.4-3.2,8.1L366.2,129.3z"/>
	<path class="st0" d="M391,125.1c-1.2,2.3-3,4.6-5.9,4.6c-2.6,0-3.9-2-3.9-4.5c0-4.2,3.9-10.4,8.4-10.4c1.1,0,2.5,0.6,2.5,1.9
		c0,0.7-0.5,1.4-1.3,1.4c-0.6,0-1.1-0.6-1.1-1.2c0-0.5,0.4-0.8,0.4-1c0-0.4-0.5-0.4-0.7-0.4c-3.3,0-5.8,8.7-5.8,11
		c0,1.2,0.6,2.4,1.9,2.4c2.3,0,3.8-2.4,4.8-4.3L391,125.1z"/>
	<path class="st0" d="M402.6,125.4c-1.4,2-3.3,4.3-6,4.3c-2.3,0-3.8-1.5-3.8-3.8c0-4.2,4-11.1,8.7-11.1c1.4,0,2.4,0.9,2.4,2.3
		c0,3.5-4.9,5.5-7.6,6.6l-0.5,0.2c-0.3,1-0.6,2-0.6,3.1c0,1,0.5,1.9,1.6,1.9c2.2,0,3.9-2.4,5.1-4L402.6,125.4z M402.1,116.7
		c0-0.7-0.4-1.1-1-1.1c-2.4,0-4.5,5.5-5,7.5C398.5,122.1,402.1,119.7,402.1,116.7z"/>
	<path class="st0" d="M418.5,125c-0.1,0.5-0.6,2-0.6,2.6c0,1.3,1.7,1.1,2.9,1.1l-0.2,0.7c-1.6,0-3.1-0.1-4.7-0.1
		c-1.5,0-3,0.1-4.6,0.1l0.2-0.7c2.9,0.1,3.2-0.9,3.9-3.4l3.9-13.5c0.1-0.5,0.6-2,0.6-2.5c0-1.4-1.8-1.2-3-1.2l0.2-0.7
		c1.4,0,2.9,0.1,4.3,0.1c1.7,0,3.5-0.1,5.2-0.1l-0.2,0.7c-0.9,0-2.2,0-2.8,0.8c-0.5,0.6-1.2,3.1-1.4,3.9L418.5,125z"/>
	<path class="st0" d="M428.5,129.3H426l0.7-2.1c0.8-2.3,2.5-7.9,2.5-10.2c0-0.4,0-1.1-0.6-1.1c-1.3,0-2.8,3.5-3.3,4.5l-0.7-0.2
		c0.9-1.9,2.1-5.2,4.7-5.2c1.4,0,2,1,2,2.3c0,0.7-0.2,1.7-0.3,2.5l-0.1,0.6l0.1,0.1c1.1-2.2,3.1-5.5,6-5.5c1.5,0,2.6,1.2,2.6,2.7
		c0,1.5-0.6,3.5-1.1,4.9l-0.6,1.6c-0.2,0.7-1.1,2.9-1.1,3.6c0,0.4,0.2,1,0.7,1c1.3,0,2.9-3.1,3.4-4.2l0.7,0.3
		c-0.9,1.8-2.5,4.9-4.8,4.9c-1.4,0-2.2-1-2.2-2.4c0-1.4,0.8-3.4,1.2-4.7l0.6-1.6c0.4-1,1.2-2.8,1.2-4c0-0.6-0.5-1.1-1.1-1.1
		c-1.8,0-3.8,2.9-4.5,4.3c-1.4,2.4-2.4,5.4-3.2,8.1L428.5,129.3z"/>
	<path class="st0" d="M450.1,114.9c1.2,0,3.2,0.5,3.2,2.1c0,0.5-0.3,0.9-0.8,0.9c-1.7,0,0-2.2-2.4-2.2c-1.1,0-2.2,0.8-2.2,2
		c0,2.3,3.8,4.4,3.9,7.7c0.1,2.9-2.4,4.4-5.1,4.4c-1.6,0-4.1-0.7-4.1-2.7c0-0.6,0.2-1.2,0.9-1.2c0.5,0,1,0.4,1,1
		c0,0.3-0.1,0.6-0.1,0.9c0,1,1.3,1.3,2.1,1.3c1.6,0,2.9-0.8,2.9-2.5c0-2.3-3.9-4.8-3.9-7.7C445.5,116.2,447.7,114.9,450.1,114.9z"/>
	<path class="st0" d="M462.5,110.6l-1.4,4.7h2.6l-0.2,0.7h-2.6l-0.3,0.9c-0.5,1.6-2.8,9.7-2.8,10.9c0,0.5,0.1,0.9,0.6,0.9
		c1.4,0,2.8-3.3,3.4-4.4l0.7,0.4c-1,1.9-2.2,5-4.8,5c-1.3,0-2.2-0.9-2.2-2.2c0-1.4,0.7-3.5,1.1-4.9l1.9-6.6h-2.6l0.3-0.7h2.6
		l1.6-4.7H462.5z"/>
	<path class="st0" d="M467.4,120.6c0.3-0.8,1.2-3.2,1.2-4c0-0.3-0.2-0.7-0.6-0.7c-1,0-2.7,2.7-3.1,3.7l-0.7-0.4
		c1-1.6,2.3-4.3,4.5-4.3c1.3,0,2.1,1.1,2.1,2.3c0,1.6-1,3.6-1.6,5.1l-1.1,2.7c-0.2,0.6-1,2.6-1,3.2c0,0.3,0.2,0.6,0.5,0.6
		c1.3,0,3.1-3,3.6-4l0.7,0.3c-0.8,1.7-2.6,4.7-4.8,4.7c-1.4,0-2.2-1.1-2.2-2.4c0-1.4,0.9-3.2,1.5-4.5L467.4,120.6z M469.3,108.9
		c0-0.9,0.6-1.6,1.5-1.6c0.9,0,1.5,0.7,1.5,1.6c0,0.8-0.7,1.5-1.5,1.5C470,110.4,469.3,109.7,469.3,108.9z"/>
	<path class="st0" d="M481.2,110.6l-1.4,4.7h2.6l-0.2,0.7h-2.6l-0.3,0.9c-0.5,1.6-2.8,9.7-2.8,10.9c0,0.5,0.1,0.9,0.6,0.9
		c1.4,0,2.8-3.3,3.4-4.4l0.7,0.4c-1,1.9-2.2,5-4.8,5c-1.3,0-2.2-0.9-2.2-2.2c0-1.4,0.7-3.5,1.1-4.9l1.9-6.6h-2.6l0.3-0.7h2.6
		l1.6-4.7H481.2z"/>
	<path class="st0" d="M487.9,125.7c-0.2,0.5-0.5,1.4-0.5,2c0,0.7,0.5,1.1,1.2,1.1c2.2,0,4.3-3.9,5.1-5.6l2.7-8.1h2.5l-1.3,4.2
		c-0.7,2.5-1.9,6-1.9,8.5c0,0.3,0.1,1,0.6,1c1.1,0,2.7-3.2,3-4.2l0.7,0.3c-0.7,1.8-2.1,5-4.4,5c-1.6,0-2.4-1.1-2.2-2.5
		c0.1-0.7,0.1-1.4,0.2-2l-0.1-0.1c-1.2,2-2.9,4.7-5.5,4.7c-1.6,0-2.8-1.1-2.8-2.8c0-1.1,0.3-2,0.6-3.1l0.6-2
		c0.4-1.5,1.1-3.1,1.2-4.6c0-0.3,0.2-1.4-0.4-1.4c-1.2,0-3.1,3.5-3.7,4.5L483,120c0.9-1.9,2.6-5.2,5.1-5.2c1.3,0,2,1.3,2,2.5
		c0,1.2-0.4,2.7-0.8,3.9L487.9,125.7z"/>
	<path class="st0" d="M509.4,110.6l-1.4,4.7h2.6l-0.2,0.7h-2.6l-0.3,0.9c-0.5,1.6-2.8,9.7-2.8,10.9c0,0.5,0.1,0.9,0.6,0.9
		c1.4,0,2.8-3.3,3.4-4.4l0.7,0.4c-1,1.9-2.2,5-4.8,5c-1.3,0-2.2-0.9-2.2-2.2c0-1.4,0.7-3.5,1.1-4.9l1.9-6.6h-2.6l0.3-0.7h2.6
		l1.6-4.7H509.4z"/>
	<path class="st0" d="M520.5,125.4c-1.4,2-3.3,4.3-6,4.3c-2.3,0-3.8-1.5-3.8-3.8c0-4.2,4-11.1,8.7-11.1c1.4,0,2.4,0.9,2.4,2.3
		c0,3.5-4.9,5.5-7.6,6.6l-0.5,0.2c-0.3,1-0.6,2-0.6,3.1c0,1,0.5,1.9,1.6,1.9c2.2,0,3.9-2.4,5.1-4L520.5,125.4z M520,116.7
		c0-0.7-0.4-1.1-1-1.1c-2.4,0-4.5,5.5-5,7.5C516.4,122.1,520,119.7,520,116.7z"/>
</g>
<g>
	<path class="st0" d="M45.4,72.3c-0.3-1.7-0.5-3-0.8-4.5c8.8-1.7,17.4-3.3,26.6-5.1c-1.1-5.4-2.2-10.7-3.3-16.2
		c1.5-0.3,2.8-0.7,4.5-1c1.2,5.5,2.4,10.7,3.7,16.3c8.4-1.5,16.6-3.1,25-4.6c0.3,1.5,0.6,2.9,0.9,4.5c-8.2,1.6-16.3,3.1-24.9,4.8
		c1.4,6.8,2.8,13.3,4.3,20.2c-1.5,0.3-2.9,0.6-4.5,1c-1.5-6.8-3-13.3-4.5-20.2C63.3,69,54.5,70.6,45.4,72.3z"/>
	<path class="st0" d="M124.7,57c-0.1,5.5-4.3,9.6-9.8,9.5c-5.4-0.1-9.5-4.5-9.4-9.9c0.1-5.3,4.3-9.4,9.5-9.5
		C120.7,47.1,124.8,51.3,124.7,57z M115.2,51.9c-2.7,0-5.1,2.4-5,5.1c0.1,2.5,2.5,4.7,5,4.7c2.8,0,5.1-2.3,5-5
		C120.1,54.1,117.7,51.9,115.2,51.9z"/>
	<path class="st0" d="M117.6,114c5.4,0,9.7,4.2,9.7,9.6c0,5.4-4.2,9.6-9.7,9.6c-5.6,0-9.6-4-9.6-9.5C108,118.1,112.1,114,117.6,114z
		 M117.7,118.6c-2.7,0-5,2.4-5,5.1c0.1,2.5,2.4,4.8,4.9,4.8c2.6,0,5.1-2.5,5-5.1C122.5,121,120.1,118.6,117.7,118.6z"/>
	<path class="st0" d="M91.4,101.4c-0.1,5.3-4.2,9.3-9.6,9.3c-5.7,0-9.8-4.3-9.6-9.9c0.1-5.4,4.5-9.4,10-9.3
		C87.6,91.6,91.5,95.8,91.4,101.4z M86.8,101.2c0.1-2.5-2.1-4.9-4.7-5.1c-2.6-0.2-5.2,2.2-5.3,4.9c-0.1,2.5,2.2,4.9,4.8,5
		C84.3,106.2,86.8,103.9,86.8,101.2z"/>
	<path class="st0" d="M41,72.6c0,5.6-4,9.5-9.6,9.5c-5.5,0-9.7-4.2-9.7-9.6c0-5.3,4.4-9.7,9.7-9.7C36.8,62.9,41,67.2,41,72.6z
		 M31.4,77.5c2.6,0,4.8-2.2,4.9-4.8c0.1-2.7-2.3-5.1-5-5.1c-2.5,0-4.9,2.3-5,4.8C26.3,75.1,28.7,77.5,31.4,77.5z"/>
	<path class="st0" d="M42.3,128c-5.5,0.1-9.7-4-9.8-9.4c-0.1-5.4,4.2-9.7,9.6-9.8c5.3-0.1,9.8,4.2,9.9,9.5
		C52,123.6,47.7,127.9,42.3,128z M42,113.4c-2.6,0.1-4.8,2.4-4.7,5.1c0,2.8,2.4,5,5.2,4.8c2.6-0.2,4.7-2.5,4.6-5.2
		C46.9,115.5,44.6,113.3,42,113.4z"/>
	<path class="st0" d="M57.4,32.1c0.1-5.6,4.2-9.4,9.8-9.3c5.3,0.1,9.4,4.3,9.4,9.5c0,5.4-4.6,9.8-10,9.7
		C61.2,41.9,57.3,37.7,57.4,32.1z M71.9,32.4c0-2.5-2.2-4.9-4.8-5c-2.8-0.1-5.1,2.1-5.1,4.9c0,2.8,2.3,5.1,5,5
		C69.6,37.3,71.9,34.9,71.9,32.4z"/>
	<path class="st0" d="M70.6,92.3c-0.8,1.4-1.4,2.6-2.2,4.2c-8.7-5-17.3-9.9-26.2-14.9c0.8-1.4,1.5-2.6,2.3-4.1
		C53.3,82.4,61.8,87.2,70.6,92.3z"/>
	<path class="st0" d="M105,66.4c1.3,1,2.4,1.8,3.8,2.9c-5.5,7.2-10.9,14.4-16.5,21.9c-1.3-1-2.5-1.9-3.8-2.9
		C94,80.9,99.4,73.7,105,66.4z"/>
	<path class="st0" d="M80.6,36.5c7.9,4,15.5,7.9,23.3,11.9c-0.7,1.4-1.4,2.7-2.1,4.2c-7.8-4-15.5-7.9-23.3-11.9
		C79.2,39.3,79.8,38.1,80.6,36.5z"/>
	<path class="st0" d="M41.3,104.4c-1.7,0.4-3,0.7-4.6,1.1c-1.5-6.3-2.9-12.4-4.4-18.7c1.5-0.4,2.8-0.8,4.5-1.2
		C38.3,91.7,39.8,97.9,41.3,104.4z"/>
	<path class="st0" d="M68.1,104.1c0.7,1.5,1.3,2.8,2,4.3c-4.7,2.1-9.3,4.2-14.1,6.4c-0.7-1.5-1.3-2.7-2-4.3
		C58.8,108.3,63.4,106.2,68.1,104.1z"/>
	<path class="st0" d="M99.4,109.1c-0.8,1.3-1.5,2.4-2.5,3.8c-1.6-1-3-1.8-4.6-2.8c0.9-1.4,1.6-2.6,2.5-4
		C96.4,107.1,97.8,108.1,99.4,109.1z"/>
	<path class="st0" d="M100.3,115.2c0.9-1.4,1.6-2.4,2.5-3.7c0.8,0.4,1.6,0.8,2.3,1.2c0.7,0.5,1.4,1,2.2,1.6
		c-0.8,1.3-1.6,2.4-2.5,3.9C103.2,117.1,101.8,116.1,100.3,115.2z"/>
</g>
<g id="SPQ45k.tif">
	
		<image style="overflow:visible;" width="185" height="57" id="Layer_1_1_" xlink:href="632960544F4664D4.png"  transform="matrix(0.5346 0 0 0.5346 21.7738 131.0168)">
	</image>
</g>
<rect x="163.8" y="23.4" class="st0" width="1.5" height="137.3"/>
</svg>
