<?xml version="1.0" encoding="utf-8"?>
<!-- Generator: Adobe Illustrator 24.0.3, SVG Export Plug-In . SVG Version: 6.00 Build 0)  -->
<svg version="1.1" xmlns="http://www.w3.org/2000/svg" xmlns:xlink="http://www.w3.org/1999/xlink" x="0px" y="0px"
	 viewBox="0 0 486 180" style="enable-background:new 0 0 486 180;" xml:space="preserve">
<style type="text/css">
	.st0{display:none;}
	.st1{display:inline;fill:#010101;}
	.st2{fill:#FFFFFF;}
</style>
<g id="Layer_2" class="st0">
	<rect class="st1" width="486" height="380"/>
</g>
<g id="Layer_1">
	<g>
		<g>
			<path class="st2" d="M381.9,152.1l7.5-16.7c1.5-3.3,2-4,3.5-4.4l0-1.1l-7.9,0l0,1.1c2.6,0.6,2.9,1.9,1.7,4.7l-3,7.3l-3.8-8.5
				c-0.8-1.9-0.7-3,2.1-3.3l0-1.2l-10.5,0l0,1.2c1.2,0.3,1.7,0.8,2.8,3.1l6.7,14.4l-1.1,2.4c-0.6,1.4-1.2,2.4-1.9,3
				c-0.5-1.6-1.4-2.5-2.8-2.5c-1.4,0-2.7,1-2.7,2.8c0,1.9,1.5,3.3,3.3,3.3C378.3,157.7,379.9,156.4,381.9,152.1 M371.2,147.1
				l-0.6-1.3c-1.1,0.5-2,0.7-2.9,0.7c-1.9,0-2.4-1-2.4-2.3l0-12.1l5.1,0l0-2.3l-5.1,0l0-3.7l-0.7,0l-7.2,4.7l0,1.3l2.9,0l0,13.1
				c0,2.6,1.5,4,4.4,4C367,149.3,369.2,148.5,371.2,147.1 M355.9,147.6c-2.5-0.4-2.8-0.9-2.9-3.1l0-15.3l-2,0l-5.9,3.9l0,0.9l2.8,0
				l0,10.6c0,2.2-0.4,2.7-2.8,3.1l0,1.2l10.7,0L355.9,147.6z M350.2,126.2c1.7,0,3-1.4,3-3.1c0-1.5-1.2-2.8-2.7-2.8
				c-1.8,0-3.1,1.4-3.1,3.1C347.4,125,348.6,126.2,350.2,126.2 M343.2,143c0-3.7-3.1-4.9-6-5.8c-2.8-0.9-4.8-1.5-4.8-3.6
				c0-1.1,0.8-2.2,2.5-2.2c2,0,3.8,1.2,6,3.7l1-0.5l-1.5-5l-0.6,0l-0.7,0.6c-1.1-0.5-2.4-0.8-3.8-0.8c-4.2,0-7,2.5-7,6.1
				c0,3.7,3.1,4.8,6,5.8c2.8,1,4.8,1.5,4.8,3.6c0,1.3-1,2.3-2.9,2.3c-2.7,0-4.7-1.8-7.2-4.9l-1.1,0.4l1.6,6.2l0.7,0l1.2-0.8
				c1.3,0.6,2.8,1,4.4,1C339.9,149.3,343.2,146.9,343.2,143 M322.4,147.7c-2.6-0.4-3-1-3-3.4l0-8.3c0.8-1.4,1.6-2.5,2.4-3.2
				c0,1.6,1.1,2.6,2.4,2.6c1.4,0,2.7-1.1,2.7-3.2c0-1.8-1-2.8-2.8-2.8c-2,0-3.5,1.6-4.9,4l0-4l-1.8,0l-5.8,3.8l0,0.9l2.8,0l0,10.7
				c0,2.2-0.4,2.8-2.6,3.1l0,1.2l10.6,0L322.4,147.7z M297.3,136.8c0-3.2,1.4-5.2,4-5.2c1.8,0,3,1.3,3.5,3.9l-7.4,2.6
				C297.3,137.7,297.3,137.3,297.3,136.8 M309.8,145.4l-1.1-0.8c-1.1,1.2-2.7,2.1-4.6,2.1c-3.7,0-5.8-2.8-6.5-6.4l12-4
				c-0.2-4.2-3.4-6.6-7.3-6.6c-5.6,0-9.6,4.5-9.6,10.1c0,5.5,3.5,9.7,9.8,9.7C306.2,149.4,308.5,147.7,309.8,145.4 M288.8,135.5
				c1.5-3.3,2-4,3.5-4.4l0-1.1l-7.9,0l0,1.1c2.6,0.6,2.9,1.9,1.7,4.7l-3,7.3l-3.8-8.5c-0.8-1.9-0.7-3,2.1-3.3l0-1.2l-10.5,0l0,1.2
				c1.2,0.3,1.8,0.8,2.8,3.1l6.9,14.9l2.1,0L288.8,135.5z M270.5,147.8c-2.5-0.4-2.8-0.9-2.9-3.1l0-15.3l-2,0l-5.9,3.9l0,0.9l2.8,0
				l0,10.6c0,2.2-0.4,2.7-2.8,3.1l0,1.2l10.7,0L270.5,147.8z M264.8,126.4c1.7,0,3-1.4,3-3.1c0-1.5-1.2-2.8-2.7-2.8
				c-1.8,0-3.1,1.4-3.1,3.1C262,125.1,263.2,126.4,264.8,126.4 M244.6,147.8c-2.3-0.3-2.6-0.9-2.7-3.1l0-9.3c2-1.8,3.6-2.7,5.1-2.7
				c2,0,2.5,1,2.5,2.8l0,9.1c0,2.2-0.4,2.8-2.6,3.1l0,1.2l10.3,0l0-1.2c-2.3-0.3-2.6-0.9-2.7-3.1l0-9.6c0-3.2-1.4-5.5-5.4-5.5
				c-2.5,0-4.9,1.5-7.3,3.6l0-3.8l-1.8,0l-5.8,3.8l0,0.9l2.8,0l0,10.7c0,2.2-0.4,2.8-2.6,3.1l0,1.2l10.3,0L244.6,147.8z
				 M200.9,124.4l0,12c0,7.8,4.1,13.2,14.3,13.2c10.2,0,14.3-5.4,14.2-13l0-9.7c0-4.7,1.3-5.9,3.6-6.5l0-1.2l-9.7,0l0,1.2
				c2.3,0.6,3.6,1.8,3.6,6.5l0,9.7c0,6.8-3.5,9.9-10.3,9.9c-6.7,0-10.3-3.1-10.3-9.9l0-12.2c0-3,0.9-3.6,3.4-3.9l0-1.3l-12.2,0
				l0,1.3C200.1,120.8,200.9,121.3,200.9,124.4"/>
			<path class="st2" d="M432.7,101.5c-2.3-0.3-2.6-0.9-2.7-3.1l0-9.3c2-1.8,3.6-2.7,5.1-2.7c2,0,2.5,1,2.5,2.8l0,9.1
				c0,2.2-0.4,2.8-2.6,3.1l0,1.2l10.3,0l0-1.2c-2.3-0.3-2.6-0.9-2.7-3.1l0-9.6c0-3.2-1.4-5.5-5.4-5.5c-2.5,0-4.9,1.5-7.3,3.6l0-3.8
				l-1.8,0l-5.8,3.8l0,0.9l2.8,0l0,10.7c0,2.2-0.4,2.8-2.6,3.1l0,1.2l10.3,0L432.7,101.5z M416.7,101.5c-2.6-0.4-3-1-3-3.4l0-8.3
				c0.8-1.4,1.6-2.5,2.4-3.2c0,1.6,1.1,2.6,2.4,2.6c1.4,0,2.7-1.1,2.7-3.2c0-1.8-1-2.8-2.8-2.8c-2,0-3.5,1.6-4.9,4l0-4l-1.8,0
				l-5.8,3.8l0,0.9l2.8,0l0,10.7c0,2.2-0.4,2.8-2.6,3.1l0,1.2l10.6,0L416.7,101.5z M391.6,90.7c0-3.2,1.4-5.2,4-5.2
				c1.8,0,3,1.3,3.5,3.9l-7.4,2.6C391.6,91.5,391.6,91.1,391.6,90.7 M404.2,99.2l-1.1-0.8c-1.1,1.2-2.7,2.1-4.6,2.1
				c-3.7,0-5.8-2.8-6.5-6.4l12-4c-0.2-4.2-3.4-6.6-7.3-6.6c-5.6,0-9.6,4.5-9.6,10.1c0,5.5,3.5,9.7,9.8,9.7
				C400.5,103.2,402.8,101.5,404.2,99.2 M385.7,101l-0.6-1.3c-1.1,0.5-2,0.7-2.9,0.7c-1.9,0-2.4-1-2.4-2.3l0-12.1l5.1,0l0-2.3
				l-5.1,0l0-3.7l-0.7,0l-7.2,4.7l0,1.3l2.9,0l0,13.1c0,2.6,1.5,4,4.4,4C381.5,103.2,383.7,102.4,385.7,101 M370.5,96.9
				c0-3.7-3.1-4.9-6-5.8c-2.8-0.9-4.8-1.5-4.8-3.6c0-1.1,0.8-2.2,2.5-2.2c2,0,3.8,1.2,6,3.7l1-0.5l-1.5-5l-0.6,0l-0.7,0.6
				c-1.1-0.5-2.4-0.8-3.8-0.8c-4.2,0-7,2.5-7,6.1c0,3.7,3.1,4.8,6,5.8c2.8,1,4.8,1.5,4.8,3.6c0,1.3-1,2.3-2.9,2.3
				c-2.7,0-4.7-1.8-7.2-4.9l-1.1,0.4l1.6,6.2l0.7,0l1.2-0.8c1.3,0.6,2.8,1,4.4,1C367.2,103.2,370.5,100.8,370.5,96.9 M339.7,97.8
				c0-2,0.9-3,5.6-4.3l0,5.8c-1.1,0.9-2.1,1.3-3.1,1.3C340.6,100.6,339.7,99.7,339.7,97.8 M348.5,103.1c1.7,0,3.6-0.8,4.8-1.7
				l-0.4-1.1c-2,0.4-2.7,0.1-2.7-1.2l0-10.7c0-3.2-1.4-4.9-5.9-4.9c-5.1,0-8.8,2.7-8.8,5.3c0,1.2,0.8,2.3,2.3,2.3
				c1.6,0,2.4-1.1,2.7-2.2c0.2-1.2-0.2-2.2-0.8-2.7c1-0.5,2-0.7,3-0.7c1.7,0,2.6,0.6,2.6,2.2l0,4c-7.2,1.8-10.5,3.3-10.4,7.2
				c0,2.9,1.9,4.5,4.9,4.5c1.9,0,4-0.8,5.9-2.3C345.8,102.4,346.8,103.1,348.5,103.1 M320.1,90.8c0-3.2,1.4-5.2,4-5.2
				c1.8,0,3,1.3,3.5,3.9l-7.4,2.6C320.1,91.7,320.1,91.2,320.1,90.8 M332.6,99.3l-1.1-0.8c-1.1,1.2-2.7,2.1-4.6,2.1
				c-3.7,0-5.8-2.8-6.5-6.4l12-4c-0.2-4.2-3.4-6.6-7.3-6.6c-5.6,0-9.6,4.5-9.6,10.1c0,5.5,3.5,9.7,9.8,9.7
				C329,103.3,331.3,101.6,332.6,99.3 M300.7,101.7c-2.3-0.3-2.6-0.9-2.7-3.1l0-9.3c1.9-1.8,3.4-2.7,5.1-2.7c2,0,2.5,1,2.5,2.8
				l0,9.1c0,2.2-0.4,2.8-2.6,3.1l0,1.2l10.3,0l0-1.2c-2.3-0.3-2.6-0.9-2.7-3.1l0-9.6c0-3.2-1.4-5.5-5.4-5.5c-2.4,0-4.8,1.5-7.2,3.5
				l0-15.9l-1.5,0l-6.4,4.2l0,0.9l2.9,0l0,22.4c0,2.2-0.4,2.8-2.6,3.1l0,1.2l10.3,0L300.7,101.7z M289.2,101.2l-0.6-1.3
				c-1.1,0.5-2,0.7-2.9,0.7c-1.9,0-2.4-1-2.4-2.3l0-12.1l5.1,0l0-2.3l-5.1,0l0-3.7l-0.7,0l-7.2,4.7l0,1.3l2.9,0l0,13.1
				c0,2.6,1.5,4,4.4,4C285.1,103.4,287.3,102.6,289.2,101.2 M269.6,101.8c-2.6-0.4-3-1-3-3.4l0-8.3c0.8-1.4,1.6-2.5,2.4-3.2
				c0,1.6,1.1,2.6,2.4,2.6s2.7-1.1,2.7-3.2c0-1.8-1-2.8-2.8-2.8c-2,0-3.5,1.6-4.9,4l0-4l-1.8,0l-5.8,3.8l0,0.9l2.8,0l0,10.7
				c0,2.2-0.4,2.8-2.6,3.1l0,1.2l10.6,0L269.6,101.8z M240.6,91.5c0-3.6,1.6-5.9,4.8-5.9c4.2,0,5.5,5.2,5.5,10
				c0,3.6-1.6,5.9-4.8,5.9C241.9,101.5,240.6,96.3,240.6,91.5 M256,93.3c0-5.2-3.5-9.7-10-9.6c-6.5,0-10.4,4.7-10.4,10.2
				c0,5.2,3.5,9.7,10,9.6C252.1,103.4,256,98.7,256,93.3 M229.8,80.8c0-4.7,1.3-5.9,3.6-6.5l0-1.2l-9.7,0l0,1.2
				c2.3,0.6,3.6,1.8,3.6,6.5l0,14.1l-20.5-20.6c-1.1-1.1-1.6-1.2-2.3-1.2l-7.6,0l0,1.2c1.6,0.2,2.6,0.8,4.5,2.6
				c0.6,0.6,1.2,1.2,1.2,2.4l0,16.1c0,4.7-1.3,5.9-3.6,6.5l0,1.2l9.7,0l0-1.2c-2.3-0.6-3.6-1.8-3.6-6.5l0-15.1l23,23.1l1.6,0
				L229.8,80.8z"/>
		</g>
		<path class="st2" d="M172.5,63.3c0-19.6,6.6-26,19.8-31V29h-43.2v3.2c13.2,5,19.8,11.4,19.8,31v57.5L77.4,33.4
			c-4.2-3.9-5.3-4.3-8-4.3H35v3.2c7.6,0.8,12.1,2.9,23,13.5l4.2,4v65.6c0,19.6-6.6,26-19.8,31v3.2h43.2v-3.2
			c-13.2-5-19.8-11.4-19.8-31V52.8l103.5,97.5h3.2V63.3z"/>
	</g>
</g>
</svg>
