<?xml version="1.0" encoding="utf-8"?>
<!-- Generator: Adobe Illustrator 24.0.3, SVG Export Plug-In . SVG Version: 6.00 Build 0)  -->
<svg version="1.1" id="Layer_1" xmlns="http://www.w3.org/2000/svg" xmlns:xlink="http://www.w3.org/1999/xlink" x="0px" y="0px"
	 viewBox="0 0 144 144" style="enable-background:new 0 0 144 144;background-color: #002147;" xml:space="preserve">
<style type="text/css">
	.st0{fill:#ffffff;}
</style>
<path class="st0" d="M93.2,49.8c0,0,0,23.9,0,25.5c-1.5,0-18.4,0-18.4,0l-0.2,0.5c-0.3,0.8-0.9,1.5-2.9,1.5s-2.6-0.7-2.9-1.5
	l-0.2-0.5c0,0-16.9,0-18.4,0c0-1.6,0-25.5,0-25.5h-1.7v0.8l-1.6-0.5c-0.2-0.6-0.8-1.1-1.4-1.1c-0.8,0-1.5,0.7-1.5,1.5
	s0.7,1.5,1.5,1.5c0.4,0,0.7-0.1,1-0.4l2.1,0.6v2L47,53.9c-0.2-0.5-0.8-0.9-1.4-0.9c-0.8,0-1.5,0.7-1.5,1.5s0.7,1.5,1.5,1.5
	c0.4,0,0.8-0.2,1.1-0.5l1.9,0.3v2.1L47,57.8c-0.3-0.4-0.7-0.7-1.3-0.7c-0.8,0-1.5,0.7-1.5,1.5s0.7,1.5,1.5,1.5
	c0.5,0,0.9-0.3,1.2-0.6l1.7,0.1v2.3L46.9,62c-0.3-0.4-0.7-0.6-1.2-0.6c-0.8,0-1.5,0.7-1.5,1.5s0.7,1.5,1.5,1.5c0.5,0,1-0.3,1.3-0.7
	l1.6-0.1v2.1L46.8,66c-0.3-0.3-0.7-0.5-1.1-0.5c-0.8,0-1.5,0.7-1.5,1.5s0.7,1.5,1.5,1.5c0.6,0,1.2-0.4,1.4-0.9l1.5-0.3v2.1l-2,0.6
	c-0.3-0.2-0.6-0.4-1-0.4c-0.8,0-1.5,0.7-1.5,1.5s0.7,1.5,1.5,1.5c0.7,0,1.3-0.5,1.4-1.1l1.5-0.5v2l-2.2,1c-0.2-0.2-0.5-0.3-0.8-0.3
	c-0.8,0-1.5,0.7-1.5,1.5s0.7,1.5,1.5,1.5c0.7,0,1.4-0.5,1.5-1.3l1.6-0.7v1.8c0,0,18.2,0,19.1,0c0.8,1.4,2.1,2.1,4.1,2.1
	s3.4-0.7,4.1-2.1c0.9,0,19.1,0,19.1,0V49.8H93.2z"/>
<g>
	<ellipse class="st0" cx="59.1" cy="42.7" rx="7" ry="1.3"/>
	<path class="st0" d="M68.7,33l-4,2.8v0.3l1,0.4c0.2,0.1,0.2,0.2,0.1,0.3l-2.5,2.1h-0.2l-1.8-2.6c-0.1-0.2-0.1-0.3,0.1-0.4l1.2-0.2
		v-0.3L59.5,31H59l-3.1,4.4v0.3l1.2,0.2c0.2,0,0.3,0.2,0.1,0.4l-1.8,2.6h-0.2l-2.4-2.1c-0.1-0.1-0.1-0.2,0.1-0.3l1-0.4v-0.3L49.7,33
		l-0.3,0.1l2.5,7.5c1.3-0.6,4.1-1,7.5-1s6.2,0.4,7.5,1l2.5-7.5L68.7,33z"/>
</g>
<g>
	<ellipse class="st0" cx="71.6" cy="93.1" rx="7" ry="1.3"/>
	<path class="st0" d="M81.2,83.5l-4,2.8v0.3l1,0.4c0.2,0.1,0.2,0.2,0.1,0.3l-2.5,2.1h-0.2l-1.8-2.6c-0.1-0.2-0.1-0.3,0.1-0.4
		l1.2-0.2v-0.3L72,81.5h-0.5l-3.1,4.4v0.3l1.2,0.2c0.2,0,0.3,0.2,0.1,0.4l-1.8,2.6h-0.2l-2.4-2.1c-0.1-0.1-0.1-0.2,0.1-0.3l1-0.4
		v-0.3l-4.2-2.8l-0.3,0.1l2.5,7.5c1.3-0.6,4.1-1,7.5-1s6.2,0.4,7.5,1l2.5-7.5L81.2,83.5z"/>
</g>
<g>
	<ellipse class="st0" cx="84.1" cy="42.7" rx="7" ry="1.3"/>
	<path class="st0" d="M93.7,33l-4,2.8v0.3l1,0.4c0.2,0.1,0.2,0.2,0.1,0.3l-2.5,2.1h-0.2l-1.8-2.6c-0.1-0.2-0.1-0.3,0.1-0.4l1.2-0.2
		v-0.3L84.5,31H84l-3.1,4.4v0.3l1.2,0.2c0.2,0,0.3,0.2,0.1,0.4l-1.8,2.6h-0.2l-2.4-2.2c-0.1-0.1-0.1-0.2,0.1-0.3l1-0.4v-0.3
		l-4.2-2.8L74.4,33l2.5,7.5c1.3-0.6,4.1-1,7.5-1s6.2,0.4,7.5,1l2.5-7.5L93.7,33z"/>
</g>
<g>
	<path class="st0" d="M70.8,53.6c0-2.1-0.7-3.9-2.3-4.8c-1-0.6-2.3-0.8-4-0.8H52.6v24.1h13c3,0,4.8,0.7,4.9,3.4h0.3V53.6z M62,55.1
		c0.3,0,0.4-0.1,0.4-0.3c0-0.2,0.1-0.4,0.1-0.9l0.1-1.1c0-0.7,0-0.7-0.4-0.8v-0.2h1.2l0.9,2.1l0.8-2.1h1.3V52C66,52,66,52.1,66,52.6
		l0.1,1.8c0,0.6,0,0.6,0.4,0.6v0.2h-1.7V55c0.4,0,0.4-0.1,0.4-0.6v-1.9l0,0l-1,2.7h-0.3l-1-2.5l0,0v1.2c0,0.5,0,0.7,0,0.9
		c0,0.2,0.1,0.2,0.5,0.3v0.2h-1.3L62,55.1L62,55.1z M65.1,60.4L65.1,60.4c-0.5-0.2-1-0.5-1-1.1s0.4-1.1,1.3-1.1c0.2,0,0.3,0,0.5,0.1
		c0.1,0,0.2,0.1,0.3,0.1c0,0.2,0.1,0.5,0.1,0.8h-0.2c-0.1-0.3-0.3-0.7-0.7-0.7c-0.3,0-0.5,0.2-0.5,0.5s0.2,0.4,0.5,0.6l0.1,0.1
		c0.5,0.2,0.9,0.5,0.9,1.1c0,0.7-0.5,1.1-1.3,1.1c-0.2,0-0.4,0-0.6-0.1c-0.2-0.1-0.3-0.1-0.3-0.1c0-0.2-0.1-0.5-0.2-0.9l0.2-0.1
		c0.1,0.3,0.4,0.9,0.9,0.9c0.3,0,0.5-0.2,0.5-0.5C65.6,60.7,65.4,60.5,65.1,60.4z M61.6,58.7c0.1,0.3,0.5,1.3,0.7,1.9
		c0.2-0.5,0.5-1.5,0.6-1.7c0.1-0.3,0.1-0.4-0.2-0.4h-0.2v-0.2h1.3v0.2c-0.3,0-0.4,0.1-0.6,0.5c0,0.1-0.7,1.7-1.1,2.7h-0.4
		c-0.4-1-0.9-2.3-1.1-2.8c-0.2-0.5-0.3-0.5-0.5-0.5v-0.2h1.7v0.2h-0.2C61.5,58.5,61.5,58.6,61.6,58.7z M60,51.8c1,0,1.7,0.7,1.7,1.8
		c0,1.1-0.8,1.8-1.8,1.8c-1.1,0-1.8-0.8-1.8-1.8C58.2,52.8,58.8,51.8,60,51.8z M54.1,55.3v-0.2c0.4,0,0.4-0.1,0.4-0.6v-1.8
		c0-0.6,0-0.6-0.4-0.6v-0.2h1.6c0.7,0,1.2,0.1,1.6,0.5c0.3,0.2,0.5,0.6,0.5,1.1c0,1.3-1,1.9-2.2,1.9h-1.5V55.3z M57.7,64.8
		c-0.4,0-0.4,0.1-0.4,0.6v1.8c0,0.6,0,0.6,0.4,0.6V68H56v-0.2c0.4,0,0.4-0.1,0.4-0.6v-1.8c0-0.6,0-0.6-0.4-0.6v-0.2h1.7V64.8z
		 M57.7,61.7h-1.3v-0.2c0.2,0,0.4-0.1,0.4-0.3c0-0.2,0-0.5,0-1v-1c0-0.4,0-0.5-0.1-0.6s-0.2-0.1-0.4-0.2v-0.2h1.2l1.8,2.2l0,0v-0.7
		c0-0.6,0-0.8,0-1s-0.2-0.3-0.5-0.3v-0.2h1.4v0.2c-0.3,0-0.4,0.1-0.4,0.3c0,0.2,0,0.5,0,1v2h-0.5l-2-2.5l0,0v1c0,0.6,0,0.8,0,1
		s0.2,0.3,0.5,0.3L57.7,61.7L57.7,61.7z M60.6,68.1H58v-0.2c0.4,0,0.4-0.1,0.4-0.6v-1.8c0-0.6,0-0.6-0.4-0.6v-0.2h1.7v0.2
		c-0.4,0-0.4,0.1-0.4,0.6v1.8c0,0.3,0,0.4,0.1,0.5c0.1,0,0.2,0,0.4,0s0.4,0,0.5-0.2c0.1-0.1,0.2-0.2,0.3-0.5h0.2
		C60.8,67.4,60.7,67.9,60.6,68.1z M63.6,68.1H61v-0.2c0.4,0,0.4-0.1,0.4-0.6v-1.8c0-0.6,0-0.6-0.4-0.6v-0.2h1.7v0.2
		c-0.4,0-0.4,0.1-0.4,0.6v1.8c0,0.3,0,0.4,0.1,0.5c0.1,0,0.2,0,0.4,0s0.4,0,0.5-0.2c0.1-0.1,0.2-0.2,0.3-0.5h0.2
		C63.8,67.4,63.6,67.9,63.6,68.1z M66.9,64.8c-0.3,0-0.4,0.1-0.6,0.5c0,0.1-0.7,1.7-1.1,2.7h-0.4c-0.4-1-0.9-2.3-1.1-2.8
		c-0.2-0.5-0.3-0.5-0.5-0.5v-0.2h1.7v0.2h-0.2c-0.2,0-0.2,0.1-0.1,0.3c0.1,0.3,0.5,1.3,0.7,1.9c0.2-0.5,0.5-1.5,0.6-1.7
		c0.1-0.3,0.1-0.4-0.2-0.4h-0.2v-0.2h1.3L66.9,64.8L66.9,64.8z M68.6,52.1c-0.4,0-0.4,0.1-0.4,0.6v1.8c0,0.6,0,0.6,0.4,0.6v0.2h-1.7
		v-0.2c0.4,0,0.4-0.1,0.4-0.6v-1.8c0-0.6,0-0.6-0.4-0.6v-0.2h1.7V52.1z"/>
	<path class="st0" d="M55.7,52.2c-0.1,0-0.2,0-0.2,0s0,0.1,0,0.3v2c0,0.5,0.1,0.6,0.4,0.6c0.5,0,0.9-0.5,0.9-1.4
		C56.7,52.5,56.2,52.2,55.7,52.2z"/>
	<path class="st0" d="M60.1,55.1c0.5,0,0.7-0.4,0.7-1.4c0-1.1-0.4-1.7-0.8-1.7c-0.4,0-0.7,0.5-0.7,1.4
		C59.2,54.4,59.5,55.1,60.1,55.1z"/>
</g>
<g>
	<polygon class="st0" points="85.4,65.7 85.1,66.7 85.8,66.7 	"/>
	<polygon class="st0" points="86.7,53 86.3,54 87,54 	"/>
	<path class="st0" d="M83.7,59.9c0,1,0.4,1.7,0.9,1.7s0.7-0.4,0.7-1.4c0-1.1-0.4-1.7-0.8-1.7C84,58.5,83.7,58.9,83.7,59.9z"/>
	<path class="st0" d="M78.7,48.1c-1.6,0-3,0.2-4,0.8c-1.6,0.9-2.3,2.6-2.3,4.8v21.9h0.3c0.2-2.7,1.9-3.4,4.9-3.4h13.1V48.1H78.7z
		 M81.5,51.9h1.2l1.8,2.2l0,0v-0.7c0-0.6,0-0.8,0-1s-0.2-0.3-0.5-0.3v-0.2h1.4v0.2c-0.3,0-0.4,0.1-0.4,0.3c0,0.2,0,0.5,0,1v2h-0.5
		l-2-2.5l0,0v1c0,0.6,0,0.8,0,1s0.2,0.3,0.5,0.3v0.2h-1.4v-0.2c0.2,0,0.4-0.1,0.4-0.3c0-0.2,0-0.5,0-1v-1c0-0.4,0-0.5-0.1-0.6
		s-0.2-0.1-0.4-0.2V51.9L81.5,51.9z M86.3,59.9c0,1.1-0.8,1.8-1.8,1.8c-1.1,0-1.8-0.8-1.8-1.8c0-0.9,0.6-1.9,1.8-1.9
		C85.5,58.2,86.3,58.9,86.3,59.9z M82.3,61.5v0.2h-1.7v-0.2c0.4,0,0.4-0.1,0.4-0.6v-1.8c0-0.6,0-0.6-0.4-0.6v-0.2h1.7v0.2
		c-0.4,0-0.4,0.1-0.4,0.6v1.8C81.9,61.4,81.9,61.5,82.3,61.5z M79.5,55.1c0.4,0,0.4-0.1,0.4-0.6v-1.8c0-0.6,0-0.6-0.4-0.6v-0.2h1.7
		v0.2c-0.4,0-0.4,0.1-0.4,0.6v1.8c0,0.6,0,0.6,0.4,0.6v0.2h-1.7V55.1z M79.6,61.5v0.2h-1.9v-0.2c0.4,0,0.5-0.1,0.5-0.6v-2.3h-0.1
		c-0.4,0-0.5,0.1-0.6,0.2s-0.1,0.2-0.2,0.5h-0.2c0-0.4,0.1-0.8,0.1-1.1h0.2c0.1,0.1,0.1,0.1,0.3,0.1h2.1c0.1,0,0.2,0,0.3-0.1h0.2
		c0,0.2,0,0.7,0.1,1.1h-0.2c-0.1-0.3-0.1-0.5-0.2-0.5c-0.1-0.1-0.3-0.1-0.5-0.1h-0.1V61C79.1,61.4,79.1,61.5,79.6,61.5z M76,55.3
		h-1.3v-0.2c0.3,0,0.4-0.1,0.4-0.3c0-0.2,0.1-0.4,0.1-0.9l0.1-1.1c0-0.7,0-0.7-0.4-0.8v-0.2h1.2l0.9,2.1l0.8-2.1h1.3V52
		c-0.4,0-0.4,0.1-0.4,0.6l0.1,1.8c0,0.6,0,0.6,0.4,0.6v0.2h-1.7V55c0.4,0,0.4-0.1,0.4-0.6v-1.9l0,0l-1,2.7h-0.3l-1-2.5l0,0v1.2
		c0,0.5,0,0.7,0,0.9c0,0.2,0.1,0.2,0.5,0.3L76,55.3L76,55.3z M80.7,68.1H79v-0.2c0.4,0,0.4-0.1,0.4-0.6v-1.9l0,0l-1,2.7h-0.3l-1-2.5
		l0,0v1.2c0,0.5,0,0.7,0,0.9c0,0.2,0.1,0.2,0.5,0.3v0.2h-1.3V68c0.3,0,0.4-0.1,0.4-0.3c0-0.2,0.1-0.4,0.1-0.9l0.1-1.1
		c0-0.7,0-0.7-0.4-0.8v-0.2h1.2l0.9,2.1l0.8-2.1h1.3v0.2c-0.4,0-0.4,0.1-0.4,0.6l0.1,1.8c0,0.6,0,0.6,0.4,0.6L80.7,68.1L80.7,68.1z
		 M83.7,68.1H81v-0.2c0.4,0,0.5-0.1,0.5-0.6v-1.8c0-0.6,0-0.6-0.4-0.6v-0.2h2.5c0,0.1,0,0.5,0.1,0.9h-0.2c-0.1-0.3-0.1-0.4-0.2-0.5
		C83.2,65,83,65,82.8,65h-0.2c-0.2,0-0.2,0-0.2,0.2v1h0.3c0.5,0,0.5,0,0.5-0.4h0.2v1.3h-0.2c-0.1-0.5-0.1-0.5-0.5-0.5h-0.3v0.9
		c0,0.3,0,0.4,0.1,0.5c0.1,0,0.2,0,0.4,0s0.4,0,0.6-0.2c0.1-0.1,0.2-0.3,0.3-0.5H84C83.9,67.4,83.8,67.9,83.7,68.1z M87.4,68.1h-1.7
		v-0.2h0.2c0.2,0,0.2-0.1,0.1-0.3l-0.2-0.5h-0.9l-0.2,0.5c-0.1,0.2-0.1,0.3,0.2,0.3h0.2v0.2h-1.2v-0.2c0.3,0,0.4-0.1,0.5-0.5
		l1.1-2.7l0.4-0.1l0.4,1c0.2,0.6,0.5,1.3,0.7,1.8s0.3,0.5,0.5,0.5L87.4,68.1L87.4,68.1z M88.7,55.3H87v-0.2h0.2
		c0.2,0,0.2-0.1,0.1-0.3l-0.2-0.5h-0.9L86,54.8c-0.1,0.2-0.1,0.3,0.2,0.3h0.2v0.2h-1.2v-0.2c0.3,0,0.4-0.1,0.5-0.5l1.1-2.7l0.4-0.1
		l0.4,1c0.2,0.6,0.5,1.3,0.7,1.8s0.3,0.5,0.5,0.5L88.7,55.3L88.7,55.3z"/>
</g>
<circle class="st0" cx="65.5" cy="110.8" r="1.4"/>
<circle class="st0" cx="79.5" cy="113.1" r="1.4"/>
<path class="st0" d="M26.9,35.1L26.9,35.1L26.9,35.1z"/>
<path class="st0" d="M85.3,10L85.3,10L85.3,10z"/>
<path class="st0" d="M107.7,37.6L107.7,37.6L107.7,37.6z"/>
<path class="st0" d="M118.5,82.7L118.5,82.7L118.5,82.7z"/>
<circle class="st0" cx="71.6" cy="12.7" r="1.4"/>
<circle class="st0" cx="104.6" cy="25.7" r="1.4"/>
<g>
	<path class="st0" d="M36.4,85.4c0.5,0.8,0.8,1.6,0.8,2.4c0,1-0.3,1.8-2.1,3l-5,3.6l-0.9-1.3c0,0,5.1-3.7,5.2-3.7
		c0.9-0.6,1.3-1.1,1.3-1.8c0-0.4-0.2-0.9-0.5-1.4c-0.5-0.7-1.1-1-1.7-1c-0.5,0-1.1,0.4-2.1,1.1l-4.7,3.2l-0.9-1.3l4.5-3
		c1.2-0.9,2.2-1.5,3.2-1.5C34.8,83.6,35.8,84.5,36.4,85.4z"/>
</g>
<g>
	<path class="st0" d="M20.3,75.6l9.5-3.3l0.5,1.4l-5.5,6.7l6.9-2.7l0.5,1.4l-9.4,3.6l-0.5-1.4l5.5-6.7l-7,2.5L20.3,75.6z"/>
</g>
<g>
	<path class="st0" d="M18.9,68l10-1.5l0.2,1.6l-10,1.5L18.9,68z"/>
</g>
<g>
	<path class="st0" d="M18.6,55.9v-1.7l10,4.1L28.5,60l-10.2,3.1v-1.7l8.3-2.3L18.6,55.9z"/>
</g>
<path class="st0" d="M27.7,33.3c-1.4,0-2.1,0.8-3,2.5l-1.2,2.1l8.9,4.8l0.8-1.4l-3.7-2l0.2-0.4c0.6-1.1,0.8-1.3,2.4-1.2L35,38
	l0.8-1.5l-3.3-0.3c-0.7-0.1-1.2-0.1-1.6,0c-0.1,0-0.3,0.1-0.5,0.2c0-0.2,0.1-0.4,0.1-0.5c0-0.3,0-0.6-0.1-0.8
	c-0.2-0.6-0.6-1.1-1.3-1.4C28.7,33.5,28.2,33.3,27.7,33.3z M25.9,36.4c0.6-1.1,1-1.5,1.6-1.5c0.2,0,0.5,0.1,0.8,0.2
	c0.4,0.2,0.7,0.6,0.8,0.9c0,0.1,0.1,0.3,0.1,0.4c0,0.6-0.3,1.2-0.7,1.8l-0.2,0.4l-2.8-1.5L25.9,36.4z"/>
<g>
	<path class="st0" d="M38.8,19.1l1.3-1l6.1,8l-1.3,1L38.8,19.1z"/>
</g>
<g>
	<path class="st0" d="M44.3,15.1l6.5-3.4l0.6,1.2l-2.5,1.3l4,7.7l-1.4,0.7l-4-7.7l-2.6,1.3L44.3,15.1z"/>
</g>
<g>
	<path class="st0" d="M60.6,8.7l1.7-0.5L60.9,15l1.1,3.8l-1.5,0.4l-1.1-3.8l-4.8-5l1.7-0.5l3.4,3.6L60.6,8.7z"/>
</g>
<g>
	<path class="st0" d="M91.4,22.5l5.1-8.7l4.8,2.8l-0.7,1.2l-3.4-2l-1.4,2.4l3.2,1.9l-0.7,1.2l-3.2-1.9l-2.3,3.9L91.4,22.5z"/>
</g>
<g>
	<path class="st0" d="M117.4,45l3.7-4.4l0.6,1.7l-2.7,3.1l4.1,0.9l0.5,1.6l-5.6-1.3l-4,4.7l-0.6-1.7l3-3.5l-4.5-1l-0.5-1.7L117.4,45
		z"/>
</g>
<g>
	<path class="st0" d="M114.5,54.9l10.1-0.8l0.5,5.6l-1.4,0.1l-0.3-4l-2.8,0.2l0.3,3.8l-1.3,0.1l-0.3-3.8l-4.6,0.4L114.5,54.9z"/>
</g>
<path class="st0" d="M118.9,63.9c-1.2,0-2.2,0.3-3.1,0.9c-1.5,1.1-1.8,2.7-1.8,3.6c0,3.4,3.2,4.8,5.6,4.8c1.2,0,2.2-0.3,3.1-0.9
	c1.7-1.2,1.8-3.1,1.8-3.7C124.5,65.6,121.8,63.9,118.9,63.9z M119.7,71.6c-2,0-4.3-1.1-4.3-3.1c0-0.7,0.3-1.7,1.1-2.3
	c0.6-0.4,1.4-0.7,2.3-0.7c1,0,2.8,0.3,3.8,1.6c0.3,0.4,0.5,1,0.5,1.5c0,0.8-0.3,1.7-1.1,2.3C121.4,71.4,120.6,71.6,119.7,71.6z"/>
<path class="st0" d="M113.1,30.3c-1,0-2.1,0.3-3.2,1c-1.9,1.2-2.6,3-2.6,4.3c0,0.8,0.2,1.7,0.7,2.4c1.1,1.7,2.7,2.1,3.8,2.1
	c1,0,2.1-0.3,3.2-1c1.2-0.8,2.6-2.3,2.6-4.3c0-0.8-0.2-1.6-0.7-2.4C116,31,114.6,30.3,113.1,30.3z M111.5,38.5
	c-0.9,0-1.7-0.4-2.3-1.3c-0.3-0.5-0.4-0.9-0.4-1.4c0-1.1,0.7-2.3,2-3.2c0.9-0.6,1.7-0.8,2.5-0.8c1,0,1.8,0.4,2.3,1.3
	c0.3,0.5,0.5,1,0.5,1.5c0,1.1-0.7,2.2-2,3C113.2,38.2,112.3,38.5,111.5,38.5z"/>
<path class="st0" d="M85.5,9.5c-2.1,0-3.9,1.4-4.7,3.9c-0.2,0.6-0.3,1.1-0.3,1.6c0,1,0.2,1.8,0.6,2.6c0.9,1.7,2.6,2.3,3.9,2.3
	c0.7,0,1.4-0.2,2.1-0.5c1.7-0.9,2.8-3.1,2.8-5.2c0-0.9-0.2-1.7-0.6-2.5C88.6,10.3,87.1,9.5,85.5,9.5z M85,18.5
	c-0.7,0-1.8-0.4-2.4-1.4c-0.3-0.5-0.4-1.2-0.4-1.8c0-1.8,1.2-4.3,3.4-4.3c1.2,0,2.8,0.9,2.8,3.2C88.4,15.5,87.4,18.5,85,18.5z"/>
<path class="st0" d="M29.6,46.1l1.4,0.4L29.5,52l-9.8-2.7l1.7-5.6l1.3,0.4l-1.2,4l2.7,0.7l1-3.7l1.3,0.4l-1,3.7l3,0.8L29.6,46.1z"/>
<g>
	<g>
		<path class="st0" d="M32.2,25c1.4-1.6,2.8-1.5,2.8-1.5l0.2,1.3c0,0-1.1,0-2,1c-0.4,0.4-0.6,0.9-0.6,1.3c0,0.3,0.1,0.6,0.4,0.8
			c0.7,0.6,1.9-0.1,2.6-0.4c0.6-0.2,1.4-0.6,2.2-0.6c0.6,0,1.2,0.2,1.8,0.7c0.7,0.6,1,1.4,1,2.1c0,0.9-0.3,1.6-1,2.4
			c-1.3,1.4-3,1.6-3,1.6l-0.3-1.4c1-0.2,1.8-0.6,2.3-1.2c0.4-0.4,0.5-0.9,0.5-1.3c0-0.4-0.2-0.7-0.5-1c-0.3-0.2-0.6-0.3-0.9-0.3
			c-0.6,0-1.4,0.4-2.1,0.6c-1.2,0.5-2.5,0.9-3.7-0.1c-0.6-0.5-0.9-1.2-0.9-1.9C31.2,26.6,31.5,25.7,32.2,25z"/>
	</g>
</g>
<path class="st0" d="M111.8,77l3.8,1.7l-0.2,0.4c-0.5,1.2-0.7,1.4-2.3,1.4h-2.9l-0.7,1.6h3.3c0.7,0,1.2,0,1.6-0.2
	c0.1-0.1,0.3-0.1,0.4-0.3c0,0.1,0,0.2,0,0.3c0,0.4,0.1,0.7,0.2,1.1c0.5,1.1,1.7,1.6,2.6,1.6c1.6,0,2.2-1,3-2.7
	c0-0.1,0.9-2.2,0.9-2.2l-9.2-4.1L111.8,77z M117.8,82.9c-0.5,0-1.2-0.3-1.5-1c-0.1-0.2-0.1-0.4-0.1-0.6c0-0.6,0.3-1.1,0.5-1.7
	l0.2-0.4l2.9,1.3l-0.3,0.8C118.9,82.6,118.5,82.9,117.8,82.9z"/>
<path class="st0" d="M106.5,86.5c-1,1.3-1.8,2.5-1.8,4c0,1.3,0.6,2.7,2.1,3.9c1,0.8,2.1,1.2,3.2,1.2c1.4,0,2.5-0.4,4.3-2.6l1.6-2
	l-7.9-6.3L106.5,86.5z M110.1,94.1c-0.8,0-1.6-0.3-2.3-0.9c-0.8-0.6-1.6-1.6-1.6-2.9c0-0.9,0.5-1.7,1.2-2.6l0.7-0.8l5.8,4.6
	l-0.4,0.6C112.2,93.3,111.5,94.1,110.1,94.1z"/>
<path class="st0" d="M129.5,61c0-31.8-26-57.8-57.9-57.8S13.7,29.1,13.7,61c0,19.1,9.4,36.9,25.2,47.7c1.6,5.8,6.9,10.1,13.1,10.1
	c1.7,0,3.4-0.3,4.9-0.9c2.1,0.7,4.3,1.3,6.5,1.7c-0.6,1.8-1.5,3.4-2.4,4.9l0,0c0,0,0,0-0.1,0l1.2,1.2c0.3-0.2,0.7-0.3,1-0.3
	c1.2,0,2.2,1,2.2,2.2c0,1.2-1,2.2-2.2,2.2c-1,0-2-0.7-2.4-1.4c0,0-0.3,1-0.3,2.3c0,4.1,4.5,8.9,10.8,10.9c6.3-2,10.8-6.7,10.8-10.9
	c0-1.4-0.3-2.3-0.3-2.3c-0.5,0.6-1.3,1.4-2.4,1.4c-1.2,0-2.2-1-2.2-2.2c0-1.2,1-2.2,2.2-2.2c0.4,0,0.8,0.1,1.1,0.3l1.2-1.2l0,0
	c-0.7-1.6-1.1-3-1.5-4.4c10.4-1.4,19.2-5.8,26.2-13.1l0,0C121.2,95.9,129.5,79.2,129.5,61z M52.2,117.1c-6.6,0-11.9-5.4-11.9-11.9
	c0-2.1,0.5-4,1.4-5.7c0.6,0.6,1.3,1.1,1.9,1.7c-0.6,1.2-0.9,2.6-0.9,4c0,3.6,1.8,6.5,5.2,8.6c2,1.2,4.2,2.2,6.5,3.1
	C53.8,117.1,53,117.1,52.2,117.1z M71.6,99.8c-2.5,0-4.9-0.2-7.3-0.7c-2.3-4.5-7-7.4-12.1-7.4c-1.3,0-2.5,0.2-3.6,0.5
	c-9.8-7.3-15.7-18.9-15.7-31.1c0-21.4,17.4-38.8,38.8-38.8s38.8,17.4,38.8,38.8S93,99.8,71.6,99.8z M80.3,100.4
	c-1.2,1.7-1.9,4-2.1,6.3c-3.7-0.9-7-2.2-9.9-3.5c0.6-1.1,2.1-1.8,3.3-1.8C74.6,101.4,77.5,101,80.3,100.4z M68,101.2
	c-0.5,0.4-0.9,0.8-1.2,1.3c-1.5-0.7-3.3-1.6-4.5-2.3C64,100.6,66.2,101.1,68,101.2z M52.2,93.2c4,0,7.7,2,9.9,5.3
	c-1.9-0.5-3.8-1.1-5.6-1.9l0,0h-0.1c-1.3-0.6-2.7-0.9-4.1-0.9c-3.2,0-6,1.6-7.7,3.9c-0.7-0.4-1.5-0.8-2.2-1.3
	C44.6,95.3,48.1,93.2,52.2,93.2z M79.6,123.7c-2.1,0-3.9,1.5-3.9,3.8c0,2.3,1.8,3.8,3.9,3.8c0.3,0,0.6-0.1,0.9-0.1
	c-0.4,3.2-4.2,6.8-9,8.4c-4.8-1.6-8.5-5.2-9-8.4c0.3,0.1,0.6,0.1,0.9,0.1c2.3,0,3.9-1.6,3.9-3.8c0-2.1-1.7-3.8-3.8-3.8
	c0.7-1.2,1.3-2.5,1.7-3.8c2.7,0.5,5.3,0.7,7.7,0.7c2,0,3.9-0.1,5.8-0.3c0.3,1.1,0.6,2.2,1.1,3.4C79.8,123.7,79.7,123.7,79.6,123.7z
	 M73,119c-7.8,0-17.4-2.6-24.1-6.6c-2-1.2-4.4-3.4-4.4-7.2c0-1,0.2-2,0.6-2.9c2.5,2.1,5.1,4,6.7,4.9c0.4,0.2,0.6,0.3,1,0.3
	c1,0,1.9-0.8,1.9-1.9c0-0.8-0.4-1.4-1.1-1.7c-1.4-0.6-4.3-1.8-7.4-3.4c1.4-1.9,3.7-3.1,6.2-3.1c1.2,0,2.3,0.3,3.3,0.7l2.1,1.2
	c6.8,4.1,24.2,14.7,45.1,8.9C94.9,115.4,85.1,119,73,119z M105.5,105.7c-9.4,3.3-18.2,3.1-25.7,1.4c0.2-3.3,1.6-6.9,3.7-7.6
	C100,94.4,112,79,112,60.9c0-22.3-18.2-40.4-40.5-40.4S31.2,38.7,31.2,61c0,12.4,5.8,24.2,15.5,31.8c-2.3,1-4.3,2.7-5.7,4.7
	c-0.7-0.5-1.5-1-2.1-1.6l-0.4,0.4c0.4,0.5,1.1,1.2,1.9,2c-1.2,2-1.9,4.4-1.9,6.9c0,0.4,0,0.8,0.1,1.2C24.1,95.8,15.5,79,15.5,61
	c0-31,25.2-56.1,56.1-56.1s56.1,25.2,56.1,56.1C127.8,78.7,119.7,95,105.5,105.7z"/>
</svg>
