<?xml version="1.0" encoding="utf-8"?>
<!-- Generator: Adobe Illustrator 24.0.3, SVG Export Plug-In . SVG Version: 6.00 Build 0)  -->
<svg version="1.1" id="Layer_1" xmlns="http://www.w3.org/2000/svg" xmlns:xlink="http://www.w3.org/1999/xlink" x="0px" y="0px"
	 viewBox="0 0 1024 1024" style="enable-background:new 0 0 1024 1024;" xml:space="preserve">
<style type="text/css">
	.st0{fill:#FFFFFF;}
</style>
<path class="st0" d="M640.1,492.9c10.8,10.8,10.8,28.4,0,39.2L484.3,687.8c-10.8,10.8-31.1,8.2-39.2,0c-6.4-6.4-5.2-13.2-5.2-13.2
	c0-162.2,0-162.2,0-324.4c0,0,0.5-8.4,5.2-13.2c10.8-10.8,28.4-10.8,39.2,0L640.1,492.9z"/>
<path class="st0" d="M512,882.2c-50,0-98.5-9.8-144.1-29.1c-44.1-18.6-83.7-45.3-117.7-79.3c-34-34-60.7-73.6-79.3-117.7
	c-19.3-45.7-29.1-94.1-29.1-144.1s9.8-98.5,29.1-144.1c18.6-44.1,45.3-83.7,79.3-117.7c34-34,73.6-60.7,117.7-79.3
	c45.7-19.3,94.1-29.1,144.1-29.1s98.5,9.8,144.1,29.1c44.1,18.6,83.7,45.3,117.7,79.3c34,34,60.7,73.6,79.3,117.7
	c19.3,45.7,29.1,94.1,29.1,144.1s-9.8,98.5-29.1,144.1c-18.6,44.1-45.3,83.7-79.3,117.7c-34,34-73.6,60.7-117.7,79.3
	C610.5,872.4,562,882.2,512,882.2z M512,175.8c-89.8,0-174.2,35-237.7,98.5S175.8,422.2,175.8,512c0,89.8,35,174.2,98.5,237.7
	c63.5,63.5,147.9,98.5,237.7,98.5c89.8,0,174.2-35,237.7-98.5c63.5-63.5,98.5-147.9,98.5-237.7c0-89.8-35-174.2-98.5-237.7
	C686.2,210.8,601.8,175.8,512,175.8z"/>
</svg>
